<svg xmlns="http://www.w3.org/2000/svg" xmlns:xlink="http://www.w3.org/1999/xlink" xmlns:lucid="lucid" width="2046.67" height="977.01"><g transform="translate(0 0)" lucid:page-tab-id="HWEp-vi-RSFO"><path d="M0 0h2046.67v977H0z" fill="#fff"/><path d="M20 68.5h300v242H20z" stroke="#333" stroke-width="2" fill="#fff"/><path d="M20 106.1h300M20 208.4h300" stroke="#333" stroke-width="2" fill="none"/><use xlink:href="#a" transform="matrix(1,0,0,1,28,76.50250185646303) translate(126.05 14.6)"/><use xlink:href="#b" transform="matrix(1,0,0,1,32,114.10250185646302) translate(0 25.5)"/><use xlink:href="#c" transform="matrix(1,0,0,1,32,114.10250185646302) translate(29.9 25.5)"/><use xlink:href="#d" transform="matrix(1,0,0,1,32,114.10250185646302) translate(0 47.1)"/><use xlink:href="#e" transform="matrix(1,0,0,1,32,114.10250185646302) translate(65.85000000000001 47.1)"/><use xlink:href="#f" transform="matrix(1,0,0,1,32,114.10250185646302) translate(0 68.7)"/><use xlink:href="#g" transform="matrix(1,0,0,1,32,114.10250185646302) translate(54.5 68.7)"/><use xlink:href="#h" transform="matrix(1,0,0,1,32,216.402501856463) translate(0 25.5)"/><use xlink:href="#i" transform="matrix(1,0,0,1,32,216.402501856463) translate(116.35000000000001 25.5)"/><use xlink:href="#j" transform="matrix(1,0,0,1,32,216.402501856463) translate(0 47.1)"/><use xlink:href="#k" transform="matrix(1,0,0,1,32,216.402501856463) translate(0 68.7)"/><path d="M350.38 189.5h28.12" stroke="#333" fill="none"/><path d="M321.7 188.53l15.35-14.34 14.64 15.35-15.66 14.32z" stroke="#333" fill="#333"/><path d="M379 190h-.5v-1h.5z" fill="#333"/><path d="M380 111.5h300v156H380z" stroke="#333" stroke-width="2" fill="#fff"/><path d="M380 149.1h300" stroke="#333" stroke-width="2" fill="none"/><use xlink:href="#l" transform="matrix(1,0,0,1,388,119.50250185646303) translate(115.55 14.6)"/><use xlink:href="#m" transform="matrix(1,0,0,1,392,157.10250185646302) translate(0 55.1)"/><use xlink:href="#n" transform="matrix(1,0,0,1,392,157.10250185646302) translate(99.35000000000001 55.1)"/><use xlink:href="#o" transform="matrix(1,0,0,1,392,157.10250185646302) translate(155.3 55.1)"/><path d="M260 368.5h160v121H260z" stroke="#333" stroke-width="2" fill="#fff"/><use xlink:href="#p" transform="matrix(1,0,0,1,268,376.502501856463) translate(24.099999999999994 56.1)"/><path d="M480 388.5h160v121H480z" stroke="#333" stroke-width="2" fill="#fff"/><use xlink:href="#q" transform="matrix(1,0,0,1,488,396.502501856463) translate(29.074999999999996 56.1)"/><path d="M680 368.5h160v121H680z" stroke="#333" stroke-width="2" fill="#fff"/><use xlink:href="#r" transform="matrix(1,0,0,1,688,376.502501856463) translate(24.574999999999996 56.1)"/><path d="M340 367v-12.33m0-12.33V330l.4-3.1 1.2-2.9 1.9-2.48 2.5-1.92 2.9-1.2 3.1-.4h9.22m9.22 0h18.45m9.2 0h18.46m9.22 0h18.44m9.22 0h18.45m9.2 0h18.46m9.22 0H518l3.1-.4 2.9-1.2 2.5-1.9 1.9-2.5 1.2-2.88.4-3.12v-7.04m0-7.03v-7.04" stroke="#333" fill="none"/><path d="M340.5 367.5h-1v-.5h1z" fill="#333"/><path d="M530 270.12l4.64 14.27h-9.28z" stroke="#333" fill="#fff"/><path d="M560 387v-7.83m0-7.83v-15.67m0-7.83V340l-.4-3.1-1.2-2.9-1.9-2.48-2.5-1.92-2.9-1.2-3.1-.4h-6l-3.1-.4-2.9-1.2-2.5-1.9-1.9-2.5-1.2-2.88-.4-3.12v-10.37m0-10.37V284.9" stroke="#333" fill="none"/><path d="M560.5 387.5h-1v-.5h1z" fill="#333"/><path d="M530 270.12l4.64 14.27h-9.28z" stroke="#333" fill="#fff"/><path d="M760 367v-12.33m0-12.33V330l-.4-3.1-1.2-2.9-1.9-2.48-2.5-1.92-2.9-1.2-3.1-.4h-9.8m-9.82 0h-19.62m-9.8 0h-19.63m-9.8 0H649.9m-9.8 0h-19.62m-9.8 0h-19.63m-9.8 0H561.6m-9.8 0H542l-3.1-.4-2.9-1.2-2.5-1.9-1.9-2.5-1.2-2.88-.4-3.12v-7.04m0-7.03v-7.04" stroke="#333" fill="none"/><path d="M760.5 367.5h-1v-.5h1z" fill="#333"/><path d="M530 270.12l4.64 14.27h-9.28z" stroke="#333" fill="#fff"/><path d="M820 60h360v177H820z" stroke="#333" stroke-width="2" fill="#fff"/><path d="M820 97.6h360m-360 80.7h360" stroke="#333" stroke-width="2" fill="none"/><use xlink:href="#s" transform="matrix(1,0,0,1,828,68) translate(125.05 14.6)"/><use xlink:href="#t" transform="matrix(1,0,0,1,832,105.6) translate(0 25.299999999999997)"/><use xlink:href="#c" transform="matrix(1,0,0,1,832,105.6) translate(97.4 25.299999999999997)"/><use xlink:href="#u" transform="matrix(1,0,0,1,832,105.6) translate(0 46.9)"/><use xlink:href="#v" transform="matrix(1,0,0,1,832,105.6) translate(122.35000000000001 46.9)"/><use xlink:href="#w" transform="matrix(1,0,0,1,832,105.6) translate(198.05 46.9)"/><path d="M1250 67h240v180h-240z" stroke="#333" stroke-width="2" fill="#fff"/><path d="M1250 104.6h240" stroke="#333" stroke-width="2" fill="none"/><use xlink:href="#x" transform="matrix(1,0,0,1,1258,75.00250185646303) translate(32.650000000000006 14.6)"/><use xlink:href="#y" transform="matrix(1,0,0,1,1262,112.60250185646302) translate(0 23.89999999999999)"/><use xlink:href="#z" transform="matrix(1,0,0,1,1262,112.60250185646302) translate(0 45.49999999999999)"/><use xlink:href="#A" transform="matrix(1,0,0,1,1262,112.60250185646302) translate(0 67.1)"/><use xlink:href="#B" transform="matrix(1,0,0,1,1262,112.60250185646302) translate(0 88.70000000000002)"/><use xlink:href="#C" transform="matrix(1,0,0,1,1262,112.60250185646302) translate(111.30000000000001 88.70000000000002)"/><use xlink:href="#D" transform="matrix(1,0,0,1,1262,112.60250185646302) translate(0 110.30000000000001)"/><path d="M740 600h200v177H740z" stroke="#333" stroke-width="2" fill="#fff"/><path d="M740 637.6h200m-200 59.1h200" stroke="#333" stroke-width="2" fill="none"/><use xlink:href="#E" transform="matrix(1,0,0,1,748,608) translate(12.675000000000011 14.6)"/><use xlink:href="#F" transform="matrix(1,0,0,1,752,645.6) translate(0 25.6)"/><use xlink:href="#G" transform="matrix(1,0,0,1,752,645.6) translate(59.85 25.6)"/><use xlink:href="#z" transform="matrix(1,0,0,1,752,704.7) translate(0 25.299999999999997)"/><use xlink:href="#H" transform="matrix(1,0,0,1,752,704.7) translate(0 46.9)"/><path d="M980 600h200v175H980z" stroke="#333" stroke-width="2" fill="#fff"/><path d="M980 637.6h200m-200 58.1h200" stroke="#333" stroke-width="2" fill="none"/><use xlink:href="#I" transform="matrix(1,0,0,1,988,608) translate(1.6000000000000227 14.6)"/><use xlink:href="#F" transform="matrix(1,0,0,1,992,645.6) translate(0 25.1)"/><use xlink:href="#G" transform="matrix(1,0,0,1,992,645.6) translate(59.85 25.1)"/><use xlink:href="#z" transform="matrix(1,0,0,1,992,703.7) translate(0 24.799999999999997)"/><use xlink:href="#H" transform="matrix(1,0,0,1,992,703.7) translate(0 46.4)"/><path d="M1740 548.5h190v242h-190z" stroke="#333" stroke-width="2" fill="#fff"/><path d="M1740 586.1h190m-190 59.1h190" stroke="#333" stroke-width="2" fill="none"/><use xlink:href="#J" transform="matrix(1,0,0,1,1748,556.502501856463) translate(6.200000000000017 14.6)"/><use xlink:href="#F" transform="matrix(1,0,0,1,1752,594.102501856463) translate(0 25.6)"/><use xlink:href="#G" transform="matrix(1,0,0,1,1752,594.102501856463) translate(59.85 25.6)"/><use xlink:href="#y" transform="matrix(1,0,0,1,1752,653.2025018564631) translate(0 25.39999999999999)"/><use xlink:href="#z" transform="matrix(1,0,0,1,1752,653.2025018564631) translate(0 46.99999999999999)"/><use xlink:href="#A" transform="matrix(1,0,0,1,1752,653.2025018564631) translate(0 68.6)"/><use xlink:href="#K" transform="matrix(1,0,0,1,1752,653.2025018564631) translate(0 90.20000000000002)"/><use xlink:href="#G" transform="matrix(1,0,0,1,1752,653.2025018564631) translate(0 111.80000000000001)"/><path d="M980 340h360v134H980z" stroke="#333" stroke-width="2" fill="#fff"/><path d="M980 377.6h360m-360 37.6h360" stroke="#333" stroke-width="2" fill="none"/><use xlink:href="#L" transform="matrix(1,0,0,1,988,348) translate(115.1 14.6)"/><use xlink:href="#M" transform="matrix(1,0,0,1,992,423.20000000000005) translate(0 14.799999999999999)"/><use xlink:href="#N" transform="matrix(1,0,0,1,992,423.20000000000005) translate(137.3 14.799999999999999)"/><use xlink:href="#O" transform="matrix(1,0,0,1,992,423.20000000000005) translate(166.25 14.799999999999999)"/><use xlink:href="#N" transform="matrix(1,0,0,1,992,423.20000000000005) translate(243.15 14.799999999999999)"/><use xlink:href="#P" transform="matrix(1,0,0,1,992,423.20000000000005) translate(272.1 14.799999999999999)"/><use xlink:href="#Q" transform="matrix(1,0,0,1,992,423.20000000000005) translate(0 36.4)"/><path d="M1160 338.5V333m0-5.5v-11m0-5.5v-5.5l.4-3.1 1.2-2.9m4.4-4.4l2.9-1.2 3.1-.4h5.17m5.16 0h10.34m5.16 0h10.34m5.16 0h10.34m5.16 0h10.34m5.16 0h10.34m5.16 0h10.34m5.16 0h10.34m5.16 0h10.34m5.16 0h10.34m5.16 0h10.34m5.16 0h10.34m5.16 0h5.17l3.1-.4 2.9-1.2m4.4-4.4l1.2-2.9.4-3.1v-5.7m0-5.7v-5.7" stroke="#333" fill="none"/><path d="M1160.5 339h-1v-.5h1z" fill="#333"/><path d="M1370 249.62l4.64 14.27h-9.28z" stroke="#333" fill="#fff"/><path d="M840 598.5V593m0-5.5v-11m0-5.5v-11m0-5.5V549l.4-3.1 1.2-2.9m4.4-4.4l2.9-1.2 3.1-.4h4.93m4.94 0h9.86m4.94 0h9.86m4.94 0h9.86m4.94 0h9.86m4.94 0h9.86m4.94 0h9.86m4.94 0h9.86m4.94 0h9.86m4.94 0h9.86m4.94 0h9.86m4.94 0h9.86m4.94 0h9.86m4.94 0h9.86m4.94 0h9.86m4.94 0h9.86m4.94 0h9.86m4.94 0h9.86m4.94 0h9.86m4.94 0h9.86m4.94 0h4.93l3.1-.4 2.9-1.2m4.4-4.4l1.2-2.9.4-3.1v-5.6m0-5.6v-11.2m0-5.6v-5.62" stroke="#333" fill="none"/><path d="M840.5 599h-1v-.5h1z" fill="#333"/><path d="M1160 476.62l4.64 14.26h-9.28z" stroke="#333" fill="#fff"/><path d="M1080 598.5V593m0-5.5v-11m0-5.5v-11m0-5.5V549l.4-3.1 1.2-2.9m4.4-4.4l2.9-1.2 3.1-.4h4.67m4.66 0h9.34m4.66 0h9.34m4.66 0h9.34m4.66 0h4.67l3.1-.4 2.9-1.2m4.4-4.4l1.2-2.9.4-3.1v-5.6m0-5.6v-11.2m0-5.6v-5.62" stroke="#333" fill="none"/><path d="M1080.5 599h-1v-.5h1z" fill="#333"/><path d="M1160 476.62l4.64 14.26h-9.28z" stroke="#333" fill="#fff"/><path d="M1835 547v-5.08m0-5.08v-10.17m0-5.08V511.4m0-5.08v-10.17m0-5.08V480.9m0-5.08v-10.17m0-5.08V450.4m0-5.08v-10.17m0-5.08V419.9m0-5.08v-5.1l-.4-3.1-1.2-2.88m-4.4-4.4l-2.9-1.2-3.1-.4h-5.07m-5.07 0h-10.14m-5.06 0h-10.14m-5.07 0h-10.14m-5.06 0h-10.14m-5.07 0h-10.13m-5.07 0h-10.14m-5.08 0h-10.14m-5.07 0h-10.12m-5.07 0h-10.13m-5.07 0h-10.14m-5.07 0h-10.14m-5.07 0h-10.15m-5.07 0h-10.14m-5.07 0h-10.14m-5.06 0h-10.14m-5.07 0h-10.14m-5.07 0h-10.14m-5.06 0h-10.13m-5.06 0H1529m-5.07 0h-10.14m-5.08 0h-10.13m-5.08 0h-10.14m-5.07 0h-10.13m-5.07 0h-10.13m-5.07 0h-10.14m-5.07 0h-10.15m-5.07 0h-10.14m-5.06 0h-10.14m-5.07 0H1382l-3.1-.42-2.9-1.2m-4.4-4.4l-1.2-2.87-.4-3.12v-5.05m0-5.06v-10.12m0-5.05v-10.12m0-5.05v-10.12m0-5.05V320m0-5.04v-10.12m0-5.06v-10.1m0-5.07v-10.1m0-5.06v-5.05" stroke="#333" fill="none"/><path d="M1835.5 547.5h-1v-.5h1z" fill="#333"/><path d="M1370 249.62l4.64 14.27h-9.28z" stroke="#333" fill="#fff"/><path d="M760 861h160v40H760z" stroke="#333" stroke-width="2" fill="#fff"/><use xlink:href="#s" transform="matrix(1,0,0,1,768,869) translate(25.049999999999997 15.6)"/><path d="M840 778.5v65.12" stroke="#333" fill="none"/><path d="M840.5 778.5h-1v-.5h1z" fill="#333"/><path d="M840 858.38l-4.64-14.26h9.28z" stroke="#333" fill="#333"/><path d="M1080 776.5v67.12" stroke="#333" fill="none"/><path d="M1080.5 776.5h-1v-.5h1z" fill="#333"/><path d="M1080 858.38l-4.64-14.26h9.28z" stroke="#333" fill="#333"/><path d="M1755 861h160v40h-160z" stroke="#333" stroke-width="2" fill="#fff"/><use xlink:href="#s" transform="matrix(1,0,0,1,1763,869) translate(25.049999999999997 15.6)"/><path d="M1835 792v51.62" stroke="#333" fill="none"/><path d="M1835.5 792.02h-1v-.52h1z" fill="#333"/><path d="M1835 858.38l-4.64-14.26h9.28z" stroke="#333" fill="#333"/><path d="M1220 600h220v177h-220z" stroke="#333" stroke-width="2" fill="#fff"/><path d="M1220 637.33h220m-220 59.1h220" stroke="#333" stroke-width="2" fill="none"/><use xlink:href="#R" transform="matrix(1,0,0,1,1228,608) translate(7.851851851851833 14.555555555555555)"/><use xlink:href="#S" transform="matrix(1,0,0,1,1228,608) translate(12.790123456790106 14.555555555555555)"/><g><use xlink:href="#F" transform="matrix(1,0,0,1,1232,645.3333333333334) translate(0 25.6)"/><use xlink:href="#G" transform="matrix(1,0,0,1,1232,645.3333333333334) translate(59.85 25.6)"/></g><g><use xlink:href="#z" transform="matrix(1,0,0,1,1232,704.4333333333334) translate(0 25.299999999999997)"/><use xlink:href="#H" transform="matrix(1,0,0,1,1232,704.4333333333334) translate(0 46.9)"/></g><path d="M1330 598.5V593m0-5.5v-11m0-5.5v-11m0-5.5V549l-.4-3.1-1.2-2.9m-4.4-4.4l-2.9-1.2-3.1-.4h-4.87m-4.86 0h-9.74m-4.86 0h-9.74m-4.86 0h-9.74m-4.86 0h-9.74m-4.86 0h-9.74m-4.86 0h-9.74m-4.86 0h-9.74m-4.86 0h-9.74m-4.86 0h-9.74m-4.86 0H1172l-3.1-.4-2.9-1.2m-4.4-4.4l-1.2-2.9-.4-3.1v-5.6m0-5.6v-11.2m0-5.6v-5.62" stroke="#333" fill="none"/><path d="M1330.5 599h-1v-.5h1z" fill="#333"/><path d="M1160 476.62l4.64 14.26h-9.28z" stroke="#333" fill="#fff"/><path d="M1480 600h200v180h-200z" stroke="#333" stroke-width="2" fill="#fff"/><path d="M1480 637.6h200m-200 60.6h200" stroke="#333" stroke-width="2" fill="none"/><g><use xlink:href="#T" transform="matrix(1,0,0,1,1488,608) translate(24.5 14.6)"/></g><g><use xlink:href="#F" transform="matrix(1,0,0,1,1492,645.6) translate(0 26.1)"/><use xlink:href="#G" transform="matrix(1,0,0,1,1492,645.6) translate(59.85 26.1)"/></g><g><use xlink:href="#z" transform="matrix(1,0,0,1,1492,706.2) translate(0 26.299999999999997)"/><use xlink:href="#H" transform="matrix(1,0,0,1,1492,706.2) translate(0 47.9)"/></g><path d="M1580 598.5V593m0-5.5v-11m0-5.5v-11m0-5.5V549l-.4-3.1-1.2-2.9m-4.4-4.4l-2.9-1.2-3.1-.4h-5.08m-5.07 0h-10.16m-5.08 0h-10.16m-5.08 0h-10.15m-5.08 0H1502m-5.08 0h-10.15m-5.08 0h-10.16m-5.08 0h-10.15m-5.07 0h-10.15m-5.08 0h-10.15m-5.08 0h-10.15m-5.08 0h-10.16m-5.07 0h-10.15m-5.07 0h-10.16m-5.07 0h-10.16m-5.08 0h-10.16m-5.08 0h-10.15m-5.08 0H1304m-5.08 0h-10.15m-5.08 0h-10.16m-5.08 0h-10.15m-5.07 0h-10.15m-5.08 0h-10.15m-5.08 0h-10.15m-5.08 0h-10.16m-5.07 0h-10.15m-5.07 0H1172l-3.1-.4-2.9-1.2m-4.4-4.4l-1.2-2.9-.4-3.1v-5.6m0-5.6v-11.2m0-5.6v-5.62" stroke="#333" fill="none"/><path d="M1580.5 599h-1v-.5h1z" fill="#333"/><path d="M1160 476.62l4.64 14.26h-9.28z" stroke="#333" fill="#fff"/><path d="M1500 861h160v40h-160z" stroke="#333" stroke-width="2" fill="#fff"/><g><use xlink:href="#s" transform="matrix(1,0,0,1,1508,869) translate(25.049999999999997 15.6)"/></g><path d="M1580 781.5v62.12" stroke="#333" fill="none"/><path d="M1580.5 781.5h-1v-.5h1z" fill="#333"/><path d="M1580 858.38l-4.64-14.26h9.28z" stroke="#333" fill="#333"/><path d="M1586.67 60h380v156h-380z" stroke="#333" stroke-width="2" fill="#fff"/><path d="M1586.67 97.6h380m-380 59.1h380" stroke="#333" stroke-width="2" fill="none"/><g><use xlink:href="#U" transform="matrix(1,0,0,1,1594.6666666666667,68) translate(150.6 14.6)"/></g><g><use xlink:href="#V" transform="matrix(1,0,0,1,1598.6666666666667,164.7) translate(0 25.6)"/></g><path d="M1491.9 157h36.93c5.25 0 9.5-4.25 9.5-9.5s4.26-9.5 9.5-9.5h7.46" stroke="#333" fill="none"/><path d="M1509.2 146.82L1491.98 157l17.22 10.18" stroke="#333" fill="none"/><path d="M1584.96 138l-14.85 14.85-15.14-14.85 15.15-14.85z" stroke="#333" fill="#fff"/><path d="M1000 861h160v40h-160z" stroke="#333" stroke-width="2" fill="#fff"/><g><use xlink:href="#s" transform="matrix(1,0,0,1,1008,869) translate(25.049999999999997 15.6)"/></g><path d="M1250 861h160v40h-160z" stroke="#333" stroke-width="2" fill="#fff"/><g><use xlink:href="#s" transform="matrix(1,0,0,1,1258,869) translate(25.049999999999997 15.6)"/></g><path d="M1330 778.5v65.12" stroke="#333" fill="none"/><path d="M1330.5 778.5h-1v-.5h1z" fill="#333"/><path d="M1330 858.38l-4.64-14.26h9.28z" stroke="#333" fill="#333"/><defs><path fill="#333" d="M232-93c-1 65-40 97-104 97C67 4 28-28 28-90v-158h33c8 89-33 224 67 224 102 0 64-133 71-224h33v155" id="W"/><path fill="#333" d="M117-194c89-4 53 116 60 194h-32v-121c0-31-8-49-39-48C34-167 62-67 57 0H25l-1-190h30c1 10-1 24 2 32 11-22 29-35 61-36" id="X"/><path fill="#333" d="M24-231v-30h32v30H24zM24 0v-190h32V0H24" id="Y"/><path fill="#333" d="M59-47c-2 24 18 29 38 22v24C64 9 27 4 27-40v-127H5v-23h24l9-43h21v43h35v23H59v120" id="Z"/><g id="a"><use transform="matrix(0.05,0,0,0.05,0,0)" xlink:href="#W"/><use transform="matrix(0.05,0,0,0.05,12.950000000000001,0)" xlink:href="#X"/><use transform="matrix(0.05,0,0,0.05,22.950000000000003,0)" xlink:href="#Y"/><use transform="matrix(0.05,0,0,0.05,26.900000000000002,0)" xlink:href="#Z"/></g><path fill="#333" d="M16-82v-28h88v28H16" id="aa"/><path fill="#333" d="M85-194c31 0 48 13 60 33l-1-100h32l1 261h-30c-2-10 0-23-3-31C134-8 116 4 85 4 32 4 16-35 15-94c0-66 23-100 70-100zm9 24c-40 0-46 34-46 75 0 40 6 74 45 74 42 0 51-32 51-76 0-42-9-74-50-73" id="ab"/><path fill="#333" d="M33-154v-36h34v36H33zM33 0v-36h34V0H33" id="ac"/><g id="b"><use transform="matrix(0.05,0,0,0.05,0,0)" xlink:href="#aa"/><use transform="matrix(0.05,0,0,0.05,5.95,0)" xlink:href="#Y"/><use transform="matrix(0.05,0,0,0.05,9.9,0)" xlink:href="#ab"/><use transform="matrix(0.05,0,0,0.05,19.9,0)" xlink:href="#ac"/></g><path fill="#333" d="M50-231l6-30h32l-6 30H50zM6 0l37-190h31L37 0H6" id="ad"/><path fill="#333" d="M67-158c22-48 132-52 116 29L158 0h-32l25-140c3-38-53-32-70-12C52-117 51-52 38 0H6l36-190h30" id="ae"/><path fill="#333" d="M51-54c-9 22 5 41 31 30L79-1C43 14 10-4 19-52l22-115H19l5-23h22l19-43h21l-9 43h35l-4 23H73" id="af"/><g id="c"><use transform="matrix(0.05,0,0,0.05,0,0)" xlink:href="#ad"/><use transform="matrix(0.05,0,0,0.05,3.95,0)" xlink:href="#ae"/><use transform="matrix(0.05,0,0,0.05,13.949999999999998,0)" xlink:href="#af"/></g><path fill="#333" d="M210-169c-67 3-38 105-44 169h-31v-121c0-29-5-50-35-48C34-165 62-65 56 0H25l-1-190h30c1 10-1 24 2 32 10-44 99-50 107 0 11-21 27-35 58-36 85-2 47 119 55 194h-31v-121c0-29-5-49-35-48" id="ag"/><path fill="#333" d="M100-194c62-1 85 37 85 99 1 63-27 99-86 99S16-35 15-95c0-66 28-99 85-99zM99-20c44 1 53-31 53-75 0-43-8-75-51-75s-53 32-53 75 10 74 51 75" id="ah"/><path fill="#333" d="M108 0H70L1-190h34L89-25l56-165h34" id="ai"/><path fill="#333" d="M100-194c63 0 86 42 84 106H49c0 40 14 67 53 68 26 1 43-12 49-29l28 8c-11 28-37 45-77 45C44 4 14-33 15-96c1-61 26-98 85-98zm52 81c6-60-76-77-97-28-3 7-6 17-6 28h103" id="aj"/><path fill="#333" d="M114-163C36-179 61-72 57 0H25l-1-190h30c1 12-1 29 2 39 6-27 23-49 58-41v29" id="ak"/><g id="d"><use transform="matrix(0.05,0,0,0.05,0,0)" xlink:href="#aa"/><use transform="matrix(0.05,0,0,0.05,5.95,0)" xlink:href="#ag"/><use transform="matrix(0.05,0,0,0.05,20.900000000000002,0)" xlink:href="#ah"/><use transform="matrix(0.05,0,0,0.05,30.900000000000002,0)" xlink:href="#ai"/><use transform="matrix(0.05,0,0,0.05,39.900000000000006,0)" xlink:href="#aj"/><use transform="matrix(0.05,0,0,0.05,49.900000000000006,0)" xlink:href="#ak"/><use transform="matrix(0.05,0,0,0.05,55.85,0)" xlink:href="#ac"/></g><path fill="#333" d="M222 0l43-216c-8 16-17 34-26 49L143 0h-22L81-216 41 0H11l48-248h42l38 208 116-208h45L252 0h-30" id="al"/><path fill="#333" d="M30-147c31-64 166-65 159 27C183-49 158 1 86 4 9 8 1-88 30-147zM88-20c53 0 68-48 68-100 0-31-11-51-44-50-52 1-68 46-68 97 0 32 13 53 44 53" id="am"/><path fill="#333" d="M89 0H52L20-190h33L74-25l89-165h34" id="an"/><path fill="#333" d="M111-194c62-3 86 47 72 106H45c-7 38 6 69 45 68 27-1 43-14 53-32l24 11C152-15 129 4 87 4 38 3 12-23 12-71c0-70 32-119 99-123zm44 81c14-66-71-72-95-28-4 8-8 17-11 28h106" id="ao"/><path fill="#333" d="M66-151c12-25 30-51 66-40l-6 26C45-176 58-65 38 0H6l36-190h30" id="ap"/><g id="e"><use transform="matrix(0.05,0,0,0.05,0,0)" xlink:href="#al"/><use transform="matrix(0.05,0,0,0.05,14.950000000000001,0)" xlink:href="#am"/><use transform="matrix(0.05,0,0,0.05,24.950000000000003,0)" xlink:href="#an"/><use transform="matrix(0.05,0,0,0.05,33.95,0)" xlink:href="#ao"/><use transform="matrix(0.05,0,0,0.05,43.95,0)" xlink:href="#ap"/></g><path fill="#333" d="M118-107v75H92v-75H18v-26h74v-75h26v75h74v26h-74" id="aq"/><path fill="#333" d="M179-190L93 31C79 59 56 82 12 73V49c39 6 53-20 64-50L1-190h34L92-34l54-156h33" id="ar"/><path fill="#333" d="M115-194c55 1 70 41 70 98S169 2 115 4C84 4 66-9 55-30l1 105H24l-1-265h31l2 30c10-21 28-34 59-34zm-8 174c40 0 45-34 45-75s-6-73-45-74c-42 0-51 32-51 76 0 43 10 73 51 73" id="as"/><g id="f"><use transform="matrix(0.05,0,0,0.05,0,0)" xlink:href="#aq"/><use transform="matrix(0.05,0,0,0.05,10.5,0)" xlink:href="#Z"/><use transform="matrix(0.05,0,0,0.05,15.5,0)" xlink:href="#ar"/><use transform="matrix(0.05,0,0,0.05,24.5,0)" xlink:href="#as"/><use transform="matrix(0.05,0,0,0.05,34.5,0)" xlink:href="#aj"/><use transform="matrix(0.05,0,0,0.05,44.5,0)" xlink:href="#ac"/></g><path fill="#333" d="M55-144c13 50 104 24 104 88C159 21 15 23 1-39l26-10c6 40 102 42 102-4-13-50-104-23-104-87 0-71 143-71 148-8l-29 4c-5-35-85-37-89 0" id="at"/><g id="g"><use transform="matrix(0.05,0,0,0.05,0,0)" xlink:href="#at"/><use transform="matrix(0.05,0,0,0.05,9,0)" xlink:href="#af"/><use transform="matrix(0.05,0,0,0.05,14,0)" xlink:href="#ap"/></g><path fill="#333" d="M87 75C49 33 22-17 22-94c0-76 28-126 65-167h31c-38 41-64 92-64 168S80 34 118 75H87" id="au"/><path fill="#333" d="M115-194c53 0 69 39 70 98 0 66-23 100-70 100C84 3 66-7 56-30L54 0H23l1-261h32v101c10-23 28-34 59-34zm-8 174c40 0 45-34 45-75 0-40-5-75-45-74-42 0-51 32-51 76 0 43 10 73 51 73" id="av"/><path fill="#333" d="M141-36C126-15 110 5 73 4 37 3 15-17 15-53c-1-64 63-63 125-63 3-35-9-54-41-54-24 1-41 7-42 31l-33-3c5-37 33-52 76-52 45 0 72 20 72 64v82c-1 20 7 32 28 27v20c-31 9-61-2-59-35zM48-53c0 20 12 33 32 33 41-3 63-29 60-74-43 2-92-5-92 41" id="aw"/><path fill="#333" d="M68-38c1 34 0 65-14 84H32c9-13 17-26 17-46H33v-38h35" id="ax"/><g id="h"><use transform="matrix(0.05,0,0,0.05,0,0)" xlink:href="#aq"/><use transform="matrix(0.05,0,0,0.05,10.5,0)" xlink:href="#ag"/><use transform="matrix(0.05,0,0,0.05,25.450000000000003,0)" xlink:href="#ah"/><use transform="matrix(0.05,0,0,0.05,35.45,0)" xlink:href="#ai"/><use transform="matrix(0.05,0,0,0.05,44.45,0)" xlink:href="#aj"/><use transform="matrix(0.05,0,0,0.05,54.45,0)" xlink:href="#au"/><use transform="matrix(0.05,0,0,0.05,60.400000000000006,0)" xlink:href="#av"/><use transform="matrix(0.05,0,0,0.05,70.4,0)" xlink:href="#ah"/><use transform="matrix(0.05,0,0,0.05,80.4,0)" xlink:href="#aw"/><use transform="matrix(0.05,0,0,0.05,90.4,0)" xlink:href="#ak"/><use transform="matrix(0.05,0,0,0.05,96.35000000000001,0)" xlink:href="#ab"/><use transform="matrix(0.05,0,0,0.05,106.35000000000001,0)" xlink:href="#ax"/></g><path fill="#333" d="M135-143c-3-34-86-38-87 0 15 53 115 12 119 90S17 21 10-45l28-5c4 36 97 45 98 0-10-56-113-15-118-90-4-57 82-63 122-42 12 7 21 19 24 35" id="ay"/><path fill="#333" d="M33-261c38 41 65 92 65 168S71 34 33 75H2C39 34 66-17 66-93S39-220 2-261h31" id="az"/><g id="i"><use transform="matrix(0.05,0,0,0.05,0,0)" xlink:href="#as"/><use transform="matrix(0.05,0,0,0.05,10,0)" xlink:href="#ah"/><use transform="matrix(0.05,0,0,0.05,20,0)" xlink:href="#ay"/><use transform="matrix(0.05,0,0,0.05,29,0)" xlink:href="#Y"/><use transform="matrix(0.05,0,0,0.05,32.95,0)" xlink:href="#Z"/><use transform="matrix(0.05,0,0,0.05,37.95,0)" xlink:href="#Y"/><use transform="matrix(0.05,0,0,0.05,41.900000000000006,0)" xlink:href="#ah"/><use transform="matrix(0.05,0,0,0.05,51.900000000000006,0)" xlink:href="#X"/><use transform="matrix(0.05,0,0,0.05,61.900000000000006,0)" xlink:href="#az"/></g><path fill="#333" d="M-5 72V49h209v23H-5" id="aA"/><path fill="#333" d="M96-169c-40 0-48 33-48 73s9 75 48 75c24 0 41-14 43-38l32 2c-6 37-31 61-74 61-59 0-76-41-82-99-10-93 101-131 147-64 4 7 5 14 7 22l-32 3c-4-21-16-35-41-35" id="aB"/><path fill="#333" d="M106-169C34-169 62-67 57 0H25v-261h32l-1 103c12-21 28-36 61-36 89 0 53 116 60 194h-32v-121c2-32-8-49-39-48" id="aC"/><g id="j"><use transform="matrix(0.05,0,0,0.05,0,0)" xlink:href="#aA"/><use transform="matrix(0.05,0,0,0.05,10,0)" xlink:href="#aA"/><use transform="matrix(0.05,0,0,0.05,20,0)" xlink:href="#aB"/><use transform="matrix(0.05,0,0,0.05,29,0)" xlink:href="#ah"/><use transform="matrix(0.05,0,0,0.05,39,0)" xlink:href="#as"/><use transform="matrix(0.05,0,0,0.05,49,0)" xlink:href="#ar"/><use transform="matrix(0.05,0,0,0.05,58,0)" xlink:href="#aA"/><use transform="matrix(0.05,0,0,0.05,68,0)" xlink:href="#aA"/><use transform="matrix(0.05,0,0,0.05,78,0)" xlink:href="#au"/><use transform="matrix(0.05,0,0,0.05,83.95,0)" xlink:href="#ah"/><use transform="matrix(0.05,0,0,0.05,93.95,0)" xlink:href="#Z"/><use transform="matrix(0.05,0,0,0.05,98.95,0)" xlink:href="#aC"/><use transform="matrix(0.05,0,0,0.05,108.95,0)" xlink:href="#aj"/><use transform="matrix(0.05,0,0,0.05,118.95,0)" xlink:href="#ak"/><use transform="matrix(0.05,0,0,0.05,124.9,0)" xlink:href="#W"/><use transform="matrix(0.05,0,0,0.05,137.85,0)" xlink:href="#X"/><use transform="matrix(0.05,0,0,0.05,147.85,0)" xlink:href="#Y"/><use transform="matrix(0.05,0,0,0.05,151.79999999999998,0)" xlink:href="#Z"/><use transform="matrix(0.05,0,0,0.05,156.79999999999998,0)" xlink:href="#az"/></g><g id="k"><use transform="matrix(0.05,0,0,0.05,0,0)" xlink:href="#aA"/><use transform="matrix(0.05,0,0,0.05,10,0)" xlink:href="#aA"/><use transform="matrix(0.05,0,0,0.05,20,0)" xlink:href="#ab"/><use transform="matrix(0.05,0,0,0.05,30,0)" xlink:href="#aj"/><use transform="matrix(0.05,0,0,0.05,40,0)" xlink:href="#aj"/><use transform="matrix(0.05,0,0,0.05,50,0)" xlink:href="#as"/><use transform="matrix(0.05,0,0,0.05,60,0)" xlink:href="#aB"/><use transform="matrix(0.05,0,0,0.05,69,0)" xlink:href="#ah"/><use transform="matrix(0.05,0,0,0.05,79,0)" xlink:href="#as"/><use transform="matrix(0.05,0,0,0.05,89,0)" xlink:href="#ar"/><use transform="matrix(0.05,0,0,0.05,98,0)" xlink:href="#aA"/><use transform="matrix(0.05,0,0,0.05,108,0)" xlink:href="#aA"/><use transform="matrix(0.05,0,0,0.05,118,0)" xlink:href="#au"/><use transform="matrix(0.05,0,0,0.05,123.95,0)" xlink:href="#ah"/><use transform="matrix(0.05,0,0,0.05,133.95,0)" xlink:href="#Z"/><use transform="matrix(0.05,0,0,0.05,138.95,0)" xlink:href="#aC"/><use transform="matrix(0.05,0,0,0.05,148.95,0)" xlink:href="#aj"/><use transform="matrix(0.05,0,0,0.05,158.95,0)" xlink:href="#ak"/><use transform="matrix(0.05,0,0,0.05,164.89999999999998,0)" xlink:href="#W"/><use transform="matrix(0.05,0,0,0.05,177.84999999999997,0)" xlink:href="#X"/><use transform="matrix(0.05,0,0,0.05,187.84999999999997,0)" xlink:href="#Y"/><use transform="matrix(0.05,0,0,0.05,191.79999999999995,0)" xlink:href="#Z"/><use transform="matrix(0.05,0,0,0.05,196.79999999999995,0)" xlink:href="#az"/></g><path d="M230 0l2-204L168 0h-37L68-204 70 0H24v-248h70l56 185 57-185h69V0h-46" id="aD"/><path d="M110-194c64 0 96 36 96 99 0 64-35 99-97 99-61 0-95-36-95-99 0-62 34-99 96-99zm-1 164c35 0 45-28 45-65 0-40-10-65-43-65-34 0-45 26-45 65 0 36 10 65 43 65" id="aE"/><path d="M128 0H69L1-190h53L99-40l48-150h52" id="aF"/><path d="M185-48c-13 30-37 53-82 52C43 2 14-33 14-96s30-98 90-98c62 0 83 45 84 108H66c0 31 8 55 39 56 18 0 30-7 34-22zm-45-69c5-46-57-63-70-21-2 6-4 13-4 21h74" id="aG"/><path d="M135-150c-39-12-60 13-60 57V0H25l-1-190h47c2 13-1 29 3 40 6-28 27-53 61-41v41" id="aH"/><g id="l"><use transform="matrix(0.05,0,0,0.05,0,0)" xlink:href="#aD"/><use transform="matrix(0.05,0,0,0.05,14.950000000000001,0)" xlink:href="#aE"/><use transform="matrix(0.05,0,0,0.05,25.900000000000002,0)" xlink:href="#aF"/><use transform="matrix(0.05,0,0,0.05,35.900000000000006,0)" xlink:href="#aG"/><use transform="matrix(0.05,0,0,0.05,45.900000000000006,0)" xlink:href="#aH"/></g><path fill="#333" d="M84 4C-5 8 30-112 23-190h32v120c0 31 7 50 39 49 72-2 45-101 50-169h31l1 190h-30c-1-10 1-25-2-33-11 22-28 36-60 37" id="aI"/><g id="m"><use transform="matrix(0.05,0,0,0.05,0,0)" xlink:href="#aq"/><use transform="matrix(0.05,0,0,0.05,10.5,0)" xlink:href="#ag"/><use transform="matrix(0.05,0,0,0.05,25.450000000000003,0)" xlink:href="#ah"/><use transform="matrix(0.05,0,0,0.05,35.45,0)" xlink:href="#ai"/><use transform="matrix(0.05,0,0,0.05,44.45,0)" xlink:href="#aj"/><use transform="matrix(0.05,0,0,0.05,54.45,0)" xlink:href="#au"/><use transform="matrix(0.05,0,0,0.05,60.400000000000006,0)" xlink:href="#aI"/><use transform="matrix(0.05,0,0,0.05,70.4,0)" xlink:href="#X"/><use transform="matrix(0.05,0,0,0.05,80.4,0)" xlink:href="#Y"/><use transform="matrix(0.05,0,0,0.05,84.35000000000001,0)" xlink:href="#Z"/><use transform="matrix(0.05,0,0,0.05,89.35000000000001,0)" xlink:href="#ax"/></g><g id="n"><use transform="matrix(0.05,0,0,0.05,0,0)" xlink:href="#av"/><use transform="matrix(0.05,0,0,0.05,10,0)" xlink:href="#ah"/><use transform="matrix(0.05,0,0,0.05,20,0)" xlink:href="#aw"/><use transform="matrix(0.05,0,0,0.05,30,0)" xlink:href="#ak"/><use transform="matrix(0.05,0,0,0.05,35.95,0)" xlink:href="#ab"/><use transform="matrix(0.05,0,0,0.05,45.95,0)" xlink:href="#ax"/></g><g id="o"><use transform="matrix(0.05,0,0,0.05,0,0)" xlink:href="#as"/><use transform="matrix(0.05,0,0,0.05,10,0)" xlink:href="#ah"/><use transform="matrix(0.05,0,0,0.05,20,0)" xlink:href="#ay"/><use transform="matrix(0.05,0,0,0.05,29,0)" xlink:href="#Y"/><use transform="matrix(0.05,0,0,0.05,32.95,0)" xlink:href="#Z"/><use transform="matrix(0.05,0,0,0.05,37.95,0)" xlink:href="#Y"/><use transform="matrix(0.05,0,0,0.05,41.900000000000006,0)" xlink:href="#ah"/><use transform="matrix(0.05,0,0,0.05,51.900000000000006,0)" xlink:href="#X"/><use transform="matrix(0.05,0,0,0.05,61.900000000000006,0)" xlink:href="#az"/></g><path fill="#333" d="M24 0v-261h32V0H24" id="aJ"/><path fill="#333" d="M240 0l2-218c-23 76-54 145-80 218h-23L58-218 59 0H30v-248h44l77 211c21-75 51-140 76-211h43V0h-30" id="aK"/><g id="p"><use transform="matrix(0.05,0,0,0.05,0,0)" xlink:href="#W"/><use transform="matrix(0.05,0,0,0.05,12.950000000000001,0)" xlink:href="#ay"/><use transform="matrix(0.05,0,0,0.05,21.950000000000003,0)" xlink:href="#aI"/><use transform="matrix(0.05,0,0,0.05,31.950000000000003,0)" xlink:href="#aw"/><use transform="matrix(0.05,0,0,0.05,41.95,0)" xlink:href="#aJ"/><use transform="matrix(0.05,0,0,0.05,45.900000000000006,0)" xlink:href="#aK"/><use transform="matrix(0.05,0,0,0.05,60.85,0)" xlink:href="#ah"/><use transform="matrix(0.05,0,0,0.05,70.85000000000001,0)" xlink:href="#ai"/><use transform="matrix(0.05,0,0,0.05,79.85000000000001,0)" xlink:href="#aj"/><use transform="matrix(0.05,0,0,0.05,89.85000000000001,0)" xlink:href="#ak"/></g><path fill="#333" d="M194 0L95-120 63-95V0H30v-248h33v124l119-124h40L117-140 236 0h-42" id="aL"/><path fill="#333" d="M177-190C167-65 218 103 67 71c-23-6-38-20-44-43l32-5c15 47 100 32 89-28v-30C133-14 115 1 83 1 29 1 15-40 15-95c0-56 16-97 71-98 29-1 48 16 59 35 1-10 0-23 2-32h30zM94-22c36 0 50-32 50-73 0-42-14-75-50-75-39 0-46 34-46 75s6 73 46 73" id="aM"/><g id="q"><use transform="matrix(0.05,0,0,0.05,0,0)" xlink:href="#aL"/><use transform="matrix(0.05,0,0,0.05,12,0)" xlink:href="#Y"/><use transform="matrix(0.05,0,0,0.05,15.949999999999998,0)" xlink:href="#X"/><use transform="matrix(0.05,0,0,0.05,25.950000000000003,0)" xlink:href="#aM"/><use transform="matrix(0.05,0,0,0.05,35.95,0)" xlink:href="#aK"/><use transform="matrix(0.05,0,0,0.05,50.900000000000006,0)" xlink:href="#ah"/><use transform="matrix(0.05,0,0,0.05,60.900000000000006,0)" xlink:href="#ai"/><use transform="matrix(0.05,0,0,0.05,69.9,0)" xlink:href="#aj"/><use transform="matrix(0.05,0,0,0.05,79.9,0)" xlink:href="#ak"/></g><path fill="#333" d="M185-189c-5-48-123-54-124 2 14 75 158 14 163 119 3 78-121 87-175 55-17-10-28-26-33-46l33-7c5 56 141 63 141-1 0-78-155-14-162-118-5-82 145-84 179-34 5 7 8 16 11 25" id="aN"/><path fill="#333" d="M206 0h-36l-40-164L89 0H53L-1-190h32L70-26l43-164h34l41 164 42-164h31" id="aO"/><g id="r"><use transform="matrix(0.05,0,0,0.05,0,0)" xlink:href="#aN"/><use transform="matrix(0.05,0,0,0.05,12,0)" xlink:href="#aO"/><use transform="matrix(0.05,0,0,0.05,24.950000000000003,0)" xlink:href="#aw"/><use transform="matrix(0.05,0,0,0.05,34.95,0)" xlink:href="#as"/><use transform="matrix(0.05,0,0,0.05,44.95,0)" xlink:href="#aK"/><use transform="matrix(0.05,0,0,0.05,59.900000000000006,0)" xlink:href="#ah"/><use transform="matrix(0.05,0,0,0.05,69.9,0)" xlink:href="#ai"/><use transform="matrix(0.05,0,0,0.05,78.9,0)" xlink:href="#aj"/><use transform="matrix(0.05,0,0,0.05,88.9,0)" xlink:href="#ak"/></g><path fill="#333" d="M143 4C61 4 22-44 18-125c-5-107 100-154 193-111 17 8 29 25 37 43l-32 9c-13-25-37-40-76-40-61 0-88 39-88 99 0 61 29 100 91 101 35 0 62-11 79-27v-45h-74v-28h105v86C228-13 192 4 143 4" id="aP"/><g id="s"><use transform="matrix(0.05,0,0,0.05,0,0)" xlink:href="#aP"/><use transform="matrix(0.05,0,0,0.05,14,0)" xlink:href="#aw"/><use transform="matrix(0.05,0,0,0.05,24,0)" xlink:href="#ag"/><use transform="matrix(0.05,0,0,0.05,38.95,0)" xlink:href="#aj"/><use transform="matrix(0.05,0,0,0.05,48.95,0)" xlink:href="#aK"/><use transform="matrix(0.05,0,0,0.05,63.900000000000006,0)" xlink:href="#ah"/><use transform="matrix(0.05,0,0,0.05,73.9,0)" xlink:href="#ab"/><use transform="matrix(0.05,0,0,0.05,83.9,0)" xlink:href="#aj"/></g><path fill="#333" d="M9 0v-24l116-142H16v-24h144v24L44-24h123V0H9" id="aQ"/><g id="t"><use transform="matrix(0.05,0,0,0.05,0,0)" xlink:href="#aq"/><use transform="matrix(0.05,0,0,0.05,10.5,0)" xlink:href="#ay"/><use transform="matrix(0.05,0,0,0.05,19.5,0)" xlink:href="#Y"/><use transform="matrix(0.05,0,0,0.05,23.45,0)" xlink:href="#aQ"/><use transform="matrix(0.05,0,0,0.05,32.45,0)" xlink:href="#aj"/><use transform="matrix(0.05,0,0,0.05,42.45,0)" xlink:href="#aA"/><use transform="matrix(0.05,0,0,0.05,52.45,0)" xlink:href="#ag"/><use transform="matrix(0.05,0,0,0.05,67.4,0)" xlink:href="#aw"/><use transform="matrix(0.05,0,0,0.05,77.4,0)" xlink:href="#as"/><use transform="matrix(0.05,0,0,0.05,87.4,0)" xlink:href="#ac"/></g><g id="u"><use transform="matrix(0.05,0,0,0.05,0,0)" xlink:href="#aq"/><use transform="matrix(0.05,0,0,0.05,10.5,0)" xlink:href="#aw"/><use transform="matrix(0.05,0,0,0.05,20.5,0)" xlink:href="#ak"/><use transform="matrix(0.05,0,0,0.05,26.450000000000003,0)" xlink:href="#ak"/><use transform="matrix(0.05,0,0,0.05,32.4,0)" xlink:href="#aw"/><use transform="matrix(0.05,0,0,0.05,42.4,0)" xlink:href="#X"/><use transform="matrix(0.05,0,0,0.05,52.400000000000006,0)" xlink:href="#aM"/><use transform="matrix(0.05,0,0,0.05,62.400000000000006,0)" xlink:href="#aj"/><use transform="matrix(0.05,0,0,0.05,72.4,0)" xlink:href="#ag"/><use transform="matrix(0.05,0,0,0.05,87.35000000000001,0)" xlink:href="#aj"/><use transform="matrix(0.05,0,0,0.05,97.35000000000001,0)" xlink:href="#X"/><use transform="matrix(0.05,0,0,0.05,107.35000000000001,0)" xlink:href="#Z"/><use transform="matrix(0.05,0,0,0.05,112.35000000000001,0)" xlink:href="#ac"/></g><g id="v"><use transform="matrix(0.05,0,0,0.05,0,0)" xlink:href="#aJ"/><use transform="matrix(0.05,0,0,0.05,3.95,0)" xlink:href="#Y"/><use transform="matrix(0.05,0,0,0.05,7.9,0)" xlink:href="#ay"/><use transform="matrix(0.05,0,0,0.05,16.9,0)" xlink:href="#Z"/><use transform="matrix(0.05,0,0,0.05,21.9,0)" xlink:href="#au"/><use transform="matrix(0.05,0,0,0.05,27.849999999999994,0)" xlink:href="#au"/><use transform="matrix(0.05,0,0,0.05,33.8,0)" xlink:href="#W"/><use transform="matrix(0.05,0,0,0.05,46.75,0)" xlink:href="#X"/><use transform="matrix(0.05,0,0,0.05,56.75,0)" xlink:href="#Y"/><use transform="matrix(0.05,0,0,0.05,60.7,0)" xlink:href="#Z"/><use transform="matrix(0.05,0,0,0.05,65.7,0)" xlink:href="#ax"/></g><g id="w"><use transform="matrix(0.05,0,0,0.05,0,0)" xlink:href="#as"/><use transform="matrix(0.05,0,0,0.05,10,0)" xlink:href="#ah"/><use transform="matrix(0.05,0,0,0.05,20,0)" xlink:href="#ay"/><use transform="matrix(0.05,0,0,0.05,29,0)" xlink:href="#Y"/><use transform="matrix(0.05,0,0,0.05,32.95,0)" xlink:href="#Z"/><use transform="matrix(0.05,0,0,0.05,37.95,0)" xlink:href="#Y"/><use transform="matrix(0.05,0,0,0.05,41.900000000000006,0)" xlink:href="#ah"/><use transform="matrix(0.05,0,0,0.05,51.900000000000006,0)" xlink:href="#X"/><use transform="matrix(0.05,0,0,0.05,61.900000000000006,0)" xlink:href="#az"/><use transform="matrix(0.05,0,0,0.05,67.85000000000001,0)" xlink:href="#az"/></g><path d="M67-125c0 54 23 88 75 88 28 0 53-7 68-21v-34h-60v-39h108v91C232-14 192 4 140 4 58 4 20-42 15-125 8-236 126-280 215-234c19 10 29 26 37 47l-47 15c-11-23-29-39-63-39-53 1-75 33-75 86" id="aR"/><path d="M133-34C117-15 103 5 69 4 32 3 11-16 11-54c-1-60 55-63 116-61 1-26-3-47-28-47-18 1-26 9-28 27l-52-2c7-38 36-58 82-57s74 22 75 68l1 82c-1 14 12 18 25 15v27c-30 8-71 5-69-32zm-48 3c29 0 43-24 42-57-32 0-66-3-65 30 0 17 8 27 23 27" id="aS"/><path d="M220-157c-53 9-28 100-34 157h-49v-107c1-27-5-49-29-50C55-147 81-57 75 0H25l-1-190h47c2 12-1 28 3 38 10-53 101-56 108 0 13-22 24-43 59-42 82 1 51 116 57 194h-49v-107c-1-25-5-48-29-50" id="aT"/><path d="M88-194c31-1 46 15 58 34l-1-101h50l1 261h-48c-2-10 0-23-3-31C134-8 116 4 84 4 32 4 16-41 15-95c0-56 19-97 73-99zm17 164c33 0 40-30 41-66 1-37-9-64-41-64s-38 30-39 65c0 43 13 65 39 65" id="aU"/><path d="M182-130c37 4 62 22 62 59C244 23 116-4 24 0v-248c84 5 203-23 205 63 0 31-19 50-47 55zM76-148c40-3 101 13 101-30 0-44-60-28-101-31v61zm0 110c48-3 116 14 116-37 0-48-69-32-116-35v72" id="aV"/><path d="M85 4C-2 5 27-109 22-190h50c7 57-23 150 33 157 60-5 35-97 40-157h50l1 190h-47c-2-12 1-28-3-38-12 25-28 42-61 42" id="aW"/><path d="M25-224v-37h50v37H25zM25 0v-190h50V0H25" id="aX"/><path d="M25 0v-261h50V0H25" id="aY"/><g id="x"><use transform="matrix(0.05,0,0,0.05,0,0)" xlink:href="#aR"/><use transform="matrix(0.05,0,0,0.05,14,0)" xlink:href="#aS"/><use transform="matrix(0.05,0,0,0.05,24,0)" xlink:href="#aT"/><use transform="matrix(0.05,0,0,0.05,40,0)" xlink:href="#aG"/><use transform="matrix(0.05,0,0,0.05,50,0)" xlink:href="#aD"/><use transform="matrix(0.05,0,0,0.05,64.95,0)" xlink:href="#aE"/><use transform="matrix(0.05,0,0,0.05,75.9,0)" xlink:href="#aU"/><use transform="matrix(0.05,0,0,0.05,86.85000000000001,0)" xlink:href="#aG"/><use transform="matrix(0.05,0,0,0.05,96.85000000000001,0)" xlink:href="#aV"/><use transform="matrix(0.05,0,0,0.05,109.80000000000001,0)" xlink:href="#aW"/><use transform="matrix(0.05,0,0,0.05,120.75,0)" xlink:href="#aX"/><use transform="matrix(0.05,0,0,0.05,125.75,0)" xlink:href="#aY"/><use transform="matrix(0.05,0,0,0.05,130.75,0)" xlink:href="#aU"/><use transform="matrix(0.05,0,0,0.05,141.7,0)" xlink:href="#aG"/><use transform="matrix(0.05,0,0,0.05,151.7,0)" xlink:href="#aH"/></g><g id="y"><use transform="matrix(0.05,0,0,0.05,0,0)" xlink:href="#aq"/><use transform="matrix(0.05,0,0,0.05,10.5,0)" xlink:href="#ak"/><use transform="matrix(0.05,0,0,0.05,16.45,0)" xlink:href="#aj"/><use transform="matrix(0.05,0,0,0.05,26.450000000000003,0)" xlink:href="#ay"/><use transform="matrix(0.05,0,0,0.05,35.45,0)" xlink:href="#aj"/><use transform="matrix(0.05,0,0,0.05,45.45,0)" xlink:href="#Z"/><use transform="matrix(0.05,0,0,0.05,50.45,0)" xlink:href="#au"/><use transform="matrix(0.05,0,0,0.05,56.400000000000006,0)" xlink:href="#az"/></g><g id="z"><use transform="matrix(0.05,0,0,0.05,0,0)" xlink:href="#aq"/><use transform="matrix(0.05,0,0,0.05,10.5,0)" xlink:href="#ay"/><use transform="matrix(0.05,0,0,0.05,19.5,0)" xlink:href="#aj"/><use transform="matrix(0.05,0,0,0.05,29.5,0)" xlink:href="#Z"/><use transform="matrix(0.05,0,0,0.05,34.5,0)" xlink:href="#aA"/><use transform="matrix(0.05,0,0,0.05,44.5,0)" xlink:href="#ay"/><use transform="matrix(0.05,0,0,0.05,53.5,0)" xlink:href="#Y"/><use transform="matrix(0.05,0,0,0.05,57.45,0)" xlink:href="#aQ"/><use transform="matrix(0.05,0,0,0.05,66.45,0)" xlink:href="#aj"/><use transform="matrix(0.05,0,0,0.05,76.45,0)" xlink:href="#au"/><use transform="matrix(0.05,0,0,0.05,82.4,0)" xlink:href="#az"/></g><g id="A"><use transform="matrix(0.05,0,0,0.05,0,0)" xlink:href="#aq"/><use transform="matrix(0.05,0,0,0.05,10.5,0)" xlink:href="#ay"/><use transform="matrix(0.05,0,0,0.05,19.5,0)" xlink:href="#aj"/><use transform="matrix(0.05,0,0,0.05,29.5,0)" xlink:href="#Z"/><use transform="matrix(0.05,0,0,0.05,34.5,0)" xlink:href="#aA"/><use transform="matrix(0.05,0,0,0.05,44.5,0)" xlink:href="#aw"/><use transform="matrix(0.05,0,0,0.05,54.5,0)" xlink:href="#ak"/><use transform="matrix(0.05,0,0,0.05,60.45,0)" xlink:href="#ak"/><use transform="matrix(0.05,0,0,0.05,66.4,0)" xlink:href="#aw"/><use transform="matrix(0.05,0,0,0.05,76.4,0)" xlink:href="#X"/><use transform="matrix(0.05,0,0,0.05,86.4,0)" xlink:href="#aM"/><use transform="matrix(0.05,0,0,0.05,96.4,0)" xlink:href="#aj"/><use transform="matrix(0.05,0,0,0.05,106.4,0)" xlink:href="#ag"/><use transform="matrix(0.05,0,0,0.05,121.35000000000001,0)" xlink:href="#aj"/><use transform="matrix(0.05,0,0,0.05,131.35000000000002,0)" xlink:href="#X"/><use transform="matrix(0.05,0,0,0.05,141.35000000000002,0)" xlink:href="#Z"/><use transform="matrix(0.05,0,0,0.05,146.35000000000002,0)" xlink:href="#au"/><use transform="matrix(0.05,0,0,0.05,152.3,0)" xlink:href="#az"/></g><g id="B"><use transform="matrix(0.05,0,0,0.05,0,0)" xlink:href="#aq"/><use transform="matrix(0.05,0,0,0.05,10.5,0)" xlink:href="#aM"/><use transform="matrix(0.05,0,0,0.05,20.5,0)" xlink:href="#aj"/><use transform="matrix(0.05,0,0,0.05,30.5,0)" xlink:href="#Z"/><use transform="matrix(0.05,0,0,0.05,35.5,0)" xlink:href="#aA"/><use transform="matrix(0.05,0,0,0.05,45.5,0)" xlink:href="#ak"/><use transform="matrix(0.05,0,0,0.05,51.45,0)" xlink:href="#aj"/><use transform="matrix(0.05,0,0,0.05,61.45,0)" xlink:href="#ay"/><use transform="matrix(0.05,0,0,0.05,70.45,0)" xlink:href="#aI"/><use transform="matrix(0.05,0,0,0.05,80.45,0)" xlink:href="#aJ"/><use transform="matrix(0.05,0,0,0.05,84.4,0)" xlink:href="#Z"/><use transform="matrix(0.05,0,0,0.05,89.4,0)" xlink:href="#au"/><use transform="matrix(0.05,0,0,0.05,95.35000000000001,0)" xlink:href="#az"/><use transform="matrix(0.05,0,0,0.05,101.30000000000001,0)" xlink:href="#ac"/></g><path fill="#333" d="M52-101C46-14 166-7 216-51l9-45h-74l6-28h105l-18 87C217-12 181 4 130 4 60 4 18-31 18-101c0-106 78-167 188-146 30 6 48 27 59 54l-34 9c-10-26-31-41-67-40-75 1-107 50-112 123" id="aZ"/><path fill="#333" d="M165-48c-4 18 1 34 23 27l-3 20c-29 8-62 0-52-35h-2C116-14 99 4 63 4 30 4 8-16 8-49c0-68 71-67 138-67 10-26 0-56-31-54-26 1-42 9-47 31l-32-5c8-67 160-71 144 15-5 28-9 54-15 81zM42-50c3 52 80 24 89-6 7-12 7-24 11-38-47 1-103-4-100 44" id="ba"/><path fill="#333" d="M248-111c6-24 9-61-24-58-72 9-57 108-77 169h-31l26-142c3-37-50-30-64-10C52-115 50-51 37 0H6l36-190h30c-1 10-6 24-4 32 13-43 101-52 105 5 13-22 29-41 61-41 90 0 28 129 23 194h-31" id="bb"/><path fill="#333" d="M133-28C103 26-5 8 13-77c13-62 24-115 90-117 29-1 46 15 56 35l19-102h32L160 0h-30zM45-64c-2 27 10 43 35 43 54-1 69-50 69-103 0-29-15-46-42-46-53-1-58 58-62 106" id="bc"/><g id="C"><use transform="matrix(0.05,0,0,0.05,0,0)" xlink:href="#aZ"/><use transform="matrix(0.05,0,0,0.05,14,0)" xlink:href="#ba"/><use transform="matrix(0.05,0,0,0.05,24,0)" xlink:href="#bb"/><use transform="matrix(0.05,0,0,0.05,38.95,0)" xlink:href="#ao"/><use transform="matrix(0.05,0,0,0.05,48.95,0)" xlink:href="#al"/><use transform="matrix(0.05,0,0,0.05,63.900000000000006,0)" xlink:href="#am"/><use transform="matrix(0.05,0,0,0.05,73.9,0)" xlink:href="#bc"/><use transform="matrix(0.05,0,0,0.05,83.9,0)" xlink:href="#ao"/></g><path fill="#333" d="M212-179c-10-28-35-45-73-45-59 0-87 40-87 99 0 60 29 101 89 101 43 0 62-24 78-52l27 14C228-24 195 4 139 4 59 4 22-46 18-125c-6-104 99-153 187-111 19 9 31 26 39 46" id="bd"/><path fill="#333" d="M160-131c35 5 61 23 61 61C221 17 115-2 30 0v-248c76 3 177-17 177 60 0 33-19 50-47 57zm-97-11c50-1 110 9 110-42 0-47-63-36-110-37v79zm0 115c55-2 124 14 124-45 0-56-70-42-124-44v89" id="be"/><g id="E"><use transform="matrix(0.05,0,0,0.05,0,0)" xlink:href="#bd"/><use transform="matrix(0.05,0,0,0.05,12.950000000000001,0)" xlink:href="#aJ"/><use transform="matrix(0.05,0,0,0.05,16.900000000000002,0)" xlink:href="#aw"/><use transform="matrix(0.05,0,0,0.05,26.900000000000002,0)" xlink:href="#ay"/><use transform="matrix(0.05,0,0,0.05,35.900000000000006,0)" xlink:href="#ay"/><use transform="matrix(0.05,0,0,0.05,44.900000000000006,0)" xlink:href="#Y"/><use transform="matrix(0.05,0,0,0.05,48.85000000000001,0)" xlink:href="#aB"/><use transform="matrix(0.05,0,0,0.05,57.85,0)" xlink:href="#aK"/><use transform="matrix(0.05,0,0,0.05,72.80000000000001,0)" xlink:href="#ah"/><use transform="matrix(0.05,0,0,0.05,82.80000000000001,0)" xlink:href="#ab"/><use transform="matrix(0.05,0,0,0.05,92.80000000000001,0)" xlink:href="#aj"/><use transform="matrix(0.05,0,0,0.05,102.80000000000001,0)" xlink:href="#be"/><use transform="matrix(0.05,0,0,0.05,114.80000000000001,0)" xlink:href="#aI"/><use transform="matrix(0.05,0,0,0.05,124.80000000000001,0)" xlink:href="#Y"/><use transform="matrix(0.05,0,0,0.05,128.75,0)" xlink:href="#aJ"/><use transform="matrix(0.05,0,0,0.05,132.7,0)" xlink:href="#ab"/><use transform="matrix(0.05,0,0,0.05,142.7,0)" xlink:href="#aj"/><use transform="matrix(0.05,0,0,0.05,152.7,0)" xlink:href="#ak"/></g><g id="F"><use transform="matrix(0.05,0,0,0.05,0,0)" xlink:href="#aa"/><use transform="matrix(0.05,0,0,0.05,5.95,0)" xlink:href="#ak"/><use transform="matrix(0.05,0,0,0.05,11.9,0)" xlink:href="#aj"/><use transform="matrix(0.05,0,0,0.05,21.9,0)" xlink:href="#ay"/><use transform="matrix(0.05,0,0,0.05,30.899999999999995,0)" xlink:href="#aI"/><use transform="matrix(0.05,0,0,0.05,40.9,0)" xlink:href="#aJ"/><use transform="matrix(0.05,0,0,0.05,44.85,0)" xlink:href="#Z"/><use transform="matrix(0.05,0,0,0.05,49.85,0)" xlink:href="#ac"/></g><g id="G"><use transform="matrix(0.05,0,0,0.05,0,0)" xlink:href="#aZ"/><use transform="matrix(0.05,0,0,0.05,14,0)" xlink:href="#ba"/><use transform="matrix(0.05,0,0,0.05,24,0)" xlink:href="#bb"/><use transform="matrix(0.05,0,0,0.05,38.95,0)" xlink:href="#ao"/><use transform="matrix(0.05,0,0,0.05,48.95,0)" xlink:href="#al"/><use transform="matrix(0.05,0,0,0.05,63.900000000000006,0)" xlink:href="#am"/><use transform="matrix(0.05,0,0,0.05,73.9,0)" xlink:href="#bc"/><use transform="matrix(0.05,0,0,0.05,83.9,0)" xlink:href="#ao"/></g><g id="H"><use transform="matrix(0.05,0,0,0.05,0,0)" xlink:href="#aq"/><use transform="matrix(0.05,0,0,0.05,10.5,0)" xlink:href="#ay"/><use transform="matrix(0.05,0,0,0.05,19.5,0)" xlink:href="#aj"/><use transform="matrix(0.05,0,0,0.05,29.5,0)" xlink:href="#Z"/><use transform="matrix(0.05,0,0,0.05,34.5,0)" xlink:href="#aA"/><use transform="matrix(0.05,0,0,0.05,44.5,0)" xlink:href="#aw"/><use transform="matrix(0.05,0,0,0.05,54.5,0)" xlink:href="#ak"/><use transform="matrix(0.05,0,0,0.05,60.45,0)" xlink:href="#ak"/><use transform="matrix(0.05,0,0,0.05,66.4,0)" xlink:href="#aw"/><use transform="matrix(0.05,0,0,0.05,76.4,0)" xlink:href="#X"/><use transform="matrix(0.05,0,0,0.05,86.4,0)" xlink:href="#aM"/><use transform="matrix(0.05,0,0,0.05,96.4,0)" xlink:href="#aj"/><use transform="matrix(0.05,0,0,0.05,106.4,0)" xlink:href="#ag"/><use transform="matrix(0.05,0,0,0.05,121.35000000000001,0)" xlink:href="#aj"/><use transform="matrix(0.05,0,0,0.05,131.35000000000002,0)" xlink:href="#X"/><use transform="matrix(0.05,0,0,0.05,141.35000000000002,0)" xlink:href="#Z"/><use transform="matrix(0.05,0,0,0.05,146.35000000000002,0)" xlink:href="#au"/><use transform="matrix(0.05,0,0,0.05,152.3,0)" xlink:href="#az"/></g><path fill="#333" d="M205 0l-28-72H64L36 0H1l101-248h38L239 0h-34zm-38-99l-47-123c-12 45-31 82-46 123h93" id="bf"/><g id="I"><use transform="matrix(0.05,0,0,0.05,0,0)" xlink:href="#bf"/><use transform="matrix(0.05,0,0,0.05,12,0)" xlink:href="#ab"/><use transform="matrix(0.05,0,0,0.05,22,0)" xlink:href="#ai"/><use transform="matrix(0.05,0,0,0.05,31,0)" xlink:href="#aw"/><use transform="matrix(0.05,0,0,0.05,41,0)" xlink:href="#X"/><use transform="matrix(0.05,0,0,0.05,51,0)" xlink:href="#aB"/><use transform="matrix(0.05,0,0,0.05,60,0)" xlink:href="#aj"/><use transform="matrix(0.05,0,0,0.05,70,0)" xlink:href="#ab"/><use transform="matrix(0.05,0,0,0.05,80,0)" xlink:href="#aK"/><use transform="matrix(0.05,0,0,0.05,94.95,0)" xlink:href="#ah"/><use transform="matrix(0.05,0,0,0.05,104.95,0)" xlink:href="#ab"/><use transform="matrix(0.05,0,0,0.05,114.95,0)" xlink:href="#aj"/><use transform="matrix(0.05,0,0,0.05,124.95,0)" xlink:href="#be"/><use transform="matrix(0.05,0,0,0.05,136.95,0)" xlink:href="#aI"/><use transform="matrix(0.05,0,0,0.05,146.95,0)" xlink:href="#Y"/><use transform="matrix(0.05,0,0,0.05,150.89999999999998,0)" xlink:href="#aJ"/><use transform="matrix(0.05,0,0,0.05,154.84999999999997,0)" xlink:href="#ab"/><use transform="matrix(0.05,0,0,0.05,164.84999999999997,0)" xlink:href="#aj"/><use transform="matrix(0.05,0,0,0.05,174.84999999999997,0)" xlink:href="#ak"/></g><g id="J"><use transform="matrix(0.05,0,0,0.05,0,0)" xlink:href="#bf"/><use transform="matrix(0.05,0,0,0.05,12,0)" xlink:href="#aJ"/><use transform="matrix(0.05,0,0,0.05,15.949999999999998,0)" xlink:href="#aJ"/><use transform="matrix(0.05,0,0,0.05,19.9,0)" xlink:href="#W"/><use transform="matrix(0.05,0,0,0.05,32.85,0)" xlink:href="#X"/><use transform="matrix(0.05,0,0,0.05,42.85,0)" xlink:href="#Y"/><use transform="matrix(0.05,0,0,0.05,46.800000000000004,0)" xlink:href="#Z"/><use transform="matrix(0.05,0,0,0.05,51.800000000000004,0)" xlink:href="#ay"/><use transform="matrix(0.05,0,0,0.05,60.800000000000004,0)" xlink:href="#aK"/><use transform="matrix(0.05,0,0,0.05,75.75,0)" xlink:href="#ah"/><use transform="matrix(0.05,0,0,0.05,85.75,0)" xlink:href="#ab"/><use transform="matrix(0.05,0,0,0.05,95.75,0)" xlink:href="#aj"/><use transform="matrix(0.05,0,0,0.05,105.75,0)" xlink:href="#be"/><use transform="matrix(0.05,0,0,0.05,117.75,0)" xlink:href="#aI"/><use transform="matrix(0.05,0,0,0.05,127.75,0)" xlink:href="#Y"/><use transform="matrix(0.05,0,0,0.05,131.7,0)" xlink:href="#aJ"/><use transform="matrix(0.05,0,0,0.05,135.64999999999998,0)" xlink:href="#ab"/><use transform="matrix(0.05,0,0,0.05,145.64999999999998,0)" xlink:href="#aj"/><use transform="matrix(0.05,0,0,0.05,155.64999999999998,0)" xlink:href="#ak"/></g><path fill="#333" d="M233-177c-1 41-23 64-60 70L243 0h-38l-65-103H63V0H30v-248c88 3 205-21 203 71zM63-129c60-2 137 13 137-47 0-61-80-42-137-45v92" id="bg"/><g id="K"><use transform="matrix(0.05,0,0,0.05,0,0)" xlink:href="#aq"/><use transform="matrix(0.05,0,0,0.05,10.5,0)" xlink:href="#aM"/><use transform="matrix(0.05,0,0,0.05,20.5,0)" xlink:href="#aj"/><use transform="matrix(0.05,0,0,0.05,30.5,0)" xlink:href="#Z"/><use transform="matrix(0.05,0,0,0.05,35.5,0)" xlink:href="#bg"/><use transform="matrix(0.05,0,0,0.05,48.45,0)" xlink:href="#aj"/><use transform="matrix(0.05,0,0,0.05,58.45,0)" xlink:href="#ay"/><use transform="matrix(0.05,0,0,0.05,67.45,0)" xlink:href="#aI"/><use transform="matrix(0.05,0,0,0.05,77.45,0)" xlink:href="#aJ"/><use transform="matrix(0.05,0,0,0.05,81.4,0)" xlink:href="#Z"/><use transform="matrix(0.05,0,0,0.05,86.4,0)" xlink:href="#au"/><use transform="matrix(0.05,0,0,0.05,92.35000000000001,0)" xlink:href="#az"/><use transform="matrix(0.05,0,0,0.05,98.30000000000001,0)" xlink:href="#ac"/></g><path fill="#333" d="M145-31C134-9 116 4 85 4 32 4 16-35 15-94c0-59 17-99 70-100 32-1 48 14 60 33 0-11-1-24 2-32h30l-1 268h-32zM93-21c41 0 51-33 51-76s-8-73-50-73c-40 0-46 35-46 75s5 74 45 74" id="bh"/><g id="L"><use transform="matrix(0.05,0,0,0.05,0,0)" xlink:href="#aN"/><use transform="matrix(0.05,0,0,0.05,12,0)" xlink:href="#bh"/><use transform="matrix(0.05,0,0,0.05,22,0)" xlink:href="#aI"/><use transform="matrix(0.05,0,0,0.05,32,0)" xlink:href="#aw"/><use transform="matrix(0.05,0,0,0.05,42,0)" xlink:href="#ak"/><use transform="matrix(0.05,0,0,0.05,47.95,0)" xlink:href="#aj"/><use transform="matrix(0.05,0,0,0.05,57.95,0)" xlink:href="#be"/><use transform="matrix(0.05,0,0,0.05,69.95,0)" xlink:href="#aI"/><use transform="matrix(0.05,0,0,0.05,79.95,0)" xlink:href="#Y"/><use transform="matrix(0.05,0,0,0.05,83.9,0)" xlink:href="#aJ"/><use transform="matrix(0.05,0,0,0.05,87.85000000000001,0)" xlink:href="#ab"/><use transform="matrix(0.05,0,0,0.05,97.85000000000001,0)" xlink:href="#aj"/><use transform="matrix(0.05,0,0,0.05,107.85000000000001,0)" xlink:href="#ak"/></g><g id="M"><use transform="matrix(0.05,0,0,0.05,0,0)" xlink:href="#aq"/><use transform="matrix(0.05,0,0,0.05,10.5,0)" xlink:href="#as"/><use transform="matrix(0.05,0,0,0.05,20.5,0)" xlink:href="#aI"/><use transform="matrix(0.05,0,0,0.05,30.5,0)" xlink:href="#Z"/><use transform="matrix(0.05,0,0,0.05,35.5,0)" xlink:href="#aA"/><use transform="matrix(0.05,0,0,0.05,45.5,0)" xlink:href="#aI"/><use transform="matrix(0.05,0,0,0.05,55.5,0)" xlink:href="#X"/><use transform="matrix(0.05,0,0,0.05,65.5,0)" xlink:href="#Y"/><use transform="matrix(0.05,0,0,0.05,69.45,0)" xlink:href="#Z"/><use transform="matrix(0.05,0,0,0.05,74.45,0)" xlink:href="#ay"/><use transform="matrix(0.05,0,0,0.05,83.45,0)" xlink:href="#au"/><use transform="matrix(0.05,0,0,0.05,89.4,0)" xlink:href="#ak"/><use transform="matrix(0.05,0,0,0.05,95.35000000000001,0)" xlink:href="#ah"/><use transform="matrix(0.05,0,0,0.05,105.35000000000001,0)" xlink:href="#aO"/><use transform="matrix(0.05,0,0,0.05,118.30000000000001,0)" xlink:href="#ay"/><use transform="matrix(0.05,0,0,0.05,127.30000000000001,0)" xlink:href="#ac"/></g><g id="N"><use transform="matrix(0.05,0,0,0.05,0,0)" xlink:href="#ad"/><use transform="matrix(0.05,0,0,0.05,3.95,0)" xlink:href="#ae"/><use transform="matrix(0.05,0,0,0.05,13.949999999999998,0)" xlink:href="#af"/><use transform="matrix(0.05,0,0,0.05,18.95,0)" xlink:href="#ax"/></g><g id="O"><use transform="matrix(0.05,0,0,0.05,0,0)" xlink:href="#aB"/><use transform="matrix(0.05,0,0,0.05,9,0)" xlink:href="#ah"/><use transform="matrix(0.05,0,0,0.05,19,0)" xlink:href="#aJ"/><use transform="matrix(0.05,0,0,0.05,22.95,0)" xlink:href="#aI"/><use transform="matrix(0.05,0,0,0.05,32.95,0)" xlink:href="#ag"/><use transform="matrix(0.05,0,0,0.05,47.900000000000006,0)" xlink:href="#X"/><use transform="matrix(0.05,0,0,0.05,57.900000000000006,0)" xlink:href="#ay"/><use transform="matrix(0.05,0,0,0.05,66.9,0)" xlink:href="#ac"/></g><path fill="#333" d="M26 75v-336h71v23H56V52h41v23H26" id="bi"/><g id="P"><use transform="matrix(0.05,0,0,0.05,0,0)" xlink:href="#bi"/><use transform="matrix(0.05,0,0,0.05,5,0)" xlink:href="#W"/><use transform="matrix(0.05,0,0,0.05,17.950000000000003,0)" xlink:href="#X"/><use transform="matrix(0.05,0,0,0.05,27.950000000000003,0)" xlink:href="#Y"/><use transform="matrix(0.05,0,0,0.05,31.900000000000002,0)" xlink:href="#Z"/><use transform="matrix(0.05,0,0,0.05,36.900000000000006,0)" xlink:href="#ax"/></g><path fill="#333" d="M33 0v-38h34V0H33" id="bj"/><path fill="#333" d="M3 75V52h41v-290H3v-23h71V75H3" id="bk"/><g id="Q"><use transform="matrix(0.05,0,0,0.05,0,0)" xlink:href="#W"/><use transform="matrix(0.05,0,0,0.05,12.950000000000001,0)" xlink:href="#X"/><use transform="matrix(0.05,0,0,0.05,22.950000000000003,0)" xlink:href="#Y"/><use transform="matrix(0.05,0,0,0.05,26.900000000000002,0)" xlink:href="#Z"/><use transform="matrix(0.05,0,0,0.05,31.900000000000002,0)" xlink:href="#bj"/><use transform="matrix(0.05,0,0,0.05,36.900000000000006,0)" xlink:href="#bj"/><use transform="matrix(0.05,0,0,0.05,41.900000000000006,0)" xlink:href="#bj"/><use transform="matrix(0.05,0,0,0.05,46.900000000000006,0)" xlink:href="#bk"/><use transform="matrix(0.05,0,0,0.05,51.900000000000006,0)" xlink:href="#az"/></g><path fill="#333" d="M30-248c87 1 191-15 191 75 0 78-77 80-158 76V0H30v-248zm33 125c57 0 124 11 124-50 0-59-68-47-124-48v98" id="bl"/><g id="S"><use transform="matrix(0.04938271604938272,0,0,0.04938271604938272,0,0)" xlink:href="#aL"/><use transform="matrix(0.04938271604938272,0,0,0.04938271604938272,11.851851851851853,0)" xlink:href="#Y"/><use transform="matrix(0.04938271604938272,0,0,0.04938271604938272,15.753086419753087,0)" xlink:href="#X"/><use transform="matrix(0.04938271604938272,0,0,0.04938271604938272,25.629629629629633,0)" xlink:href="#aM"/><use transform="matrix(0.04938271604938272,0,0,0.04938271604938272,35.50617283950618,0)" xlink:href="#bl"/><use transform="matrix(0.04938271604938272,0,0,0.04938271604938272,47.35802469135803,0)" xlink:href="#ah"/><use transform="matrix(0.04938271604938272,0,0,0.04938271604938272,57.23456790123457,0)" xlink:href="#aJ"/><use transform="matrix(0.04938271604938272,0,0,0.04938271604938272,61.13580246913581,0)" xlink:href="#Y"/><use transform="matrix(0.04938271604938272,0,0,0.04938271604938272,65.03703703703705,0)" xlink:href="#aB"/><use transform="matrix(0.04938271604938272,0,0,0.04938271604938272,73.92592592592594,0)" xlink:href="#aj"/><use transform="matrix(0.04938271604938272,0,0,0.04938271604938272,83.80246913580248,0)" xlink:href="#aK"/><use transform="matrix(0.04938271604938272,0,0,0.04938271604938272,98.56790123456791,0)" xlink:href="#ah"/><use transform="matrix(0.04938271604938272,0,0,0.04938271604938272,108.44444444444446,0)" xlink:href="#ab"/><use transform="matrix(0.04938271604938272,0,0,0.04938271604938272,118.320987654321,0)" xlink:href="#aj"/><use transform="matrix(0.04938271604938272,0,0,0.04938271604938272,128.19753086419755,0)" xlink:href="#be"/><use transform="matrix(0.04938271604938272,0,0,0.04938271604938272,140.0493827160494,0)" xlink:href="#aI"/><use transform="matrix(0.04938271604938272,0,0,0.04938271604938272,149.92592592592592,0)" xlink:href="#Y"/><use transform="matrix(0.04938271604938272,0,0,0.04938271604938272,153.82716049382717,0)" xlink:href="#aJ"/><use transform="matrix(0.04938271604938272,0,0,0.04938271604938272,157.7283950617284,0)" xlink:href="#ab"/><use transform="matrix(0.04938271604938272,0,0,0.04938271604938272,167.60493827160496,0)" xlink:href="#aj"/><use transform="matrix(0.04938271604938272,0,0,0.04938271604938272,177.48148148148152,0)" xlink:href="#ak"/></g><path fill="#333" d="M266 0h-40l-56-210L115 0H75L2-248h35L96-30l15-64 43-154h32l59 218 59-218h35" id="bm"/><g id="T"><use transform="matrix(0.05,0,0,0.05,0,0)" xlink:href="#bm"/><use transform="matrix(0.05,0,0,0.05,16.3,0)" xlink:href="#aw"/><use transform="matrix(0.05,0,0,0.05,26.3,0)" xlink:href="#aJ"/><use transform="matrix(0.05,0,0,0.05,30.25,0)" xlink:href="#aJ"/><use transform="matrix(0.05,0,0,0.05,34.2,0)" xlink:href="#aK"/><use transform="matrix(0.05,0,0,0.05,49.150000000000006,0)" xlink:href="#ah"/><use transform="matrix(0.05,0,0,0.05,59.150000000000006,0)" xlink:href="#ab"/><use transform="matrix(0.05,0,0,0.05,69.15,0)" xlink:href="#aj"/><use transform="matrix(0.05,0,0,0.05,79.15,0)" xlink:href="#be"/><use transform="matrix(0.05,0,0,0.05,91.15,0)" xlink:href="#aI"/><use transform="matrix(0.05,0,0,0.05,101.15,0)" xlink:href="#Y"/><use transform="matrix(0.05,0,0,0.05,105.10000000000001,0)" xlink:href="#aJ"/><use transform="matrix(0.05,0,0,0.05,109.05000000000001,0)" xlink:href="#ab"/><use transform="matrix(0.05,0,0,0.05,119.05000000000001,0)" xlink:href="#aj"/><use transform="matrix(0.05,0,0,0.05,129.05,0)" xlink:href="#ak"/></g><path fill="#333" d="M30-248c118-7 216 8 213 122C240-48 200 0 122 0H30v-248zM63-27c89 8 146-16 146-99s-60-101-146-95v194" id="bn"/><g id="U"><use transform="matrix(0.05,0,0,0.05,0,0)" xlink:href="#bn"/><use transform="matrix(0.05,0,0,0.05,12.950000000000001,0)" xlink:href="#Y"/><use transform="matrix(0.05,0,0,0.05,16.900000000000002,0)" xlink:href="#ak"/><use transform="matrix(0.05,0,0,0.05,22.85,0)" xlink:href="#aj"/><use transform="matrix(0.05,0,0,0.05,32.85,0)" xlink:href="#aB"/><use transform="matrix(0.05,0,0,0.05,41.85,0)" xlink:href="#Z"/><use transform="matrix(0.05,0,0,0.05,46.85,0)" xlink:href="#ah"/><use transform="matrix(0.05,0,0,0.05,56.85,0)" xlink:href="#ak"/></g><g id="V"><use transform="matrix(0.05,0,0,0.05,0,0)" xlink:href="#aq"/><use transform="matrix(0.05,0,0,0.05,10.5,0)" xlink:href="#aB"/><use transform="matrix(0.05,0,0,0.05,19.5,0)" xlink:href="#ah"/><use transform="matrix(0.05,0,0,0.05,29.5,0)" xlink:href="#X"/><use transform="matrix(0.05,0,0,0.05,39.5,0)" xlink:href="#ay"/><use transform="matrix(0.05,0,0,0.05,48.5,0)" xlink:href="#Z"/><use transform="matrix(0.05,0,0,0.05,53.5,0)" xlink:href="#ak"/><use transform="matrix(0.05,0,0,0.05,59.45,0)" xlink:href="#aI"/><use transform="matrix(0.05,0,0,0.05,69.45,0)" xlink:href="#aB"/><use transform="matrix(0.05,0,0,0.05,78.45,0)" xlink:href="#Z"/><use transform="matrix(0.05,0,0,0.05,83.45,0)" xlink:href="#aA"/><use transform="matrix(0.05,0,0,0.05,93.45,0)" xlink:href="#aM"/><use transform="matrix(0.05,0,0,0.05,103.45,0)" xlink:href="#aw"/><use transform="matrix(0.05,0,0,0.05,113.45,0)" xlink:href="#ag"/><use transform="matrix(0.05,0,0,0.05,128.4,0)" xlink:href="#aj"/><use transform="matrix(0.05,0,0,0.05,138.4,0)" xlink:href="#aA"/><use transform="matrix(0.05,0,0,0.05,148.4,0)" xlink:href="#ag"/><use transform="matrix(0.05,0,0,0.05,163.35,0)" xlink:href="#ah"/><use transform="matrix(0.05,0,0,0.05,173.35,0)" xlink:href="#ab"/><use transform="matrix(0.05,0,0,0.05,183.35,0)" xlink:href="#aj"/><use transform="matrix(0.05,0,0,0.05,193.35,0)" xlink:href="#au"/><use transform="matrix(0.05,0,0,0.05,199.29999999999998,0)" xlink:href="#aP"/><use transform="matrix(0.05,0,0,0.05,213.29999999999995,0)" xlink:href="#aw"/><use transform="matrix(0.05,0,0,0.05,223.29999999999995,0)" xlink:href="#ag"/><use transform="matrix(0.05,0,0,0.05,238.24999999999997,0)" xlink:href="#aj"/><use transform="matrix(0.05,0,0,0.05,248.24999999999997,0)" xlink:href="#aK"/><use transform="matrix(0.05,0,0,0.05,263.2,0)" xlink:href="#ah"/><use transform="matrix(0.05,0,0,0.05,273.2,0)" xlink:href="#ab"/><use transform="matrix(0.05,0,0,0.05,283.2,0)" xlink:href="#aj"/><use transform="matrix(0.05,0,0,0.05,293.2,0)" xlink:href="#be"/><use transform="matrix(0.05,0,0,0.05,305.2,0)" xlink:href="#aI"/><use transform="matrix(0.05,0,0,0.05,315.2,0)" xlink:href="#Y"/><use transform="matrix(0.05,0,0,0.05,319.15,0)" xlink:href="#aJ"/><use transform="matrix(0.05,0,0,0.05,323.09999999999997,0)" xlink:href="#ab"/><use transform="matrix(0.05,0,0,0.05,333.09999999999997,0)" xlink:href="#aj"/><use transform="matrix(0.05,0,0,0.05,343.09999999999997,0)" xlink:href="#ak"/><use transform="matrix(0.05,0,0,0.05,349.04999999999995,0)" xlink:href="#az"/></g></defs></g></svg>