<svg xmlns="http://www.w3.org/2000/svg" xmlns:xlink="http://www.w3.org/1999/xlink" xmlns:lucid="lucid" width="2046.67" height="977.01"><g transform="translate(0 0)" lucid:page-tab-id="HWEp-vi-RSFO"><path d="M0 0h2046.67v977H0z" fill="#fff"/><path d="M80 60h300v242H80z" stroke="#333" stroke-width="2" fill="#fff"/><path d="M80 97.6h300M80 199.9h300" stroke="#333" stroke-width="2" fill="none"/><use xlink:href="#a" transform="matrix(1,0,0,1,88,68) translate(126.05 14.6)"/><use xlink:href="#b" transform="matrix(1,0,0,1,92,105.6) translate(0 25.5)"/><use xlink:href="#c" transform="matrix(1,0,0,1,92,105.6) translate(29.9 25.5)"/><use xlink:href="#d" transform="matrix(1,0,0,1,92,105.6) translate(0 47.1)"/><use xlink:href="#e" transform="matrix(1,0,0,1,92,105.6) translate(65.85000000000001 47.1)"/><use xlink:href="#f" transform="matrix(1,0,0,1,92,105.6) translate(0 68.7)"/><use xlink:href="#g" transform="matrix(1,0,0,1,92,105.6) translate(54.5 68.7)"/><use xlink:href="#h" transform="matrix(1,0,0,1,92,207.89999999999998) translate(0 25.5)"/><use xlink:href="#i" transform="matrix(1,0,0,1,92,207.89999999999998) translate(116.35000000000001 25.5)"/><use xlink:href="#j" transform="matrix(1,0,0,1,92,207.89999999999998) translate(0 47.1)"/><use xlink:href="#k" transform="matrix(1,0,0,1,92,207.89999999999998) translate(0 68.7)"/><path d="M411.38 180h18.37c.14 0 .25.1.25.25 0 .14.1.25.25.25h48.25" stroke="#333" fill="none"/><path d="M381.7 180l14.86-14.85L411.7 180l-15.14 14.85z" stroke="#333" fill="#333"/><path d="M479 181h-.5v-1h.5z" fill="#333"/><path d="M480 81h300v199H480z" stroke="#333" stroke-width="2" fill="#fff"/><path d="M480 118.6h300" stroke="#333" stroke-width="2" fill="none"/><use xlink:href="#l" transform="matrix(1,0,0,1,488,89) translate(115.55 14.6)"/><use xlink:href="#m" transform="matrix(1,0,0,1,492,126.6) translate(0 55)"/><use xlink:href="#n" transform="matrix(1,0,0,1,492,126.6) translate(99.35000000000001 55)"/><use xlink:href="#i" transform="matrix(1,0,0,1,492,126.6) translate(155.3 55)"/><use xlink:href="#o" transform="matrix(1,0,0,1,492,126.6) translate(0 76.60000000000001)"/><use xlink:href="#p" transform="matrix(1,0,0,1,492,126.6) translate(0 98.20000000000002)"/><path d="M400 360h160v121H400z" stroke="#333" stroke-width="2" fill="#fff"/><use xlink:href="#q" transform="matrix(1,0,0,1,408,368) translate(24.099999999999994 56.1)"/><path d="M590 380h160v121H590z" stroke="#333" stroke-width="2" fill="#fff"/><use xlink:href="#r" transform="matrix(1,0,0,1,598,388) translate(29.074999999999996 56.1)"/><path d="M780 360h160v121H780z" stroke="#333" stroke-width="2" fill="#fff"/><use xlink:href="#s" transform="matrix(1,0,0,1,788,368) translate(24.574999999999996 56.1)"/><path d="M480 358.5v-8.83m0-8.84V332l.4-3.1 1.2-2.9 1.9-2.5 2.5-1.9 2.9-1.2 3.1-.4h10.5m10.5 0h21m10.5 0h21m10.5 0h21m10.5 0H618l3.1-.4 2.9-1.2 2.5-1.9 1.9-2.5 1.2-2.9.4-3.1v-10.62" stroke="#333" fill="none"/><path d="M480.5 359h-1v-.5h1z" fill="#333"/><path d="M630 282.62l4.64 14.26h-9.28z" stroke="#333" fill="#fff"/><path d="M670 378.5v-12.17m0-12.16V342l-.4-3.1-1.2-2.9-1.9-2.5-2.5-1.9-2.9-1.2-3.1-.4h-16l-3.1-.4-2.9-1.2-2.5-1.9-1.9-2.5-1.2-2.9-.4-3.1v-6.87m0-6.87v-6.88" stroke="#333" fill="none"/><path d="M670.5 379h-1v-.5h1z" fill="#333"/><path d="M630 282.62l4.64 14.26h-9.28z" stroke="#333" fill="#fff"/><path d="M860 358.5v-8.83m0-8.84V332l-.4-3.1-1.2-2.9-1.9-2.5-2.5-1.9-2.9-1.2-3.1-.4h-9.8m-9.82 0h-19.62m-9.8 0h-19.63m-9.8 0H749.9m-9.8 0h-19.62m-9.8 0h-19.63m-9.8 0H661.6m-9.8 0H642l-3.1-.4-2.9-1.2-2.5-1.9-1.9-2.5-1.2-2.9-.4-3.1v-10.62" stroke="#333" fill="none"/><path d="M860.5 359h-1v-.5h1z" fill="#333"/><path d="M630 282.62l4.64 14.26h-9.28z" stroke="#333" fill="#fff"/><path d="M1620 72.5h360v177h-360z" stroke="#333" stroke-width="2" fill="#fff"/><path d="M1620 110.1h360m-360 80.7h360" stroke="#333" stroke-width="2" fill="none"/><use xlink:href="#t" transform="matrix(1,0,0,1,1628,80.5) translate(125.05 14.6)"/><use xlink:href="#u" transform="matrix(1,0,0,1,1632,118.1) translate(0 25.299999999999997)"/><use xlink:href="#c" transform="matrix(1,0,0,1,1632,118.1) translate(97.4 25.299999999999997)"/><use xlink:href="#v" transform="matrix(1,0,0,1,1632,118.1) translate(0 46.9)"/><use xlink:href="#w" transform="matrix(1,0,0,1,1632,118.1) translate(122.35000000000001 46.9)"/><use xlink:href="#x" transform="matrix(1,0,0,1,1632,118.1) translate(198.05 46.9)"/><path d="M1320 60h240v180h-240z" stroke="#333" stroke-width="2" fill="#fff"/><path d="M1320 97.6h240" stroke="#333" stroke-width="2" fill="none"/><use xlink:href="#y" transform="matrix(1,0,0,1,1328,68) translate(32.650000000000006 14.6)"/><use xlink:href="#z" transform="matrix(1,0,0,1,1332,105.6) translate(0 23.89999999999999)"/><use xlink:href="#A" transform="matrix(1,0,0,1,1332,105.6) translate(0 45.49999999999999)"/><use xlink:href="#B" transform="matrix(1,0,0,1,1332,105.6) translate(0 67.1)"/><use xlink:href="#C" transform="matrix(1,0,0,1,1332,105.6) translate(0 88.70000000000002)"/><use xlink:href="#D" transform="matrix(1,0,0,1,1332,105.6) translate(108.30000000000001 88.70000000000002)"/><use xlink:href="#E" transform="matrix(1,0,0,1,1332,105.6) translate(0 110.30000000000001)"/><path d="M960 580h200v242H960z" stroke="#333" stroke-width="2" fill="#fff"/><path d="M960 617.6h200m-200 59.1h200" stroke="#333" stroke-width="2" fill="none"/><use xlink:href="#F" transform="matrix(1,0,0,1,968,588) translate(12.675000000000011 14.6)"/><use xlink:href="#G" transform="matrix(1,0,0,1,972,625.6) translate(0 25.6)"/><use xlink:href="#H" transform="matrix(1,0,0,1,972,625.6) translate(59.85 25.6)"/><use xlink:href="#z" transform="matrix(1,0,0,1,972,684.7) translate(0 25.39999999999999)"/><use xlink:href="#A" transform="matrix(1,0,0,1,972,684.7) translate(0 46.99999999999999)"/><use xlink:href="#B" transform="matrix(1,0,0,1,972,684.7) translate(0 68.6)"/><use xlink:href="#I" transform="matrix(1,0,0,1,972,684.7) translate(0 90.20000000000002)"/><use xlink:href="#H" transform="matrix(1,0,0,1,972,684.7) translate(0 111.80000000000001)"/><path d="M1200 581h200v240h-200z" stroke="#333" stroke-width="2" fill="#fff"/><path d="M1200 618.6h200m-200 58.1h200" stroke="#333" stroke-width="2" fill="none"/><use xlink:href="#J" transform="matrix(1,0,0,1,1208,589) translate(1.6000000000000227 14.6)"/><use xlink:href="#G" transform="matrix(1,0,0,1,1212,626.6) translate(0 25.1)"/><use xlink:href="#H" transform="matrix(1,0,0,1,1212,626.6) translate(59.85 25.1)"/><use xlink:href="#z" transform="matrix(1,0,0,1,1212,684.7) translate(0 24.89999999999999)"/><use xlink:href="#A" transform="matrix(1,0,0,1,1212,684.7) translate(0 46.49999999999999)"/><use xlink:href="#B" transform="matrix(1,0,0,1,1212,684.7) translate(0 68.1)"/><use xlink:href="#I" transform="matrix(1,0,0,1,1212,684.7) translate(0 89.70000000000002)"/><use xlink:href="#H" transform="matrix(1,0,0,1,1212,684.7) translate(0 111.30000000000001)"/><path d="M1520 580h190v242h-190z" stroke="#333" stroke-width="2" fill="#fff"/><path d="M1520 617.6h190m-190 59.1h190" stroke="#333" stroke-width="2" fill="none"/><use xlink:href="#K" transform="matrix(1,0,0,1,1528,588) translate(6.200000000000017 14.6)"/><use xlink:href="#G" transform="matrix(1,0,0,1,1532,625.6) translate(0 25.6)"/><use xlink:href="#H" transform="matrix(1,0,0,1,1532,625.6) translate(59.85 25.6)"/><use xlink:href="#z" transform="matrix(1,0,0,1,1532,684.7) translate(0 25.39999999999999)"/><use xlink:href="#A" transform="matrix(1,0,0,1,1532,684.7) translate(0 46.99999999999999)"/><use xlink:href="#B" transform="matrix(1,0,0,1,1532,684.7) translate(0 68.6)"/><use xlink:href="#I" transform="matrix(1,0,0,1,1532,684.7) translate(0 90.20000000000002)"/><use xlink:href="#H" transform="matrix(1,0,0,1,1532,684.7) translate(0 111.80000000000001)"/><path d="M1040 320h360v178h-360z" stroke="#333" stroke-width="2" fill="#fff"/><path d="M1040 357.6h360m-360 37.6h360" stroke="#333" stroke-width="2" fill="none"/><g><use xlink:href="#L" transform="matrix(1,0,0,1,1048,328) translate(115.1 14.6)"/></g><g><use xlink:href="#M" transform="matrix(1,0,0,1,1052,403.20000000000005) translate(0 14.69999999999999)"/><use xlink:href="#N" transform="matrix(1,0,0,1,1052,403.20000000000005) translate(150.3 14.69999999999999)"/><use xlink:href="#O" transform="matrix(1,0,0,1,1052,403.20000000000005) translate(0 36.29999999999999)"/><use xlink:href="#P" transform="matrix(1,0,0,1,1052,403.20000000000005) translate(136.3 36.29999999999999)"/><use xlink:href="#Q" transform="matrix(1,0,0,1,1052,403.20000000000005) translate(0 57.89999999999999)"/><use xlink:href="#R" transform="matrix(1,0,0,1,1052,403.20000000000005) translate(0 79.5)"/></g><path d="M1220 318.5v-4.42m0-4.4v-8.85m0-4.4V292l.4-3.1 1.2-2.9m4.4-4.4l2.9-1.2 3.1-.4h5.03m5.02 0h10.05m5.03 0h10.05m5.03 0h10.06m5.02 0h10.05m5.03 0h10.05m5.04 0h10.05m5 0h10.06m5.03 0h10.04m5.03 0h10.05m5.02 0h10.05m5.02 0h10.05m5.03 0h10.05m5.02 0h5.03l3.1-.4 2.9-1.2m4.4-4.4l1.2-2.9.4-3.1v-3.54m0-3.54v-3.54" stroke="#333" fill="none"/><path d="M1220.5 319h-1v-.5h1z" fill="#333"/><path d="M1440 242.62l4.64 14.26h-9.28z" stroke="#333" fill="#fff"/><path d="M1060 578.5v-4.58m0-4.6v-9.15m0-4.6V551l.4-3.1 1.2-2.9m4.4-4.4l2.9-1.2 3.1-.4h5.04m5.03 0h10.08m5.04 0h10.06m5.04 0h10.07m5.04 0h10.08m5.04 0h10.07m5.03 0h10.07m5.04 0h10.07m5.05 0h10.08m5.03 0h5.04l3.1-.4 2.9-1.2m4.4-4.4l1.2-2.9.4-3.1v-3.87m0-3.87v-3.88" stroke="#333" fill="none"/><path d="M1060.5 579h-1v-.5h1z" fill="#333"/><path d="M1220 500.62l4.64 14.26h-9.28z" stroke="#333" fill="#fff"/><path d="M1300 579.5v-4.67m0-4.66v-9.34m0-4.66v-4.67l-.4-3.1-1.2-2.9m-4.4-4.4l-2.9-1.2-3.1-.4h-4.67m-4.66 0h-9.34m-4.66 0h-9.34m-4.66 0h-9.34m-4.66 0H1232l-3.1-.4-2.9-1.2m-4.4-4.4l-1.2-2.9-.4-3.1v-4.04m0-4.04v-4.04" stroke="#333" fill="none"/><path d="M1300.5 580h-1v-.5h1z" fill="#333"/><path d="M1220 500.62l4.64 14.26h-9.28z" stroke="#333" fill="#fff"/><path d="M1615 578.5v-5.22m0-5.2v-10.45m0-5.2v-10.45m0-5.2v-10.45m0-5.2v-10.45m0-5.2v-10.45m0-5.2v-10.45m0-5.2v-10.45m0-5.2v-10.45m0-5.2v-10.45m0-5.2V422l-.4-3.1-1.2-2.9m-4.4-4.4l-2.9-1.2-3.1-.4h-5.03m-5.04 0h-10.06m-5.04 0h-10.06m-5.04 0h-10.06m-5.04 0h-10.06m-5.04 0h-10.06m-5.04 0h-10.06m-5.04 0h-10.06m-5.04 0h-10.06m-5.04 0h-10.06m-5.04 0H1452l-3.1-.4-2.9-1.2m-4.4-4.4l-1.2-2.9-.4-3.1v-5.2m0-5.22v-10.4m0-5.22v-10.42m0-5.2v-10.42m0-5.2V330.3m0-5.2v-10.43m0-5.2v-10.42m0-5.2V283.4m0-5.2V267.8m0-5.2v-5.22" stroke="#333" fill="none"/><path d="M1615.5 579h-1v-.5h1z" fill="#333"/><path d="M1440 242.62l4.64 14.26h-9.28z" stroke="#333" fill="#fff"/><path d="M980 860h160v40H980z" stroke="#333" stroke-width="2" fill="#fff"/><g><use xlink:href="#t" transform="matrix(1,0,0,1,988,868) translate(25.049999999999997 15.6)"/></g><path d="M1060 823.5v19.12" stroke="#333" fill="none"/><path d="M1060.5 823.5h-1v-.5h1z" fill="#333"/><path d="M1060 857.38l-4.64-14.26h9.28z" stroke="#333" fill="#333"/><path d="M1220 860h160v40h-160z" stroke="#333" stroke-width="2" fill="#fff"/><g><use xlink:href="#t" transform="matrix(1,0,0,1,1228,868) translate(25.049999999999997 15.6)"/></g><path d="M1300 822.5v20.12" stroke="#333" fill="none"/><path d="M1300.5 822.5h-1v-.5h1z" fill="#333"/><path d="M1300 857.38l-4.64-14.26h9.28z" stroke="#333" fill="#333"/><path d="M1535 860h160v40h-160z" stroke="#333" stroke-width="2" fill="#fff"/><g><use xlink:href="#t" transform="matrix(1,0,0,1,1543,868) translate(25.049999999999997 15.6)"/></g><path d="M1615 823.5v19.12" stroke="#333" fill="none"/><path d="M1615.5 823.5h-1v-.5h1z" fill="#333"/><path d="M1615 857.38l-4.64-14.26h9.28z" stroke="#333" fill="#333"/><defs><path fill="#333" d="M232-93c-1 65-40 97-104 97C67 4 28-28 28-90v-158h33c8 89-33 224 67 224 102 0 64-133 71-224h33v155" id="S"/><path fill="#333" d="M117-194c89-4 53 116 60 194h-32v-121c0-31-8-49-39-48C34-167 62-67 57 0H25l-1-190h30c1 10-1 24 2 32 11-22 29-35 61-36" id="T"/><path fill="#333" d="M24-231v-30h32v30H24zM24 0v-190h32V0H24" id="U"/><path fill="#333" d="M59-47c-2 24 18 29 38 22v24C64 9 27 4 27-40v-127H5v-23h24l9-43h21v43h35v23H59v120" id="V"/><g id="a"><use transform="matrix(0.05,0,0,0.05,0,0)" xlink:href="#S"/><use transform="matrix(0.05,0,0,0.05,12.950000000000001,0)" xlink:href="#T"/><use transform="matrix(0.05,0,0,0.05,22.950000000000003,0)" xlink:href="#U"/><use transform="matrix(0.05,0,0,0.05,26.900000000000002,0)" xlink:href="#V"/></g><path fill="#333" d="M16-82v-28h88v28H16" id="W"/><path fill="#333" d="M85-194c31 0 48 13 60 33l-1-100h32l1 261h-30c-2-10 0-23-3-31C134-8 116 4 85 4 32 4 16-35 15-94c0-66 23-100 70-100zm9 24c-40 0-46 34-46 75 0 40 6 74 45 74 42 0 51-32 51-76 0-42-9-74-50-73" id="X"/><path fill="#333" d="M33-154v-36h34v36H33zM33 0v-36h34V0H33" id="Y"/><g id="b"><use transform="matrix(0.05,0,0,0.05,0,0)" xlink:href="#W"/><use transform="matrix(0.05,0,0,0.05,5.95,0)" xlink:href="#U"/><use transform="matrix(0.05,0,0,0.05,9.9,0)" xlink:href="#X"/><use transform="matrix(0.05,0,0,0.05,19.9,0)" xlink:href="#Y"/></g><g id="c"><use transform="matrix(0.05,0,0,0.05,0,0)" xlink:href="#U"/><use transform="matrix(0.05,0,0,0.05,3.95,0)" xlink:href="#T"/><use transform="matrix(0.05,0,0,0.05,13.949999999999998,0)" xlink:href="#V"/></g><path fill="#333" d="M210-169c-67 3-38 105-44 169h-31v-121c0-29-5-50-35-48C34-165 62-65 56 0H25l-1-190h30c1 10-1 24 2 32 10-44 99-50 107 0 11-21 27-35 58-36 85-2 47 119 55 194h-31v-121c0-29-5-49-35-48" id="Z"/><path fill="#333" d="M100-194c62-1 85 37 85 99 1 63-27 99-86 99S16-35 15-95c0-66 28-99 85-99zM99-20c44 1 53-31 53-75 0-43-8-75-51-75s-53 32-53 75 10 74 51 75" id="aa"/><path fill="#333" d="M108 0H70L1-190h34L89-25l56-165h34" id="ab"/><path fill="#333" d="M100-194c63 0 86 42 84 106H49c0 40 14 67 53 68 26 1 43-12 49-29l28 8c-11 28-37 45-77 45C44 4 14-33 15-96c1-61 26-98 85-98zm52 81c6-60-76-77-97-28-3 7-6 17-6 28h103" id="ac"/><path fill="#333" d="M114-163C36-179 61-72 57 0H25l-1-190h30c1 12-1 29 2 39 6-27 23-49 58-41v29" id="ad"/><g id="d"><use transform="matrix(0.05,0,0,0.05,0,0)" xlink:href="#W"/><use transform="matrix(0.05,0,0,0.05,5.95,0)" xlink:href="#Z"/><use transform="matrix(0.05,0,0,0.05,20.900000000000002,0)" xlink:href="#aa"/><use transform="matrix(0.05,0,0,0.05,30.900000000000002,0)" xlink:href="#ab"/><use transform="matrix(0.05,0,0,0.05,39.900000000000006,0)" xlink:href="#ac"/><use transform="matrix(0.05,0,0,0.05,49.900000000000006,0)" xlink:href="#ad"/><use transform="matrix(0.05,0,0,0.05,55.85,0)" xlink:href="#Y"/></g><path fill="#333" d="M240 0l2-218c-23 76-54 145-80 218h-23L58-218 59 0H30v-248h44l77 211c21-75 51-140 76-211h43V0h-30" id="ae"/><g id="e"><use transform="matrix(0.05,0,0,0.05,0,0)" xlink:href="#ae"/><use transform="matrix(0.05,0,0,0.05,14.950000000000001,0)" xlink:href="#aa"/><use transform="matrix(0.05,0,0,0.05,24.950000000000003,0)" xlink:href="#ab"/><use transform="matrix(0.05,0,0,0.05,33.95,0)" xlink:href="#ac"/><use transform="matrix(0.05,0,0,0.05,43.95,0)" xlink:href="#ad"/></g><path fill="#333" d="M118-107v75H92v-75H18v-26h74v-75h26v75h74v26h-74" id="af"/><path fill="#333" d="M179-190L93 31C79 59 56 82 12 73V49c39 6 53-20 64-50L1-190h34L92-34l54-156h33" id="ag"/><path fill="#333" d="M115-194c55 1 70 41 70 98S169 2 115 4C84 4 66-9 55-30l1 105H24l-1-265h31l2 30c10-21 28-34 59-34zm-8 174c40 0 45-34 45-75s-6-73-45-74c-42 0-51 32-51 76 0 43 10 73 51 73" id="ah"/><g id="f"><use transform="matrix(0.05,0,0,0.05,0,0)" xlink:href="#af"/><use transform="matrix(0.05,0,0,0.05,10.5,0)" xlink:href="#V"/><use transform="matrix(0.05,0,0,0.05,15.5,0)" xlink:href="#ag"/><use transform="matrix(0.05,0,0,0.05,24.5,0)" xlink:href="#ah"/><use transform="matrix(0.05,0,0,0.05,34.5,0)" xlink:href="#ac"/><use transform="matrix(0.05,0,0,0.05,44.5,0)" xlink:href="#Y"/></g><path fill="#333" d="M135-143c-3-34-86-38-87 0 15 53 115 12 119 90S17 21 10-45l28-5c4 36 97 45 98 0-10-56-113-15-118-90-4-57 82-63 122-42 12 7 21 19 24 35" id="ai"/><g id="g"><use transform="matrix(0.05,0,0,0.05,0,0)" xlink:href="#ai"/><use transform="matrix(0.05,0,0,0.05,9,0)" xlink:href="#V"/><use transform="matrix(0.05,0,0,0.05,14,0)" xlink:href="#ad"/></g><path fill="#333" d="M87 75C49 33 22-17 22-94c0-76 28-126 65-167h31c-38 41-64 92-64 168S80 34 118 75H87" id="aj"/><path fill="#333" d="M115-194c53 0 69 39 70 98 0 66-23 100-70 100C84 3 66-7 56-30L54 0H23l1-261h32v101c10-23 28-34 59-34zm-8 174c40 0 45-34 45-75 0-40-5-75-45-74-42 0-51 32-51 76 0 43 10 73 51 73" id="ak"/><path fill="#333" d="M141-36C126-15 110 5 73 4 37 3 15-17 15-53c-1-64 63-63 125-63 3-35-9-54-41-54-24 1-41 7-42 31l-33-3c5-37 33-52 76-52 45 0 72 20 72 64v82c-1 20 7 32 28 27v20c-31 9-61-2-59-35zM48-53c0 20 12 33 32 33 41-3 63-29 60-74-43 2-92-5-92 41" id="al"/><path fill="#333" d="M68-38c1 34 0 65-14 84H32c9-13 17-26 17-46H33v-38h35" id="am"/><g id="h"><use transform="matrix(0.05,0,0,0.05,0,0)" xlink:href="#af"/><use transform="matrix(0.05,0,0,0.05,10.5,0)" xlink:href="#Z"/><use transform="matrix(0.05,0,0,0.05,25.450000000000003,0)" xlink:href="#aa"/><use transform="matrix(0.05,0,0,0.05,35.45,0)" xlink:href="#ab"/><use transform="matrix(0.05,0,0,0.05,44.45,0)" xlink:href="#ac"/><use transform="matrix(0.05,0,0,0.05,54.45,0)" xlink:href="#aj"/><use transform="matrix(0.05,0,0,0.05,60.400000000000006,0)" xlink:href="#ak"/><use transform="matrix(0.05,0,0,0.05,70.4,0)" xlink:href="#aa"/><use transform="matrix(0.05,0,0,0.05,80.4,0)" xlink:href="#al"/><use transform="matrix(0.05,0,0,0.05,90.4,0)" xlink:href="#ad"/><use transform="matrix(0.05,0,0,0.05,96.35000000000001,0)" xlink:href="#X"/><use transform="matrix(0.05,0,0,0.05,106.35000000000001,0)" xlink:href="#am"/></g><path fill="#333" d="M33-261c38 41 65 92 65 168S71 34 33 75H2C39 34 66-17 66-93S39-220 2-261h31" id="an"/><g id="i"><use transform="matrix(0.05,0,0,0.05,0,0)" xlink:href="#ah"/><use transform="matrix(0.05,0,0,0.05,10,0)" xlink:href="#aa"/><use transform="matrix(0.05,0,0,0.05,20,0)" xlink:href="#ai"/><use transform="matrix(0.05,0,0,0.05,29,0)" xlink:href="#U"/><use transform="matrix(0.05,0,0,0.05,32.95,0)" xlink:href="#V"/><use transform="matrix(0.05,0,0,0.05,37.95,0)" xlink:href="#U"/><use transform="matrix(0.05,0,0,0.05,41.900000000000006,0)" xlink:href="#aa"/><use transform="matrix(0.05,0,0,0.05,51.900000000000006,0)" xlink:href="#T"/><use transform="matrix(0.05,0,0,0.05,61.900000000000006,0)" xlink:href="#an"/></g><path fill="#333" d="M-5 72V49h209v23H-5" id="ao"/><path fill="#333" d="M96-169c-40 0-48 33-48 73s9 75 48 75c24 0 41-14 43-38l32 2c-6 37-31 61-74 61-59 0-76-41-82-99-10-93 101-131 147-64 4 7 5 14 7 22l-32 3c-4-21-16-35-41-35" id="ap"/><path fill="#333" d="M106-169C34-169 62-67 57 0H25v-261h32l-1 103c12-21 28-36 61-36 89 0 53 116 60 194h-32v-121c2-32-8-49-39-48" id="aq"/><g id="j"><use transform="matrix(0.05,0,0,0.05,0,0)" xlink:href="#ao"/><use transform="matrix(0.05,0,0,0.05,10,0)" xlink:href="#ao"/><use transform="matrix(0.05,0,0,0.05,20,0)" xlink:href="#ap"/><use transform="matrix(0.05,0,0,0.05,29,0)" xlink:href="#aa"/><use transform="matrix(0.05,0,0,0.05,39,0)" xlink:href="#ah"/><use transform="matrix(0.05,0,0,0.05,49,0)" xlink:href="#ag"/><use transform="matrix(0.05,0,0,0.05,58,0)" xlink:href="#ao"/><use transform="matrix(0.05,0,0,0.05,68,0)" xlink:href="#ao"/><use transform="matrix(0.05,0,0,0.05,78,0)" xlink:href="#aj"/><use transform="matrix(0.05,0,0,0.05,83.95,0)" xlink:href="#aa"/><use transform="matrix(0.05,0,0,0.05,93.95,0)" xlink:href="#V"/><use transform="matrix(0.05,0,0,0.05,98.95,0)" xlink:href="#aq"/><use transform="matrix(0.05,0,0,0.05,108.95,0)" xlink:href="#ac"/><use transform="matrix(0.05,0,0,0.05,118.95,0)" xlink:href="#ad"/><use transform="matrix(0.05,0,0,0.05,124.9,0)" xlink:href="#S"/><use transform="matrix(0.05,0,0,0.05,137.85,0)" xlink:href="#T"/><use transform="matrix(0.05,0,0,0.05,147.85,0)" xlink:href="#U"/><use transform="matrix(0.05,0,0,0.05,151.79999999999998,0)" xlink:href="#V"/><use transform="matrix(0.05,0,0,0.05,156.79999999999998,0)" xlink:href="#an"/></g><g id="k"><use transform="matrix(0.05,0,0,0.05,0,0)" xlink:href="#ao"/><use transform="matrix(0.05,0,0,0.05,10,0)" xlink:href="#ao"/><use transform="matrix(0.05,0,0,0.05,20,0)" xlink:href="#X"/><use transform="matrix(0.05,0,0,0.05,30,0)" xlink:href="#ac"/><use transform="matrix(0.05,0,0,0.05,40,0)" xlink:href="#ac"/><use transform="matrix(0.05,0,0,0.05,50,0)" xlink:href="#ah"/><use transform="matrix(0.05,0,0,0.05,60,0)" xlink:href="#ap"/><use transform="matrix(0.05,0,0,0.05,69,0)" xlink:href="#aa"/><use transform="matrix(0.05,0,0,0.05,79,0)" xlink:href="#ah"/><use transform="matrix(0.05,0,0,0.05,89,0)" xlink:href="#ag"/><use transform="matrix(0.05,0,0,0.05,98,0)" xlink:href="#ao"/><use transform="matrix(0.05,0,0,0.05,108,0)" xlink:href="#ao"/><use transform="matrix(0.05,0,0,0.05,118,0)" xlink:href="#aj"/><use transform="matrix(0.05,0,0,0.05,123.95,0)" xlink:href="#aa"/><use transform="matrix(0.05,0,0,0.05,133.95,0)" xlink:href="#V"/><use transform="matrix(0.05,0,0,0.05,138.95,0)" xlink:href="#aq"/><use transform="matrix(0.05,0,0,0.05,148.95,0)" xlink:href="#ac"/><use transform="matrix(0.05,0,0,0.05,158.95,0)" xlink:href="#ad"/><use transform="matrix(0.05,0,0,0.05,164.89999999999998,0)" xlink:href="#S"/><use transform="matrix(0.05,0,0,0.05,177.84999999999997,0)" xlink:href="#T"/><use transform="matrix(0.05,0,0,0.05,187.84999999999997,0)" xlink:href="#U"/><use transform="matrix(0.05,0,0,0.05,191.79999999999995,0)" xlink:href="#V"/><use transform="matrix(0.05,0,0,0.05,196.79999999999995,0)" xlink:href="#an"/></g><path d="M230 0l2-204L168 0h-37L68-204 70 0H24v-248h70l56 185 57-185h69V0h-46" id="ar"/><path d="M110-194c64 0 96 36 96 99 0 64-35 99-97 99-61 0-95-36-95-99 0-62 34-99 96-99zm-1 164c35 0 45-28 45-65 0-40-10-65-43-65-34 0-45 26-45 65 0 36 10 65 43 65" id="as"/><path d="M128 0H69L1-190h53L99-40l48-150h52" id="at"/><path d="M185-48c-13 30-37 53-82 52C43 2 14-33 14-96s30-98 90-98c62 0 83 45 84 108H66c0 31 8 55 39 56 18 0 30-7 34-22zm-45-69c5-46-57-63-70-21-2 6-4 13-4 21h74" id="au"/><path d="M135-150c-39-12-60 13-60 57V0H25l-1-190h47c2 13-1 29 3 40 6-28 27-53 61-41v41" id="av"/><g id="l"><use transform="matrix(0.05,0,0,0.05,0,0)" xlink:href="#ar"/><use transform="matrix(0.05,0,0,0.05,14.950000000000001,0)" xlink:href="#as"/><use transform="matrix(0.05,0,0,0.05,25.900000000000002,0)" xlink:href="#at"/><use transform="matrix(0.05,0,0,0.05,35.900000000000006,0)" xlink:href="#au"/><use transform="matrix(0.05,0,0,0.05,45.900000000000006,0)" xlink:href="#av"/></g><path fill="#333" d="M84 4C-5 8 30-112 23-190h32v120c0 31 7 50 39 49 72-2 45-101 50-169h31l1 190h-30c-1-10 1-25-2-33-11 22-28 36-60 37" id="aw"/><g id="m"><use transform="matrix(0.05,0,0,0.05,0,0)" xlink:href="#af"/><use transform="matrix(0.05,0,0,0.05,10.5,0)" xlink:href="#Z"/><use transform="matrix(0.05,0,0,0.05,25.450000000000003,0)" xlink:href="#aa"/><use transform="matrix(0.05,0,0,0.05,35.45,0)" xlink:href="#ab"/><use transform="matrix(0.05,0,0,0.05,44.45,0)" xlink:href="#ac"/><use transform="matrix(0.05,0,0,0.05,54.45,0)" xlink:href="#aj"/><use transform="matrix(0.05,0,0,0.05,60.400000000000006,0)" xlink:href="#aw"/><use transform="matrix(0.05,0,0,0.05,70.4,0)" xlink:href="#T"/><use transform="matrix(0.05,0,0,0.05,80.4,0)" xlink:href="#U"/><use transform="matrix(0.05,0,0,0.05,84.35000000000001,0)" xlink:href="#V"/><use transform="matrix(0.05,0,0,0.05,89.35000000000001,0)" xlink:href="#am"/></g><g id="n"><use transform="matrix(0.05,0,0,0.05,0,0)" xlink:href="#ak"/><use transform="matrix(0.05,0,0,0.05,10,0)" xlink:href="#aa"/><use transform="matrix(0.05,0,0,0.05,20,0)" xlink:href="#al"/><use transform="matrix(0.05,0,0,0.05,30,0)" xlink:href="#ad"/><use transform="matrix(0.05,0,0,0.05,35.95,0)" xlink:href="#X"/><use transform="matrix(0.05,0,0,0.05,45.95,0)" xlink:href="#am"/></g><g id="o"><use transform="matrix(0.05,0,0,0.05,0,0)" xlink:href="#ao"/><use transform="matrix(0.05,0,0,0.05,10,0)" xlink:href="#ao"/><use transform="matrix(0.05,0,0,0.05,20,0)" xlink:href="#ap"/><use transform="matrix(0.05,0,0,0.05,29,0)" xlink:href="#aa"/><use transform="matrix(0.05,0,0,0.05,39,0)" xlink:href="#ah"/><use transform="matrix(0.05,0,0,0.05,49,0)" xlink:href="#ag"/><use transform="matrix(0.05,0,0,0.05,58,0)" xlink:href="#ao"/><use transform="matrix(0.05,0,0,0.05,68,0)" xlink:href="#ao"/><use transform="matrix(0.05,0,0,0.05,78,0)" xlink:href="#aj"/><use transform="matrix(0.05,0,0,0.05,83.95,0)" xlink:href="#an"/></g><g id="p"><use transform="matrix(0.05,0,0,0.05,0,0)" xlink:href="#ao"/><use transform="matrix(0.05,0,0,0.05,10,0)" xlink:href="#ao"/><use transform="matrix(0.05,0,0,0.05,20,0)" xlink:href="#X"/><use transform="matrix(0.05,0,0,0.05,30,0)" xlink:href="#ac"/><use transform="matrix(0.05,0,0,0.05,40,0)" xlink:href="#ac"/><use transform="matrix(0.05,0,0,0.05,50,0)" xlink:href="#ah"/><use transform="matrix(0.05,0,0,0.05,60,0)" xlink:href="#ap"/><use transform="matrix(0.05,0,0,0.05,69,0)" xlink:href="#aa"/><use transform="matrix(0.05,0,0,0.05,79,0)" xlink:href="#ah"/><use transform="matrix(0.05,0,0,0.05,89,0)" xlink:href="#ag"/><use transform="matrix(0.05,0,0,0.05,98,0)" xlink:href="#ao"/><use transform="matrix(0.05,0,0,0.05,108,0)" xlink:href="#ao"/><use transform="matrix(0.05,0,0,0.05,118,0)" xlink:href="#aj"/><use transform="matrix(0.05,0,0,0.05,123.95,0)" xlink:href="#an"/></g><path fill="#333" d="M24 0v-261h32V0H24" id="ax"/><g id="q"><use transform="matrix(0.05,0,0,0.05,0,0)" xlink:href="#S"/><use transform="matrix(0.05,0,0,0.05,12.950000000000001,0)" xlink:href="#ai"/><use transform="matrix(0.05,0,0,0.05,21.950000000000003,0)" xlink:href="#aw"/><use transform="matrix(0.05,0,0,0.05,31.950000000000003,0)" xlink:href="#al"/><use transform="matrix(0.05,0,0,0.05,41.95,0)" xlink:href="#ax"/><use transform="matrix(0.05,0,0,0.05,45.900000000000006,0)" xlink:href="#ae"/><use transform="matrix(0.05,0,0,0.05,60.85,0)" xlink:href="#aa"/><use transform="matrix(0.05,0,0,0.05,70.85000000000001,0)" xlink:href="#ab"/><use transform="matrix(0.05,0,0,0.05,79.85000000000001,0)" xlink:href="#ac"/><use transform="matrix(0.05,0,0,0.05,89.85000000000001,0)" xlink:href="#ad"/></g><path fill="#333" d="M194 0L95-120 63-95V0H30v-248h33v124l119-124h40L117-140 236 0h-42" id="ay"/><path fill="#333" d="M177-190C167-65 218 103 67 71c-23-6-38-20-44-43l32-5c15 47 100 32 89-28v-30C133-14 115 1 83 1 29 1 15-40 15-95c0-56 16-97 71-98 29-1 48 16 59 35 1-10 0-23 2-32h30zM94-22c36 0 50-32 50-73 0-42-14-75-50-75-39 0-46 34-46 75s6 73 46 73" id="az"/><g id="r"><use transform="matrix(0.05,0,0,0.05,0,0)" xlink:href="#ay"/><use transform="matrix(0.05,0,0,0.05,12,0)" xlink:href="#U"/><use transform="matrix(0.05,0,0,0.05,15.949999999999998,0)" xlink:href="#T"/><use transform="matrix(0.05,0,0,0.05,25.950000000000003,0)" xlink:href="#az"/><use transform="matrix(0.05,0,0,0.05,35.95,0)" xlink:href="#ae"/><use transform="matrix(0.05,0,0,0.05,50.900000000000006,0)" xlink:href="#aa"/><use transform="matrix(0.05,0,0,0.05,60.900000000000006,0)" xlink:href="#ab"/><use transform="matrix(0.05,0,0,0.05,69.9,0)" xlink:href="#ac"/><use transform="matrix(0.05,0,0,0.05,79.9,0)" xlink:href="#ad"/></g><path fill="#333" d="M185-189c-5-48-123-54-124 2 14 75 158 14 163 119 3 78-121 87-175 55-17-10-28-26-33-46l33-7c5 56 141 63 141-1 0-78-155-14-162-118-5-82 145-84 179-34 5 7 8 16 11 25" id="aA"/><path fill="#333" d="M206 0h-36l-40-164L89 0H53L-1-190h32L70-26l43-164h34l41 164 42-164h31" id="aB"/><g id="s"><use transform="matrix(0.05,0,0,0.05,0,0)" xlink:href="#aA"/><use transform="matrix(0.05,0,0,0.05,12,0)" xlink:href="#aB"/><use transform="matrix(0.05,0,0,0.05,24.950000000000003,0)" xlink:href="#al"/><use transform="matrix(0.05,0,0,0.05,34.95,0)" xlink:href="#ah"/><use transform="matrix(0.05,0,0,0.05,44.95,0)" xlink:href="#ae"/><use transform="matrix(0.05,0,0,0.05,59.900000000000006,0)" xlink:href="#aa"/><use transform="matrix(0.05,0,0,0.05,69.9,0)" xlink:href="#ab"/><use transform="matrix(0.05,0,0,0.05,78.9,0)" xlink:href="#ac"/><use transform="matrix(0.05,0,0,0.05,88.9,0)" xlink:href="#ad"/></g><path fill="#333" d="M143 4C61 4 22-44 18-125c-5-107 100-154 193-111 17 8 29 25 37 43l-32 9c-13-25-37-40-76-40-61 0-88 39-88 99 0 61 29 100 91 101 35 0 62-11 79-27v-45h-74v-28h105v86C228-13 192 4 143 4" id="aC"/><g id="t"><use transform="matrix(0.05,0,0,0.05,0,0)" xlink:href="#aC"/><use transform="matrix(0.05,0,0,0.05,14,0)" xlink:href="#al"/><use transform="matrix(0.05,0,0,0.05,24,0)" xlink:href="#Z"/><use transform="matrix(0.05,0,0,0.05,38.95,0)" xlink:href="#ac"/><use transform="matrix(0.05,0,0,0.05,48.95,0)" xlink:href="#ae"/><use transform="matrix(0.05,0,0,0.05,63.900000000000006,0)" xlink:href="#aa"/><use transform="matrix(0.05,0,0,0.05,73.9,0)" xlink:href="#X"/><use transform="matrix(0.05,0,0,0.05,83.9,0)" xlink:href="#ac"/></g><path fill="#333" d="M9 0v-24l116-142H16v-24h144v24L44-24h123V0H9" id="aD"/><g id="u"><use transform="matrix(0.05,0,0,0.05,0,0)" xlink:href="#af"/><use transform="matrix(0.05,0,0,0.05,10.5,0)" xlink:href="#ai"/><use transform="matrix(0.05,0,0,0.05,19.5,0)" xlink:href="#U"/><use transform="matrix(0.05,0,0,0.05,23.45,0)" xlink:href="#aD"/><use transform="matrix(0.05,0,0,0.05,32.45,0)" xlink:href="#ac"/><use transform="matrix(0.05,0,0,0.05,42.45,0)" xlink:href="#ao"/><use transform="matrix(0.05,0,0,0.05,52.45,0)" xlink:href="#Z"/><use transform="matrix(0.05,0,0,0.05,67.4,0)" xlink:href="#al"/><use transform="matrix(0.05,0,0,0.05,77.4,0)" xlink:href="#ah"/><use transform="matrix(0.05,0,0,0.05,87.4,0)" xlink:href="#Y"/></g><g id="v"><use transform="matrix(0.05,0,0,0.05,0,0)" xlink:href="#af"/><use transform="matrix(0.05,0,0,0.05,10.5,0)" xlink:href="#al"/><use transform="matrix(0.05,0,0,0.05,20.5,0)" xlink:href="#ad"/><use transform="matrix(0.05,0,0,0.05,26.450000000000003,0)" xlink:href="#ad"/><use transform="matrix(0.05,0,0,0.05,32.4,0)" xlink:href="#al"/><use transform="matrix(0.05,0,0,0.05,42.4,0)" xlink:href="#T"/><use transform="matrix(0.05,0,0,0.05,52.400000000000006,0)" xlink:href="#az"/><use transform="matrix(0.05,0,0,0.05,62.400000000000006,0)" xlink:href="#ac"/><use transform="matrix(0.05,0,0,0.05,72.4,0)" xlink:href="#Z"/><use transform="matrix(0.05,0,0,0.05,87.35000000000001,0)" xlink:href="#ac"/><use transform="matrix(0.05,0,0,0.05,97.35000000000001,0)" xlink:href="#T"/><use transform="matrix(0.05,0,0,0.05,107.35000000000001,0)" xlink:href="#V"/><use transform="matrix(0.05,0,0,0.05,112.35000000000001,0)" xlink:href="#Y"/></g><g id="w"><use transform="matrix(0.05,0,0,0.05,0,0)" xlink:href="#ax"/><use transform="matrix(0.05,0,0,0.05,3.95,0)" xlink:href="#U"/><use transform="matrix(0.05,0,0,0.05,7.9,0)" xlink:href="#ai"/><use transform="matrix(0.05,0,0,0.05,16.9,0)" xlink:href="#V"/><use transform="matrix(0.05,0,0,0.05,21.9,0)" xlink:href="#aj"/><use transform="matrix(0.05,0,0,0.05,27.849999999999994,0)" xlink:href="#aj"/><use transform="matrix(0.05,0,0,0.05,33.8,0)" xlink:href="#S"/><use transform="matrix(0.05,0,0,0.05,46.75,0)" xlink:href="#T"/><use transform="matrix(0.05,0,0,0.05,56.75,0)" xlink:href="#U"/><use transform="matrix(0.05,0,0,0.05,60.7,0)" xlink:href="#V"/><use transform="matrix(0.05,0,0,0.05,65.7,0)" xlink:href="#am"/></g><g id="x"><use transform="matrix(0.05,0,0,0.05,0,0)" xlink:href="#ah"/><use transform="matrix(0.05,0,0,0.05,10,0)" xlink:href="#aa"/><use transform="matrix(0.05,0,0,0.05,20,0)" xlink:href="#ai"/><use transform="matrix(0.05,0,0,0.05,29,0)" xlink:href="#U"/><use transform="matrix(0.05,0,0,0.05,32.95,0)" xlink:href="#V"/><use transform="matrix(0.05,0,0,0.05,37.95,0)" xlink:href="#U"/><use transform="matrix(0.05,0,0,0.05,41.900000000000006,0)" xlink:href="#aa"/><use transform="matrix(0.05,0,0,0.05,51.900000000000006,0)" xlink:href="#T"/><use transform="matrix(0.05,0,0,0.05,61.900000000000006,0)" xlink:href="#an"/><use transform="matrix(0.05,0,0,0.05,67.85000000000001,0)" xlink:href="#an"/></g><path d="M67-125c0 54 23 88 75 88 28 0 53-7 68-21v-34h-60v-39h108v91C232-14 192 4 140 4 58 4 20-42 15-125 8-236 126-280 215-234c19 10 29 26 37 47l-47 15c-11-23-29-39-63-39-53 1-75 33-75 86" id="aE"/><path d="M133-34C117-15 103 5 69 4 32 3 11-16 11-54c-1-60 55-63 116-61 1-26-3-47-28-47-18 1-26 9-28 27l-52-2c7-38 36-58 82-57s74 22 75 68l1 82c-1 14 12 18 25 15v27c-30 8-71 5-69-32zm-48 3c29 0 43-24 42-57-32 0-66-3-65 30 0 17 8 27 23 27" id="aF"/><path d="M220-157c-53 9-28 100-34 157h-49v-107c1-27-5-49-29-50C55-147 81-57 75 0H25l-1-190h47c2 12-1 28 3 38 10-53 101-56 108 0 13-22 24-43 59-42 82 1 51 116 57 194h-49v-107c-1-25-5-48-29-50" id="aG"/><path d="M88-194c31-1 46 15 58 34l-1-101h50l1 261h-48c-2-10 0-23-3-31C134-8 116 4 84 4 32 4 16-41 15-95c0-56 19-97 73-99zm17 164c33 0 40-30 41-66 1-37-9-64-41-64s-38 30-39 65c0 43 13 65 39 65" id="aH"/><path d="M182-130c37 4 62 22 62 59C244 23 116-4 24 0v-248c84 5 203-23 205 63 0 31-19 50-47 55zM76-148c40-3 101 13 101-30 0-44-60-28-101-31v61zm0 110c48-3 116 14 116-37 0-48-69-32-116-35v72" id="aI"/><path d="M85 4C-2 5 27-109 22-190h50c7 57-23 150 33 157 60-5 35-97 40-157h50l1 190h-47c-2-12 1-28-3-38-12 25-28 42-61 42" id="aJ"/><path d="M25-224v-37h50v37H25zM25 0v-190h50V0H25" id="aK"/><path d="M25 0v-261h50V0H25" id="aL"/><g id="y"><use transform="matrix(0.05,0,0,0.05,0,0)" xlink:href="#aE"/><use transform="matrix(0.05,0,0,0.05,14,0)" xlink:href="#aF"/><use transform="matrix(0.05,0,0,0.05,24,0)" xlink:href="#aG"/><use transform="matrix(0.05,0,0,0.05,40,0)" xlink:href="#au"/><use transform="matrix(0.05,0,0,0.05,50,0)" xlink:href="#ar"/><use transform="matrix(0.05,0,0,0.05,64.95,0)" xlink:href="#as"/><use transform="matrix(0.05,0,0,0.05,75.9,0)" xlink:href="#aH"/><use transform="matrix(0.05,0,0,0.05,86.85000000000001,0)" xlink:href="#au"/><use transform="matrix(0.05,0,0,0.05,96.85000000000001,0)" xlink:href="#aI"/><use transform="matrix(0.05,0,0,0.05,109.80000000000001,0)" xlink:href="#aJ"/><use transform="matrix(0.05,0,0,0.05,120.75,0)" xlink:href="#aK"/><use transform="matrix(0.05,0,0,0.05,125.75,0)" xlink:href="#aL"/><use transform="matrix(0.05,0,0,0.05,130.75,0)" xlink:href="#aH"/><use transform="matrix(0.05,0,0,0.05,141.7,0)" xlink:href="#au"/><use transform="matrix(0.05,0,0,0.05,151.7,0)" xlink:href="#av"/></g><g id="z"><use transform="matrix(0.05,0,0,0.05,0,0)" xlink:href="#af"/><use transform="matrix(0.05,0,0,0.05,10.5,0)" xlink:href="#ad"/><use transform="matrix(0.05,0,0,0.05,16.45,0)" xlink:href="#ac"/><use transform="matrix(0.05,0,0,0.05,26.450000000000003,0)" xlink:href="#ai"/><use transform="matrix(0.05,0,0,0.05,35.45,0)" xlink:href="#ac"/><use transform="matrix(0.05,0,0,0.05,45.45,0)" xlink:href="#V"/><use transform="matrix(0.05,0,0,0.05,50.45,0)" xlink:href="#aj"/><use transform="matrix(0.05,0,0,0.05,56.400000000000006,0)" xlink:href="#an"/></g><g id="A"><use transform="matrix(0.05,0,0,0.05,0,0)" xlink:href="#af"/><use transform="matrix(0.05,0,0,0.05,10.5,0)" xlink:href="#ai"/><use transform="matrix(0.05,0,0,0.05,19.5,0)" xlink:href="#ac"/><use transform="matrix(0.05,0,0,0.05,29.5,0)" xlink:href="#V"/><use transform="matrix(0.05,0,0,0.05,34.5,0)" xlink:href="#ao"/><use transform="matrix(0.05,0,0,0.05,44.5,0)" xlink:href="#ai"/><use transform="matrix(0.05,0,0,0.05,53.5,0)" xlink:href="#U"/><use transform="matrix(0.05,0,0,0.05,57.45,0)" xlink:href="#aD"/><use transform="matrix(0.05,0,0,0.05,66.45,0)" xlink:href="#ac"/><use transform="matrix(0.05,0,0,0.05,76.45,0)" xlink:href="#aj"/><use transform="matrix(0.05,0,0,0.05,82.4,0)" xlink:href="#an"/></g><g id="B"><use transform="matrix(0.05,0,0,0.05,0,0)" xlink:href="#af"/><use transform="matrix(0.05,0,0,0.05,10.5,0)" xlink:href="#ai"/><use transform="matrix(0.05,0,0,0.05,19.5,0)" xlink:href="#ac"/><use transform="matrix(0.05,0,0,0.05,29.5,0)" xlink:href="#V"/><use transform="matrix(0.05,0,0,0.05,34.5,0)" xlink:href="#ao"/><use transform="matrix(0.05,0,0,0.05,44.5,0)" xlink:href="#al"/><use transform="matrix(0.05,0,0,0.05,54.5,0)" xlink:href="#ad"/><use transform="matrix(0.05,0,0,0.05,60.45,0)" xlink:href="#ad"/><use transform="matrix(0.05,0,0,0.05,66.4,0)" xlink:href="#al"/><use transform="matrix(0.05,0,0,0.05,76.4,0)" xlink:href="#T"/><use transform="matrix(0.05,0,0,0.05,86.4,0)" xlink:href="#az"/><use transform="matrix(0.05,0,0,0.05,96.4,0)" xlink:href="#ac"/><use transform="matrix(0.05,0,0,0.05,106.4,0)" xlink:href="#Z"/><use transform="matrix(0.05,0,0,0.05,121.35000000000001,0)" xlink:href="#ac"/><use transform="matrix(0.05,0,0,0.05,131.35000000000002,0)" xlink:href="#T"/><use transform="matrix(0.05,0,0,0.05,141.35000000000002,0)" xlink:href="#V"/><use transform="matrix(0.05,0,0,0.05,146.35000000000002,0)" xlink:href="#aj"/><use transform="matrix(0.05,0,0,0.05,152.3,0)" xlink:href="#an"/></g><path fill="#333" d="M233-177c-1 41-23 64-60 70L243 0h-38l-65-103H63V0H30v-248c88 3 205-21 203 71zM63-129c60-2 137 13 137-47 0-61-80-42-137-45v92" id="aM"/><g id="C"><use transform="matrix(0.05,0,0,0.05,0,0)" xlink:href="#af"/><use transform="matrix(0.05,0,0,0.05,10.5,0)" xlink:href="#az"/><use transform="matrix(0.05,0,0,0.05,20.5,0)" xlink:href="#ac"/><use transform="matrix(0.05,0,0,0.05,30.5,0)" xlink:href="#V"/><use transform="matrix(0.05,0,0,0.05,35.5,0)" xlink:href="#aM"/><use transform="matrix(0.05,0,0,0.05,48.45,0)" xlink:href="#ac"/><use transform="matrix(0.05,0,0,0.05,58.45,0)" xlink:href="#ai"/><use transform="matrix(0.05,0,0,0.05,67.45,0)" xlink:href="#aw"/><use transform="matrix(0.05,0,0,0.05,77.45,0)" xlink:href="#ax"/><use transform="matrix(0.05,0,0,0.05,81.4,0)" xlink:href="#V"/><use transform="matrix(0.05,0,0,0.05,86.4,0)" xlink:href="#aj"/><use transform="matrix(0.05,0,0,0.05,92.35000000000001,0)" xlink:href="#an"/><use transform="matrix(0.05,0,0,0.05,98.30000000000001,0)" xlink:href="#Y"/></g><g id="D"><use transform="matrix(0.05,0,0,0.05,0,0)" xlink:href="#aC"/><use transform="matrix(0.05,0,0,0.05,14,0)" xlink:href="#al"/><use transform="matrix(0.05,0,0,0.05,24,0)" xlink:href="#Z"/><use transform="matrix(0.05,0,0,0.05,38.95,0)" xlink:href="#ac"/><use transform="matrix(0.05,0,0,0.05,48.95,0)" xlink:href="#ae"/><use transform="matrix(0.05,0,0,0.05,63.900000000000006,0)" xlink:href="#aa"/><use transform="matrix(0.05,0,0,0.05,73.9,0)" xlink:href="#X"/><use transform="matrix(0.05,0,0,0.05,83.9,0)" xlink:href="#ac"/></g><path fill="#333" d="M212-179c-10-28-35-45-73-45-59 0-87 40-87 99 0 60 29 101 89 101 43 0 62-24 78-52l27 14C228-24 195 4 139 4 59 4 22-46 18-125c-6-104 99-153 187-111 19 9 31 26 39 46" id="aN"/><path fill="#333" d="M160-131c35 5 61 23 61 61C221 17 115-2 30 0v-248c76 3 177-17 177 60 0 33-19 50-47 57zm-97-11c50-1 110 9 110-42 0-47-63-36-110-37v79zm0 115c55-2 124 14 124-45 0-56-70-42-124-44v89" id="aO"/><g id="F"><use transform="matrix(0.05,0,0,0.05,0,0)" xlink:href="#aN"/><use transform="matrix(0.05,0,0,0.05,12.950000000000001,0)" xlink:href="#ax"/><use transform="matrix(0.05,0,0,0.05,16.900000000000002,0)" xlink:href="#al"/><use transform="matrix(0.05,0,0,0.05,26.900000000000002,0)" xlink:href="#ai"/><use transform="matrix(0.05,0,0,0.05,35.900000000000006,0)" xlink:href="#ai"/><use transform="matrix(0.05,0,0,0.05,44.900000000000006,0)" xlink:href="#U"/><use transform="matrix(0.05,0,0,0.05,48.85000000000001,0)" xlink:href="#ap"/><use transform="matrix(0.05,0,0,0.05,57.85,0)" xlink:href="#ae"/><use transform="matrix(0.05,0,0,0.05,72.80000000000001,0)" xlink:href="#aa"/><use transform="matrix(0.05,0,0,0.05,82.80000000000001,0)" xlink:href="#X"/><use transform="matrix(0.05,0,0,0.05,92.80000000000001,0)" xlink:href="#ac"/><use transform="matrix(0.05,0,0,0.05,102.80000000000001,0)" xlink:href="#aO"/><use transform="matrix(0.05,0,0,0.05,114.80000000000001,0)" xlink:href="#aw"/><use transform="matrix(0.05,0,0,0.05,124.80000000000001,0)" xlink:href="#U"/><use transform="matrix(0.05,0,0,0.05,128.75,0)" xlink:href="#ax"/><use transform="matrix(0.05,0,0,0.05,132.7,0)" xlink:href="#X"/><use transform="matrix(0.05,0,0,0.05,142.7,0)" xlink:href="#ac"/><use transform="matrix(0.05,0,0,0.05,152.7,0)" xlink:href="#ad"/></g><g id="G"><use transform="matrix(0.05,0,0,0.05,0,0)" xlink:href="#W"/><use transform="matrix(0.05,0,0,0.05,5.95,0)" xlink:href="#ad"/><use transform="matrix(0.05,0,0,0.05,11.9,0)" xlink:href="#ac"/><use transform="matrix(0.05,0,0,0.05,21.9,0)" xlink:href="#ai"/><use transform="matrix(0.05,0,0,0.05,30.899999999999995,0)" xlink:href="#aw"/><use transform="matrix(0.05,0,0,0.05,40.9,0)" xlink:href="#ax"/><use transform="matrix(0.05,0,0,0.05,44.85,0)" xlink:href="#V"/><use transform="matrix(0.05,0,0,0.05,49.85,0)" xlink:href="#Y"/></g><g id="H"><use transform="matrix(0.05,0,0,0.05,0,0)" xlink:href="#aC"/><use transform="matrix(0.05,0,0,0.05,14,0)" xlink:href="#al"/><use transform="matrix(0.05,0,0,0.05,24,0)" xlink:href="#Z"/><use transform="matrix(0.05,0,0,0.05,38.95,0)" xlink:href="#ac"/><use transform="matrix(0.05,0,0,0.05,48.95,0)" xlink:href="#ae"/><use transform="matrix(0.05,0,0,0.05,63.900000000000006,0)" xlink:href="#aa"/><use transform="matrix(0.05,0,0,0.05,73.9,0)" xlink:href="#X"/><use transform="matrix(0.05,0,0,0.05,83.9,0)" xlink:href="#ac"/></g><g id="I"><use transform="matrix(0.05,0,0,0.05,0,0)" xlink:href="#af"/><use transform="matrix(0.05,0,0,0.05,10.5,0)" xlink:href="#az"/><use transform="matrix(0.05,0,0,0.05,20.5,0)" xlink:href="#ac"/><use transform="matrix(0.05,0,0,0.05,30.5,0)" xlink:href="#V"/><use transform="matrix(0.05,0,0,0.05,35.5,0)" xlink:href="#aM"/><use transform="matrix(0.05,0,0,0.05,48.45,0)" xlink:href="#ac"/><use transform="matrix(0.05,0,0,0.05,58.45,0)" xlink:href="#ai"/><use transform="matrix(0.05,0,0,0.05,67.45,0)" xlink:href="#aw"/><use transform="matrix(0.05,0,0,0.05,77.45,0)" xlink:href="#ax"/><use transform="matrix(0.05,0,0,0.05,81.4,0)" xlink:href="#V"/><use transform="matrix(0.05,0,0,0.05,86.4,0)" xlink:href="#aj"/><use transform="matrix(0.05,0,0,0.05,92.35000000000001,0)" xlink:href="#an"/><use transform="matrix(0.05,0,0,0.05,98.30000000000001,0)" xlink:href="#Y"/></g><path fill="#333" d="M205 0l-28-72H64L36 0H1l101-248h38L239 0h-34zm-38-99l-47-123c-12 45-31 82-46 123h93" id="aP"/><g id="J"><use transform="matrix(0.05,0,0,0.05,0,0)" xlink:href="#aP"/><use transform="matrix(0.05,0,0,0.05,12,0)" xlink:href="#X"/><use transform="matrix(0.05,0,0,0.05,22,0)" xlink:href="#ab"/><use transform="matrix(0.05,0,0,0.05,31,0)" xlink:href="#al"/><use transform="matrix(0.05,0,0,0.05,41,0)" xlink:href="#T"/><use transform="matrix(0.05,0,0,0.05,51,0)" xlink:href="#ap"/><use transform="matrix(0.05,0,0,0.05,60,0)" xlink:href="#ac"/><use transform="matrix(0.05,0,0,0.05,70,0)" xlink:href="#X"/><use transform="matrix(0.05,0,0,0.05,80,0)" xlink:href="#ae"/><use transform="matrix(0.05,0,0,0.05,94.95,0)" xlink:href="#aa"/><use transform="matrix(0.05,0,0,0.05,104.95,0)" xlink:href="#X"/><use transform="matrix(0.05,0,0,0.05,114.95,0)" xlink:href="#ac"/><use transform="matrix(0.05,0,0,0.05,124.95,0)" xlink:href="#aO"/><use transform="matrix(0.05,0,0,0.05,136.95,0)" xlink:href="#aw"/><use transform="matrix(0.05,0,0,0.05,146.95,0)" xlink:href="#U"/><use transform="matrix(0.05,0,0,0.05,150.89999999999998,0)" xlink:href="#ax"/><use transform="matrix(0.05,0,0,0.05,154.84999999999997,0)" xlink:href="#X"/><use transform="matrix(0.05,0,0,0.05,164.84999999999997,0)" xlink:href="#ac"/><use transform="matrix(0.05,0,0,0.05,174.84999999999997,0)" xlink:href="#ad"/></g><g id="K"><use transform="matrix(0.05,0,0,0.05,0,0)" xlink:href="#aP"/><use transform="matrix(0.05,0,0,0.05,12,0)" xlink:href="#ax"/><use transform="matrix(0.05,0,0,0.05,15.949999999999998,0)" xlink:href="#ax"/><use transform="matrix(0.05,0,0,0.05,19.9,0)" xlink:href="#S"/><use transform="matrix(0.05,0,0,0.05,32.85,0)" xlink:href="#T"/><use transform="matrix(0.05,0,0,0.05,42.85,0)" xlink:href="#U"/><use transform="matrix(0.05,0,0,0.05,46.800000000000004,0)" xlink:href="#V"/><use transform="matrix(0.05,0,0,0.05,51.800000000000004,0)" xlink:href="#ai"/><use transform="matrix(0.05,0,0,0.05,60.800000000000004,0)" xlink:href="#ae"/><use transform="matrix(0.05,0,0,0.05,75.75,0)" xlink:href="#aa"/><use transform="matrix(0.05,0,0,0.05,85.75,0)" xlink:href="#X"/><use transform="matrix(0.05,0,0,0.05,95.75,0)" xlink:href="#ac"/><use transform="matrix(0.05,0,0,0.05,105.75,0)" xlink:href="#aO"/><use transform="matrix(0.05,0,0,0.05,117.75,0)" xlink:href="#aw"/><use transform="matrix(0.05,0,0,0.05,127.75,0)" xlink:href="#U"/><use transform="matrix(0.05,0,0,0.05,131.7,0)" xlink:href="#ax"/><use transform="matrix(0.05,0,0,0.05,135.64999999999998,0)" xlink:href="#X"/><use transform="matrix(0.05,0,0,0.05,145.64999999999998,0)" xlink:href="#ac"/><use transform="matrix(0.05,0,0,0.05,155.64999999999998,0)" xlink:href="#ad"/></g><path fill="#333" d="M145-31C134-9 116 4 85 4 32 4 16-35 15-94c0-59 17-99 70-100 32-1 48 14 60 33 0-11-1-24 2-32h30l-1 268h-32zM93-21c41 0 51-33 51-76s-8-73-50-73c-40 0-46 35-46 75s5 74 45 74" id="aQ"/><g id="L"><use transform="matrix(0.05,0,0,0.05,0,0)" xlink:href="#aA"/><use transform="matrix(0.05,0,0,0.05,12,0)" xlink:href="#aQ"/><use transform="matrix(0.05,0,0,0.05,22,0)" xlink:href="#aw"/><use transform="matrix(0.05,0,0,0.05,32,0)" xlink:href="#al"/><use transform="matrix(0.05,0,0,0.05,42,0)" xlink:href="#ad"/><use transform="matrix(0.05,0,0,0.05,47.95,0)" xlink:href="#ac"/><use transform="matrix(0.05,0,0,0.05,57.95,0)" xlink:href="#aO"/><use transform="matrix(0.05,0,0,0.05,69.95,0)" xlink:href="#aw"/><use transform="matrix(0.05,0,0,0.05,79.95,0)" xlink:href="#U"/><use transform="matrix(0.05,0,0,0.05,83.9,0)" xlink:href="#ax"/><use transform="matrix(0.05,0,0,0.05,87.85000000000001,0)" xlink:href="#X"/><use transform="matrix(0.05,0,0,0.05,97.85000000000001,0)" xlink:href="#ac"/><use transform="matrix(0.05,0,0,0.05,107.85000000000001,0)" xlink:href="#ad"/></g><g id="M"><use transform="matrix(0.05,0,0,0.05,0,0)" xlink:href="#af"/><use transform="matrix(0.05,0,0,0.05,10.5,0)" xlink:href="#ai"/><use transform="matrix(0.05,0,0,0.05,19.5,0)" xlink:href="#ac"/><use transform="matrix(0.05,0,0,0.05,29.5,0)" xlink:href="#V"/><use transform="matrix(0.05,0,0,0.05,34.5,0)" xlink:href="#ao"/><use transform="matrix(0.05,0,0,0.05,44.5,0)" xlink:href="#ah"/><use transform="matrix(0.05,0,0,0.05,54.5,0)" xlink:href="#aa"/><use transform="matrix(0.05,0,0,0.05,64.5,0)" xlink:href="#ai"/><use transform="matrix(0.05,0,0,0.05,73.5,0)" xlink:href="#U"/><use transform="matrix(0.05,0,0,0.05,77.45,0)" xlink:href="#V"/><use transform="matrix(0.05,0,0,0.05,82.45,0)" xlink:href="#U"/><use transform="matrix(0.05,0,0,0.05,86.4,0)" xlink:href="#aa"/><use transform="matrix(0.05,0,0,0.05,96.4,0)" xlink:href="#T"/><use transform="matrix(0.05,0,0,0.05,106.4,0)" xlink:href="#ai"/><use transform="matrix(0.05,0,0,0.05,115.4,0)" xlink:href="#aj"/><use transform="matrix(0.05,0,0,0.05,121.35000000000001,0)" xlink:href="#U"/><use transform="matrix(0.05,0,0,0.05,125.30000000000001,0)" xlink:href="#T"/><use transform="matrix(0.05,0,0,0.05,135.3,0)" xlink:href="#V"/><use transform="matrix(0.05,0,0,0.05,140.3,0)" xlink:href="#am"/></g><g id="N"><use transform="matrix(0.05,0,0,0.05,0,0)" xlink:href="#U"/><use transform="matrix(0.05,0,0,0.05,3.95,0)" xlink:href="#T"/><use transform="matrix(0.05,0,0,0.05,13.949999999999998,0)" xlink:href="#V"/><use transform="matrix(0.05,0,0,0.05,18.95,0)" xlink:href="#an"/></g><path fill="#333" d="M26 75v-336h71v23H56V52h41v23H26" id="aR"/><g id="O"><use transform="matrix(0.05,0,0,0.05,0,0)" xlink:href="#af"/><use transform="matrix(0.05,0,0,0.05,10.5,0)" xlink:href="#ah"/><use transform="matrix(0.05,0,0,0.05,20.5,0)" xlink:href="#aw"/><use transform="matrix(0.05,0,0,0.05,30.5,0)" xlink:href="#V"/><use transform="matrix(0.05,0,0,0.05,35.5,0)" xlink:href="#ao"/><use transform="matrix(0.05,0,0,0.05,45.5,0)" xlink:href="#aw"/><use transform="matrix(0.05,0,0,0.05,55.5,0)" xlink:href="#T"/><use transform="matrix(0.05,0,0,0.05,65.5,0)" xlink:href="#U"/><use transform="matrix(0.05,0,0,0.05,69.45,0)" xlink:href="#V"/><use transform="matrix(0.05,0,0,0.05,74.45,0)" xlink:href="#ai"/><use transform="matrix(0.05,0,0,0.05,83.45,0)" xlink:href="#aj"/><use transform="matrix(0.05,0,0,0.05,89.4,0)" xlink:href="#aR"/><use transform="matrix(0.05,0,0,0.05,94.4,0)" xlink:href="#S"/><use transform="matrix(0.05,0,0,0.05,107.35000000000001,0)" xlink:href="#T"/><use transform="matrix(0.05,0,0,0.05,117.35000000000001,0)" xlink:href="#U"/><use transform="matrix(0.05,0,0,0.05,121.30000000000001,0)" xlink:href="#V"/><use transform="matrix(0.05,0,0,0.05,126.30000000000001,0)" xlink:href="#am"/></g><path fill="#333" d="M33 0v-38h34V0H33" id="aS"/><path fill="#333" d="M3 75V52h41v-290H3v-23h71V75H3" id="aT"/><g id="P"><use transform="matrix(0.05,0,0,0.05,0,0)" xlink:href="#S"/><use transform="matrix(0.05,0,0,0.05,12.950000000000001,0)" xlink:href="#T"/><use transform="matrix(0.05,0,0,0.05,22.950000000000003,0)" xlink:href="#U"/><use transform="matrix(0.05,0,0,0.05,26.900000000000002,0)" xlink:href="#V"/><use transform="matrix(0.05,0,0,0.05,31.900000000000002,0)" xlink:href="#aS"/><use transform="matrix(0.05,0,0,0.05,36.900000000000006,0)" xlink:href="#aS"/><use transform="matrix(0.05,0,0,0.05,41.900000000000006,0)" xlink:href="#aS"/><use transform="matrix(0.05,0,0,0.05,46.900000000000006,0)" xlink:href="#aT"/><use transform="matrix(0.05,0,0,0.05,51.900000000000006,0)" xlink:href="#an"/></g><g id="R"><use transform="matrix(0.05,0,0,0.05,0,0)" xlink:href="#ai"/><use transform="matrix(0.05,0,0,0.05,9,0)" xlink:href="#ac"/><use transform="matrix(0.05,0,0,0.05,19,0)" xlink:href="#V"/><use transform="matrix(0.05,0,0,0.05,24,0)" xlink:href="#ao"/><use transform="matrix(0.05,0,0,0.05,34,0)" xlink:href="#al"/><use transform="matrix(0.05,0,0,0.05,44,0)" xlink:href="#ad"/><use transform="matrix(0.05,0,0,0.05,49.95,0)" xlink:href="#ad"/><use transform="matrix(0.05,0,0,0.05,55.900000000000006,0)" xlink:href="#al"/><use transform="matrix(0.05,0,0,0.05,65.9,0)" xlink:href="#T"/><use transform="matrix(0.05,0,0,0.05,75.9,0)" xlink:href="#az"/><use transform="matrix(0.05,0,0,0.05,85.9,0)" xlink:href="#ac"/><use transform="matrix(0.05,0,0,0.05,95.9,0)" xlink:href="#Z"/><use transform="matrix(0.05,0,0,0.05,110.85000000000001,0)" xlink:href="#ac"/><use transform="matrix(0.05,0,0,0.05,120.85000000000001,0)" xlink:href="#T"/><use transform="matrix(0.05,0,0,0.05,130.85000000000002,0)" xlink:href="#V"/><use transform="matrix(0.05,0,0,0.05,135.85000000000002,0)" xlink:href="#aj"/><use transform="matrix(0.05,0,0,0.05,141.8,0)" xlink:href="#an"/></g></defs></g></svg>