<svg xmlns="http://www.w3.org/2000/svg" xmlns:xlink="http://www.w3.org/1999/xlink" xmlns:lucid="lucid" width="1760" height="1360"><g transform="translate(0 0)" lucid:page-tab-id="HWEp-vi-RSFO"><path d="M0 0h1760v1360H0z" fill="#fff"/><path d="M620 160h360v285H620z" stroke="#333" stroke-width="2" fill="#fff"/><path d="M620 197.6h360M620 386.3h360" stroke="#333" stroke-width="2" fill="none"/><use xlink:href="#a" transform="matrix(1,0,0,1,628,168) translate(148.025 14.6)"/><use xlink:href="#b" transform="matrix(1,0,0,1,632,205.6) translate(98.4 25.300000000000004)"/><use xlink:href="#c" transform="matrix(1,0,0,1,632,205.6) translate(61.72500000000002 46.900000000000006)"/><use xlink:href="#d" transform="matrix(1,0,0,1,632,205.6) translate(218.875 46.900000000000006)"/><use xlink:href="#e" transform="matrix(1,0,0,1,632,205.6) translate(240.325 46.900000000000006)"/><use xlink:href="#f" transform="matrix(1,0,0,1,632,205.6) translate(71.60000000000002 68.50000000000001)"/><use xlink:href="#g" transform="matrix(1,0,0,1,632,205.6) translate(103.05 90.10000000000002)"/><use xlink:href="#h" transform="matrix(1,0,0,1,632,205.6) translate(88.92500000000001 111.70000000000002)"/><use xlink:href="#i" transform="matrix(1,0,0,1,632,205.6) translate(56.92499999999998 133.3)"/><use xlink:href="#j" transform="matrix(1,0,0,1,632,205.6) translate(201.225 133.3)"/><use xlink:href="#k" transform="matrix(1,0,0,1,632,205.6) translate(97.4 154.9)"/><path d="M180 181.5h360v242H180z" stroke="#333" stroke-width="2" fill="#fff"/><path d="M180 219.1h360M180 332.3h360" stroke="#333" stroke-width="2" fill="none"/><use xlink:href="#l" transform="matrix(1,0,0,1,187.9999999999999,189.5) translate(147.525 14.6)"/><use xlink:href="#m" transform="matrix(1,0,0,1,191.9999999999999,227.1) translate(103.4 41.8)"/><use xlink:href="#i" transform="matrix(1,0,0,1,191.9999999999999,227.1) translate(55.92499999999998 63.4)"/><use xlink:href="#n" transform="matrix(1,0,0,1,191.9999999999999,227.1) translate(200.225 63.4)"/><use xlink:href="#o" transform="matrix(1,0,0,1,191.9999999999999,340.3) translate(89.8 41.6)"/><use xlink:href="#p" transform="matrix(1,0,0,1,191.9999999999999,340.3) translate(198.25 41.6)"/><path d="M60 859h200v221H60z" stroke="#333" stroke-width="2" fill="#fff"/><path d="M60 896.6h200M60 1020.5h200" stroke="#333" stroke-width="2" fill="none"/><use xlink:href="#q" transform="matrix(1,0,0,1,68,867) translate(52.025 14.6)"/><use xlink:href="#r" transform="matrix(1,0,0,1,72,904.6) translate(16.799999999999997 25.19999999999999)"/><use xlink:href="#s" transform="matrix(1,0,0,1,72,904.6) translate(39.275 46.79999999999999)"/><use xlink:href="#t" transform="matrix(1,0,0,1,72,904.6) translate(57.349999999999994 68.39999999999999)"/><use xlink:href="#u" transform="matrix(1,0,0,1,72,904.6) translate(27.824999999999996 90)"/><path d="M780 940h200v134H780z" stroke="#333" stroke-width="2" fill="#fff"/><path d="M780 977.6h200m-200 59.2h200" stroke="#333" stroke-width="2" fill="none"/><use xlink:href="#v" transform="matrix(1,0,0,1,788,948) translate(64.025 14.6)"/><use xlink:href="#t" transform="matrix(1,0,0,1,792,985.6) translate(57.349999999999994 14.799999999999999)"/><use xlink:href="#u" transform="matrix(1,0,0,1,792,985.6) translate(27.824999999999996 36.4)"/><path d="M300 870h200v199H300z" stroke="#333" stroke-width="2" fill="#fff"/><path d="M300 907.6h200m-200 102.3h200" stroke="#333" stroke-width="2" fill="none"/><use xlink:href="#w" transform="matrix(1,0,0,1,307.99999999999994,878) translate(53.525 14.6)"/><use xlink:href="#x" transform="matrix(1,0,0,1,311.99999999999994,915.6) translate(51 25.5)"/><use xlink:href="#t" transform="matrix(1,0,0,1,311.99999999999994,915.6) translate(57.349999999999994 47.1)"/><use xlink:href="#u" transform="matrix(1,0,0,1,311.99999999999994,915.6) translate(27.824999999999996 68.7)"/><path d="M540 870h200v199H540z" stroke="#333" stroke-width="2" fill="#fff"/><path d="M540 907.6h200m-200 102.3h200" stroke="#333" stroke-width="2" fill="none"/><use xlink:href="#y" transform="matrix(1,0,0,1,547.9999999999999,878) translate(46.525 14.6)"/><use xlink:href="#x" transform="matrix(1,0,0,1,551.9999999999999,915.6) translate(51 25.5)"/><use xlink:href="#t" transform="matrix(1,0,0,1,551.9999999999999,915.6) translate(57.349999999999994 47.1)"/><use xlink:href="#u" transform="matrix(1,0,0,1,551.9999999999999,915.6) translate(27.824999999999996 68.7)"/><path d="M240 610h240v140H240z" stroke="#333" stroke-width="2" fill="#fff"/><path d="M240 669.2h240" stroke="#333" stroke-width="2" fill="none"/><use xlink:href="#z" transform="matrix(1,0,0,1,248,618) translate(53.574999999999996 14.799999999999999)"/><use xlink:href="#A" transform="matrix(1,0,0,1,248,618) translate(78.57499999999999 36.4)"/><use xlink:href="#u" transform="matrix(1,0,0,1,252,677.2) translate(47.824999999999996 36.1)"/><path d="M400 1160h240v140H400z" stroke="#333" stroke-width="2" fill="#fff"/><path d="M400 1219.2h240" stroke="#333" stroke-width="2" fill="none"/><use xlink:href="#z" transform="matrix(1,0,0,1,408,1168) translate(53.574999999999996 14.799999999999999)"/><use xlink:href="#B" transform="matrix(1,0,0,1,408,1168) translate(72.05 36.4)"/><use xlink:href="#C" transform="matrix(1,0,0,1,412,1227.2) translate(55.349999999999994 36.1)"/><path d="M160 857.5v-4.56m0-4.55v-9.12m0-4.56v-9.1m0-4.56v-4.56l.4-3.1 1.2-2.9m4.4-4.4l2.9-1.2 3.1-.4h4.9m4.88 0h9.78m4.88 0h9.78m4.9 0h9.77m4.88 0h9.78m4.88 0h9.78m4.9 0h9.77m4.88 0h9.78m4.88 0h9.78m4.9 0h9.77m4.88 0h9.78m4.88 0h9.78m4.9 0H348l3.1-.4 2.9-1.2m4.4-4.4l1.2-2.9.4-3.1v-6.17m0-6.16V774" stroke="#333" fill="none"/><path d="M160.5 858h-1v-.5h1z" fill="#333"/><path d="M360 751.98l12.73 21.52h-25.46z" stroke="#333" fill="#fff"/><path d="M400 868.5v-5.17m0-5.16v-10.34m0-5.16v-10.34m0-5.16V822l-.4-3.1-1.2-2.9m-4.4-4.4l-2.9-1.2-3.1-.4h-5.33m-5.34 0H372l-3.1-.4-2.9-1.2m-4.4-4.4l-1.2-2.9-.4-3.1v-4m0-4v-8m0-4v-4" stroke="#333" fill="none"/><path d="M400.5 869h-1v-.5h1z" fill="#333"/><path d="M360 751.98l12.73 21.52h-25.46z" stroke="#333" fill="#fff"/><path d="M640 868.5v-5.17m0-5.16v-10.34m0-5.16v-10.34m0-5.16V822l-.4-3.1-1.2-2.9m-4.4-4.4l-2.9-1.2-3.1-.4h-5.02m-5.02 0h-10.04m-5.02 0h-10.04m-5.02 0H577.8m-5.02 0h-10.03m-5.02 0H547.7m-5.03 0h-10.04m-5.02 0h-10.03m-5.02 0H502.5m-5 0h-10.05m-5.02 0H472.4m-5.03 0h-10.04m-5.02 0h-10.03m-5.02 0h-10.03m-5.02 0h-10.04m-5.02 0H397.1m-5.02 0h-10.04m-5.02 0H372l-3.1-.4-2.9-1.2m-4.4-4.4l-1.2-2.9-.4-3.1v-4m0-4v-8m0-4v-4" stroke="#333" fill="none"/><path d="M640.5 869h-1v-.5h1z" fill="#333"/><path d="M360 751.98l12.73 21.52h-25.46z" stroke="#333" fill="#fff"/><path d="M160 1081.5v4.42m0 4.4v8.85m0 4.4v4.43l.4 3.1 1.2 2.9m4.4 4.4l2.9 1.2 3.1.4h5.1m5.08 0h10.18m5.1 0h10.18m5.1 0h10.17m5.1 0h10.18m5.1 0h10.17m5.1 0h10.18m5.1 0H284m5.1 0h10.17m5.1 0h10.18m5.1 0h10.17m5.1 0h10.17m5.08 0h10.18m5.1 0h10.18m5.1 0h10.17m5.1 0h10.18m5.1 0h10.17m5.1 0h10.18m5.1 0H452m5.1 0h10.17m5.1 0h10.18m5.1 0h10.17m5.1 0H508l3.1.4 2.9 1.2m4.4 4.4l1.2 2.9.4 3.1v3.54m0 3.54v3.54" stroke="#333" fill="none"/><path d="M160.5 1081.5h-1v-.5h1z" fill="#333"/><path d="M520 1157.38l-4.64-14.26h9.28z" stroke="#333" fill="#fff"/><path d="M400 1070.5v5.33m0 5.34v10.66m0 5.34v5.33l.4 3.1 1.2 2.9m4.4 4.4l2.9 1.2 3.1.4h5.33m5.34 0h10.66m5.34 0h10.66m5.34 0h10.66m5.34 0h10.66m5.34 0h10.66m5.34 0H508l3.1.4 2.9 1.2m4.4 4.4l1.2 2.9.4 3.1v9.5" stroke="#333" fill="none"/><path d="M400.5 1070.5h-1v-.5h1z" fill="#333"/><path d="M520 1158.02l-12.73-21.52h25.46z" stroke="#333" fill="#fff"/><path d="M640 1070.5v5.33m0 5.34v10.66m0 5.34v5.33l-.4 3.1-1.2 2.9m-4.4 4.4l-2.9 1.2-3.1.4h-5.33m-5.34 0h-10.66m-5.34 0h-10.66m-5.34 0h-10.66m-5.34 0h-10.66m-5.34 0h-10.66m-5.34 0H532l-3.1.4-2.9 1.2m-4.4 4.4l-1.2 2.9-.4 3.1v9.5" stroke="#333" fill="none"/><path d="M640.5 1070.5h-1v-.5h1z" fill="#333"/><path d="M520 1158.02l-12.73-21.52h25.46z" stroke="#333" fill="#fff"/><path d="M880 1075.5v4.92m0 4.9v9.85m0 4.9v4.93l-.4 3.1-1.2 2.9m-4.4 4.4l-2.9 1.2-3.1.4h-5.1m-5.08 0h-10.18m-5.1 0h-10.18m-5.1 0H817.1m-5.1 0h-10.18m-5.1 0h-10.17m-5.1 0h-10.18m-5.1 0H756m-5.1 0h-10.17m-5.1 0h-10.18m-5.1 0H710.2m-5.1 0h-10.17m-5.08 0h-10.18m-5.1 0h-10.18m-5.1 0H649.1m-5.1 0h-10.18m-5.1 0h-10.17m-5.1 0h-10.18m-5.1 0H588m-5.1 0h-10.17m-5.1 0h-10.18m-5.1 0H542.2m-5.1 0H532l-3.1.4-2.9 1.2m-4.4 4.4l-1.2 2.9-.4 3.1v7" stroke="#333" fill="none"/><path d="M880.5 1075.5h-1v-.5h1z" fill="#333"/><path d="M520 1158.02l-12.73-21.52h25.46z" stroke="#333" fill="#fff"/><path d="M1040 180h360v177h-360z" stroke="#333" stroke-width="2" fill="#fff"/><path d="M1040 217.6h360m-360 69.6h360" stroke="#333" stroke-width="2" fill="none"/><g><use xlink:href="#D" transform="matrix(1,0,0,1,1048,188) translate(132.55 14.6)"/></g><g><use xlink:href="#E" transform="matrix(1,0,0,1,1052,225.6) translate(98.325 30.6)"/></g><g><use xlink:href="#F" transform="matrix(1,0,0,1,1052,295.2) translate(105.32499999999999 30.6)"/><use xlink:href="#G" transform="matrix(1,0,0,1,1052,295.2) translate(213.675 30.6)"/></g><path d="M1500 208h160v121h-160z" stroke="#333" stroke-width="2" fill="#fff"/><g><use xlink:href="#H" transform="matrix(1,0,0,1,1508,216) translate(63.5 56.1)"/></g><path d="M1500 400h136l24 24v96h-160z" stroke="#333" stroke-width="2" fill="#fff"/><path d="M1636 400.95V424h23.05" stroke="#333" stroke-width="2" fill="#fff"/><g><use xlink:href="#I" transform="matrix(1,0,0,1,1505,405) translate(48.025 26.19999999999999)"/><use xlink:href="#J" transform="matrix(1,0,0,1,1505,405) translate(5.349999999999994 47.79999999999999)"/><use xlink:href="#K" transform="matrix(1,0,0,1,1505,405) translate(24.799999999999997 69.39999999999999)"/><use xlink:href="#L" transform="matrix(1,0,0,1,1505,405) translate(48.099999999999994 69.39999999999999)"/><use xlink:href="#M" transform="matrix(1,0,0,1,1505,405) translate(105.5 69.39999999999999)"/><use xlink:href="#N" transform="matrix(1,0,0,1,1505,405) translate(46.675 91)"/></g><path d="M1580 398.5v-4.53m0-4.54v-9.06m0-4.54v-9.06m0-4.54v-9.06m0-4.54v-9.06m0-4.54v-4.53" stroke="#333" fill="none"/><path d="M1580.5 399h-1v-.5h1zM1580.5 330.5h-1v-.5h1z" fill="#333"/><path d="M1498.5 268.5h-67.13" stroke="#333" fill="none"/><path d="M1499 269h-.5v-1h.5z" fill="#333"/><path d="M1401.7 268.5l14.86-14.85 15.15 14.85-15.14 14.85z" stroke="#333" fill="#fff"/><path d="M1020 559h360v242h-360z" stroke="#333" stroke-width="2" fill="#fff"/><path d="M1020 596.6h360m-360 59.1h360" stroke="#333" stroke-width="2" fill="none"/><g><use xlink:href="#O" transform="matrix(1,0,0,1,1028,567) translate(124.6 14.6)"/></g><g><use xlink:href="#P" transform="matrix(1,0,0,1,1032,663.7) translate(78.625 25.39999999999999)"/><use xlink:href="#Q" transform="matrix(1,0,0,1,1032,663.7) translate(163.475 25.39999999999999)"/><use xlink:href="#R" transform="matrix(1,0,0,1,1032,663.7) translate(114.82499999999999 46.99999999999999)"/><use xlink:href="#S" transform="matrix(1,0,0,1,1032,663.7) translate(202.225 46.99999999999999)"/><use xlink:href="#T" transform="matrix(1,0,0,1,1032,663.7) translate(111.82499999999999 68.6)"/><use xlink:href="#U" transform="matrix(1,0,0,1,1032,663.7) translate(130.275 90.20000000000002)"/><use xlink:href="#V" transform="matrix(1,0,0,1,1032,663.7) translate(111.32499999999999 111.80000000000001)"/><use xlink:href="#W" transform="matrix(1,0,0,1,1032,663.7) translate(145.77499999999998 111.80000000000001)"/></g><defs><path fill="#333" d="M160-131c35 5 61 23 61 61C221 17 115-2 30 0v-248c76 3 177-17 177 60 0 33-19 50-47 57zm-97-11c50-1 110 9 110-42 0-47-63-36-110-37v79zm0 115c55-2 124 14 124-45 0-56-70-42-124-44v89" id="X"/><path fill="#333" d="M100-194c62-1 85 37 85 99 1 63-27 99-86 99S16-35 15-95c0-66 28-99 85-99zM99-20c44 1 53-31 53-75 0-43-8-75-51-75s-53 32-53 75 10 74 51 75" id="Y"/><path fill="#333" d="M141-36C126-15 110 5 73 4 37 3 15-17 15-53c-1-64 63-63 125-63 3-35-9-54-41-54-24 1-41 7-42 31l-33-3c5-37 33-52 76-52 45 0 72 20 72 64v82c-1 20 7 32 28 27v20c-31 9-61-2-59-35zM48-53c0 20 12 33 32 33 41-3 63-29 60-74-43 2-92-5-92 41" id="Z"/><path fill="#333" d="M114-163C36-179 61-72 57 0H25l-1-190h30c1 12-1 29 2 39 6-27 23-49 58-41v29" id="aa"/><path fill="#333" d="M85-194c31 0 48 13 60 33l-1-100h32l1 261h-30c-2-10 0-23-3-31C134-8 116 4 85 4 32 4 16-35 15-94c0-66 23-100 70-100zm9 24c-40 0-46 34-46 75 0 40 6 74 45 74 42 0 51-32 51-76 0-42-9-74-50-73" id="ab"/><g id="a"><use transform="matrix(0.05,0,0,0.05,0,0)" xlink:href="#X"/><use transform="matrix(0.05,0,0,0.05,12,0)" xlink:href="#Y"/><use transform="matrix(0.05,0,0,0.05,22,0)" xlink:href="#Z"/><use transform="matrix(0.05,0,0,0.05,32,0)" xlink:href="#aa"/><use transform="matrix(0.05,0,0,0.05,37.95,0)" xlink:href="#ab"/></g><path fill="#333" d="M118-107v75H92v-75H18v-26h74v-75h26v75h74v26h-74" id="ac"/><path fill="#333" d="M24-231v-30h32v30H24zM24 0v-190h32V0H24" id="ad"/><path fill="#333" d="M117-194c89-4 53 116 60 194h-32v-121c0-31-8-49-39-48C34-167 62-67 57 0H25l-1-190h30c1 10-1 24 2 32 11-22 29-35 61-36" id="ae"/><path fill="#333" d="M59-47c-2 24 18 29 38 22v24C64 9 27 4 27-40v-127H5v-23h24l9-43h21v43h35v23H59v120" id="af"/><path fill="#333" d="M87 75C49 33 22-17 22-94c0-76 28-126 65-167h31c-38 41-64 92-64 168S80 34 118 75H87" id="ag"/><path fill="#333" d="M143 4C61 4 22-44 18-125c-5-107 100-154 193-111 17 8 29 25 37 43l-32 9c-13-25-37-40-76-40-61 0-88 39-88 99 0 61 29 100 91 101 35 0 62-11 79-27v-45h-74v-28h105v86C228-13 192 4 143 4" id="ah"/><path fill="#333" d="M210-169c-67 3-38 105-44 169h-31v-121c0-29-5-50-35-48C34-165 62-65 56 0H25l-1-190h30c1 10-1 24 2 32 10-44 99-50 107 0 11-21 27-35 58-36 85-2 47 119 55 194h-31v-121c0-29-5-49-35-48" id="ai"/><path fill="#333" d="M100-194c63 0 86 42 84 106H49c0 40 14 67 53 68 26 1 43-12 49-29l28 8c-11 28-37 45-77 45C44 4 14-33 15-96c1-61 26-98 85-98zm52 81c6-60-76-77-97-28-3 7-6 17-6 28h103" id="aj"/><path fill="#333" d="M33-261c38 41 65 92 65 168S71 34 33 75H2C39 34 66-17 66-93S39-220 2-261h31" id="ak"/><g id="b"><use transform="matrix(0.05,0,0,0.05,0,0)" xlink:href="#ac"/><use transform="matrix(0.05,0,0,0.05,10.5,0)" xlink:href="#ad"/><use transform="matrix(0.05,0,0,0.05,14.449999999999998,0)" xlink:href="#ae"/><use transform="matrix(0.05,0,0,0.05,24.45,0)" xlink:href="#ad"/><use transform="matrix(0.05,0,0,0.05,28.399999999999995,0)" xlink:href="#af"/><use transform="matrix(0.05,0,0,0.05,33.4,0)" xlink:href="#ag"/><use transform="matrix(0.05,0,0,0.05,39.35,0)" xlink:href="#ah"/><use transform="matrix(0.05,0,0,0.05,53.35,0)" xlink:href="#Z"/><use transform="matrix(0.05,0,0,0.05,63.35,0)" xlink:href="#ai"/><use transform="matrix(0.05,0,0,0.05,78.3,0)" xlink:href="#aj"/><use transform="matrix(0.05,0,0,0.05,88.3,0)" xlink:href="#ai"/><use transform="matrix(0.05,0,0,0.05,103.25,0)" xlink:href="#Y"/><use transform="matrix(0.05,0,0,0.05,113.25,0)" xlink:href="#ab"/><use transform="matrix(0.05,0,0,0.05,123.25,0)" xlink:href="#aj"/><use transform="matrix(0.05,0,0,0.05,133.25,0)" xlink:href="#ak"/></g><path fill="#333" d="M135-143c-3-34-86-38-87 0 15 53 115 12 119 90S17 21 10-45l28-5c4 36 97 45 98 0-10-56-113-15-118-90-4-57 82-63 122-42 12 7 21 19 24 35" id="al"/><path fill="#333" d="M63-220v92h138v28H63V0H30v-248h175v28H63" id="am"/><path fill="#333" d="M106-169C34-169 62-67 57 0H25v-261h32l-1 103c12-21 28-36 61-36 89 0 53 116 60 194h-32v-121c2-32-8-49-39-48" id="an"/><g id="c"><use transform="matrix(0.05,0,0,0.05,0,0)" xlink:href="#ac"/><use transform="matrix(0.05,0,0,0.05,10.5,0)" xlink:href="#ad"/><use transform="matrix(0.05,0,0,0.05,14.449999999999998,0)" xlink:href="#al"/><use transform="matrix(0.05,0,0,0.05,23.45,0)" xlink:href="#ah"/><use transform="matrix(0.05,0,0,0.05,37.45,0)" xlink:href="#Z"/><use transform="matrix(0.05,0,0,0.05,47.45,0)" xlink:href="#ai"/><use transform="matrix(0.05,0,0,0.05,62.400000000000006,0)" xlink:href="#aj"/><use transform="matrix(0.05,0,0,0.05,72.4,0)" xlink:href="#am"/><use transform="matrix(0.05,0,0,0.05,83.35000000000001,0)" xlink:href="#ad"/><use transform="matrix(0.05,0,0,0.05,87.30000000000001,0)" xlink:href="#ae"/><use transform="matrix(0.05,0,0,0.05,97.30000000000001,0)" xlink:href="#ad"/><use transform="matrix(0.05,0,0,0.05,101.25000000000001,0)" xlink:href="#al"/><use transform="matrix(0.05,0,0,0.05,110.25,0)" xlink:href="#an"/><use transform="matrix(0.05,0,0,0.05,120.25,0)" xlink:href="#aj"/><use transform="matrix(0.05,0,0,0.05,130.25,0)" xlink:href="#ab"/><use transform="matrix(0.05,0,0,0.05,140.25,0)" xlink:href="#ag"/><use transform="matrix(0.05,0,0,0.05,146.2,0)" xlink:href="#ak"/></g><path fill="#333" d="M16-82v-28h88v28H16" id="ao"/><path fill="#333" d="M18-27v-27l151-64-151-65v-27l175 74v36" id="ap"/><g id="d"><use transform="matrix(0.05,0,0,0.05,0,0)" xlink:href="#ao"/><use transform="matrix(0.05,0,0,0.05,5.95,0)" xlink:href="#ap"/></g><path fill="#333" d="M115-194c53 0 69 39 70 98 0 66-23 100-70 100C84 3 66-7 56-30L54 0H23l1-261h32v101c10-23 28-34 59-34zm-8 174c40 0 45-34 45-75 0-40-5-75-45-74-42 0-51 32-51 76 0 43 10 73 51 73" id="aq"/><path fill="#333" d="M24 0v-261h32V0H24" id="ar"/><g id="e"><use transform="matrix(0.05,0,0,0.05,0,0)" xlink:href="#aq"/><use transform="matrix(0.05,0,0,0.05,10,0)" xlink:href="#Y"/><use transform="matrix(0.05,0,0,0.05,20,0)" xlink:href="#Y"/><use transform="matrix(0.05,0,0,0.05,30,0)" xlink:href="#ar"/></g><path fill="#333" d="M177-190C167-65 218 103 67 71c-23-6-38-20-44-43l32-5c15 47 100 32 89-28v-30C133-14 115 1 83 1 29 1 15-40 15-95c0-56 16-97 71-98 29-1 48 16 59 35 1-10 0-23 2-32h30zM94-22c36 0 50-32 50-73 0-42-14-75-50-75-39 0-46 34-46 75s6 73 46 73" id="as"/><path fill="#333" d="M205 0l-28-72H64L36 0H1l101-248h38L239 0h-34zm-38-99l-47-123c-12 45-31 82-46 123h93" id="at"/><path fill="#333" d="M108 0H70L1-190h34L89-25l56-165h34" id="au"/><path fill="#333" d="M30-248c87 1 191-15 191 75 0 78-77 80-158 76V0H30v-248zm33 125c57 0 124 11 124-50 0-59-68-47-124-48v98" id="av"/><g id="f"><use transform="matrix(0.05,0,0,0.05,0,0)" xlink:href="#ac"/><use transform="matrix(0.05,0,0,0.05,10.5,0)" xlink:href="#as"/><use transform="matrix(0.05,0,0,0.05,20.5,0)" xlink:href="#aj"/><use transform="matrix(0.05,0,0,0.05,30.5,0)" xlink:href="#af"/><use transform="matrix(0.05,0,0,0.05,35.5,0)" xlink:href="#at"/><use transform="matrix(0.05,0,0,0.05,47.15,0)" xlink:href="#au"/><use transform="matrix(0.05,0,0,0.05,56.150000000000006,0)" xlink:href="#Z"/><use transform="matrix(0.05,0,0,0.05,66.15,0)" xlink:href="#ad"/><use transform="matrix(0.05,0,0,0.05,70.10000000000001,0)" xlink:href="#ar"/><use transform="matrix(0.05,0,0,0.05,74.05000000000001,0)" xlink:href="#Z"/><use transform="matrix(0.05,0,0,0.05,84.05000000000001,0)" xlink:href="#aq"/><use transform="matrix(0.05,0,0,0.05,94.05000000000001,0)" xlink:href="#ar"/><use transform="matrix(0.05,0,0,0.05,98.00000000000001,0)" xlink:href="#aj"/><use transform="matrix(0.05,0,0,0.05,108,0)" xlink:href="#av"/><use transform="matrix(0.05,0,0,0.05,120,0)" xlink:href="#Y"/><use transform="matrix(0.05,0,0,0.05,130,0)" xlink:href="#al"/><use transform="matrix(0.05,0,0,0.05,139,0)" xlink:href="#ad"/><use transform="matrix(0.05,0,0,0.05,142.95,0)" xlink:href="#af"/><use transform="matrix(0.05,0,0,0.05,147.95,0)" xlink:href="#ad"/><use transform="matrix(0.05,0,0,0.05,151.89999999999998,0)" xlink:href="#Y"/><use transform="matrix(0.05,0,0,0.05,161.89999999999998,0)" xlink:href="#ae"/><use transform="matrix(0.05,0,0,0.05,171.89999999999998,0)" xlink:href="#al"/><use transform="matrix(0.05,0,0,0.05,180.89999999999998,0)" xlink:href="#ag"/><use transform="matrix(0.05,0,0,0.05,186.84999999999997,0)" xlink:href="#ak"/></g><path fill="#333" d="M-5 72V49h209v23H-5" id="aw"/><path fill="#333" d="M115-194c55 1 70 41 70 98S169 2 115 4C84 4 66-9 55-30l1 105H24l-1-265h31l2 30c10-21 28-34 59-34zm-8 174c40 0 45-34 45-75s-6-73-45-74c-42 0-51 32-51 76 0 43 10 73 51 73" id="ax"/><path fill="#333" d="M96-169c-40 0-48 33-48 73s9 75 48 75c24 0 41-14 43-38l32 2c-6 37-31 61-74 61-59 0-76-41-82-99-10-93 101-131 147-64 4 7 5 14 7 22l-32 3c-4-21-16-35-41-35" id="ay"/><path fill="#333" d="M179-190L93 31C79 59 56 82 12 73V49c39 6 53-20 64-50L1-190h34L92-34l54-156h33" id="az"/><g id="g"><use transform="matrix(0.05,0,0,0.05,0,0)" xlink:href="#aw"/><use transform="matrix(0.05,0,0,0.05,10,0)" xlink:href="#aw"/><use transform="matrix(0.05,0,0,0.05,20,0)" xlink:href="#ab"/><use transform="matrix(0.05,0,0,0.05,30,0)" xlink:href="#aj"/><use transform="matrix(0.05,0,0,0.05,40,0)" xlink:href="#aj"/><use transform="matrix(0.05,0,0,0.05,50,0)" xlink:href="#ax"/><use transform="matrix(0.05,0,0,0.05,60,0)" xlink:href="#ay"/><use transform="matrix(0.05,0,0,0.05,69,0)" xlink:href="#Y"/><use transform="matrix(0.05,0,0,0.05,79,0)" xlink:href="#ax"/><use transform="matrix(0.05,0,0,0.05,89,0)" xlink:href="#az"/><use transform="matrix(0.05,0,0,0.05,98,0)" xlink:href="#aw"/><use transform="matrix(0.05,0,0,0.05,108,0)" xlink:href="#aw"/><use transform="matrix(0.05,0,0,0.05,118,0)" xlink:href="#ag"/><use transform="matrix(0.05,0,0,0.05,123.95,0)" xlink:href="#ak"/></g><path fill="#333" d="M212-179c-10-28-35-45-73-45-59 0-87 40-87 99 0 60 29 101 89 101 43 0 62-24 78-52l27 14C228-24 195 4 139 4 59 4 22-46 18-125c-6-104 99-153 187-111 19 9 31 26 39 46" id="aA"/><path fill="#333" d="M84 4C-5 8 30-112 23-190h32v120c0 31 7 50 39 49 72-2 45-101 50-169h31l1 190h-30c-1-10 1-25-2-33-11 22-28 36-60 37" id="aB"/><g id="h"><use transform="matrix(0.05,0,0,0.05,0,0)" xlink:href="#ac"/><use transform="matrix(0.05,0,0,0.05,10.5,0)" xlink:href="#as"/><use transform="matrix(0.05,0,0,0.05,20.5,0)" xlink:href="#aj"/><use transform="matrix(0.05,0,0,0.05,30.5,0)" xlink:href="#af"/><use transform="matrix(0.05,0,0,0.05,35.5,0)" xlink:href="#aA"/><use transform="matrix(0.05,0,0,0.05,48.45,0)" xlink:href="#aB"/><use transform="matrix(0.05,0,0,0.05,58.45,0)" xlink:href="#aa"/><use transform="matrix(0.05,0,0,0.05,64.4,0)" xlink:href="#aa"/><use transform="matrix(0.05,0,0,0.05,70.35000000000001,0)" xlink:href="#aj"/><use transform="matrix(0.05,0,0,0.05,80.35000000000001,0)" xlink:href="#ae"/><use transform="matrix(0.05,0,0,0.05,90.35000000000001,0)" xlink:href="#af"/><use transform="matrix(0.05,0,0,0.05,95.35000000000001,0)" xlink:href="#av"/><use transform="matrix(0.05,0,0,0.05,107.35000000000001,0)" xlink:href="#ar"/><use transform="matrix(0.05,0,0,0.05,111.30000000000001,0)" xlink:href="#Z"/><use transform="matrix(0.05,0,0,0.05,121.30000000000001,0)" xlink:href="#az"/><use transform="matrix(0.05,0,0,0.05,130.3,0)" xlink:href="#aj"/><use transform="matrix(0.05,0,0,0.05,140.3,0)" xlink:href="#aa"/><use transform="matrix(0.05,0,0,0.05,146.25,0)" xlink:href="#ag"/><use transform="matrix(0.05,0,0,0.05,152.2,0)" xlink:href="#ak"/></g><path fill="#333" d="M27 0v-27h64v-190l-56 39v-29l58-41h29v221h61V0H27" id="aC"/><path fill="#333" d="M68-38c1 34 0 65-14 84H32c9-13 17-26 17-46H33v-38h35" id="aD"/><g id="i"><use transform="matrix(0.05,0,0,0.05,0,0)" xlink:href="#ac"/><use transform="matrix(0.05,0,0,0.05,10.5,0)" xlink:href="#ai"/><use transform="matrix(0.05,0,0,0.05,25.450000000000003,0)" xlink:href="#Y"/><use transform="matrix(0.05,0,0,0.05,35.45,0)" xlink:href="#au"/><use transform="matrix(0.05,0,0,0.05,44.45,0)" xlink:href="#aj"/><use transform="matrix(0.05,0,0,0.05,54.45,0)" xlink:href="#ag"/><use transform="matrix(0.05,0,0,0.05,60.400000000000006,0)" xlink:href="#av"/><use transform="matrix(0.05,0,0,0.05,72.4,0)" xlink:href="#Y"/><use transform="matrix(0.05,0,0,0.05,82.4,0)" xlink:href="#al"/><use transform="matrix(0.05,0,0,0.05,91.4,0)" xlink:href="#ad"/><use transform="matrix(0.05,0,0,0.05,95.35000000000001,0)" xlink:href="#af"/><use transform="matrix(0.05,0,0,0.05,100.35000000000001,0)" xlink:href="#ad"/><use transform="matrix(0.05,0,0,0.05,104.30000000000001,0)" xlink:href="#Y"/><use transform="matrix(0.05,0,0,0.05,114.30000000000001,0)" xlink:href="#ae"/><use transform="matrix(0.05,0,0,0.05,124.30000000000001,0)" xlink:href="#aC"/><use transform="matrix(0.05,0,0,0.05,134.3,0)" xlink:href="#aD"/></g><path fill="#333" d="M101-251c82-7 93 87 43 132L82-64C71-53 59-42 53-27h129V0H18c2-99 128-94 128-182 0-28-16-43-45-43s-46 15-49 41l-32-3c6-41 34-60 81-64" id="aE"/><g id="j"><use transform="matrix(0.05,0,0,0.05,0,0)" xlink:href="#ax"/><use transform="matrix(0.05,0,0,0.05,10,0)" xlink:href="#Y"/><use transform="matrix(0.05,0,0,0.05,20,0)" xlink:href="#al"/><use transform="matrix(0.05,0,0,0.05,29,0)" xlink:href="#ad"/><use transform="matrix(0.05,0,0,0.05,32.95,0)" xlink:href="#af"/><use transform="matrix(0.05,0,0,0.05,37.95,0)" xlink:href="#ad"/><use transform="matrix(0.05,0,0,0.05,41.900000000000006,0)" xlink:href="#Y"/><use transform="matrix(0.05,0,0,0.05,51.900000000000006,0)" xlink:href="#ae"/><use transform="matrix(0.05,0,0,0.05,61.900000000000006,0)" xlink:href="#aE"/><use transform="matrix(0.05,0,0,0.05,71.9,0)" xlink:href="#ak"/></g><path fill="#333" d="M232-93c-1 65-40 97-104 97C67 4 28-28 28-90v-158h33c8 89-33 224 67 224 102 0 64-133 71-224h33v155" id="aF"/><g id="k"><use transform="matrix(0.05,0,0,0.05,0,0)" xlink:href="#ac"/><use transform="matrix(0.05,0,0,0.05,10.5,0)" xlink:href="#as"/><use transform="matrix(0.05,0,0,0.05,20.5,0)" xlink:href="#aj"/><use transform="matrix(0.05,0,0,0.05,30.5,0)" xlink:href="#af"/><use transform="matrix(0.05,0,0,0.05,35.5,0)" xlink:href="#aF"/><use transform="matrix(0.05,0,0,0.05,48.45,0)" xlink:href="#ae"/><use transform="matrix(0.05,0,0,0.05,58.45,0)" xlink:href="#ad"/><use transform="matrix(0.05,0,0,0.05,62.400000000000006,0)" xlink:href="#af"/><use transform="matrix(0.05,0,0,0.05,67.4,0)" xlink:href="#ag"/><use transform="matrix(0.05,0,0,0.05,73.35000000000001,0)" xlink:href="#ax"/><use transform="matrix(0.05,0,0,0.05,83.35000000000001,0)" xlink:href="#Y"/><use transform="matrix(0.05,0,0,0.05,93.35000000000001,0)" xlink:href="#al"/><use transform="matrix(0.05,0,0,0.05,102.35000000000001,0)" xlink:href="#ad"/><use transform="matrix(0.05,0,0,0.05,106.30000000000001,0)" xlink:href="#af"/><use transform="matrix(0.05,0,0,0.05,111.30000000000001,0)" xlink:href="#ad"/><use transform="matrix(0.05,0,0,0.05,115.25,0)" xlink:href="#Y"/><use transform="matrix(0.05,0,0,0.05,125.25,0)" xlink:href="#ae"/><use transform="matrix(0.05,0,0,0.05,135.25,0)" xlink:href="#ak"/></g><g id="l"><use transform="matrix(0.05,0,0,0.05,0,0)" xlink:href="#ah"/><use transform="matrix(0.05,0,0,0.05,14,0)" xlink:href="#Z"/><use transform="matrix(0.05,0,0,0.05,24,0)" xlink:href="#ai"/><use transform="matrix(0.05,0,0,0.05,38.95,0)" xlink:href="#aj"/></g><g id="m"><use transform="matrix(0.05,0,0,0.05,0,0)" xlink:href="#ac"/><use transform="matrix(0.05,0,0,0.05,10.5,0)" xlink:href="#ad"/><use transform="matrix(0.05,0,0,0.05,14.449999999999998,0)" xlink:href="#ae"/><use transform="matrix(0.05,0,0,0.05,24.45,0)" xlink:href="#ad"/><use transform="matrix(0.05,0,0,0.05,28.399999999999995,0)" xlink:href="#af"/><use transform="matrix(0.05,0,0,0.05,33.4,0)" xlink:href="#ag"/><use transform="matrix(0.05,0,0,0.05,39.35,0)" xlink:href="#ah"/><use transform="matrix(0.05,0,0,0.05,53.35,0)" xlink:href="#Z"/><use transform="matrix(0.05,0,0,0.05,63.35,0)" xlink:href="#ai"/><use transform="matrix(0.05,0,0,0.05,78.3,0)" xlink:href="#aj"/><use transform="matrix(0.05,0,0,0.05,88.3,0)" xlink:href="#ai"/><use transform="matrix(0.05,0,0,0.05,103.25,0)" xlink:href="#Y"/><use transform="matrix(0.05,0,0,0.05,113.25,0)" xlink:href="#ab"/><use transform="matrix(0.05,0,0,0.05,123.25,0)" xlink:href="#ak"/></g><g id="n"><use transform="matrix(0.05,0,0,0.05,0,0)" xlink:href="#av"/><use transform="matrix(0.05,0,0,0.05,12,0)" xlink:href="#Y"/><use transform="matrix(0.05,0,0,0.05,22,0)" xlink:href="#al"/><use transform="matrix(0.05,0,0,0.05,31,0)" xlink:href="#ad"/><use transform="matrix(0.05,0,0,0.05,34.95,0)" xlink:href="#af"/><use transform="matrix(0.05,0,0,0.05,39.95,0)" xlink:href="#ad"/><use transform="matrix(0.05,0,0,0.05,43.900000000000006,0)" xlink:href="#Y"/><use transform="matrix(0.05,0,0,0.05,53.900000000000006,0)" xlink:href="#ae"/><use transform="matrix(0.05,0,0,0.05,63.900000000000006,0)" xlink:href="#aE"/><use transform="matrix(0.05,0,0,0.05,73.9,0)" xlink:href="#ak"/></g><path fill="#333" d="M185-189c-5-48-123-54-124 2 14 75 158 14 163 119 3 78-121 87-175 55-17-10-28-26-33-46l33-7c5 56 141 63 141-1 0-78-155-14-162-118-5-82 145-84 179-34 5 7 8 16 11 25" id="aG"/><path fill="#333" d="M33-154v-36h34v36H33zM33 0v-36h34V0H33" id="aH"/><g id="o"><use transform="matrix(0.05,0,0,0.05,0,0)" xlink:href="#ac"/><use transform="matrix(0.05,0,0,0.05,10.5,0)" xlink:href="#aq"/><use transform="matrix(0.05,0,0,0.05,20.5,0)" xlink:href="#Y"/><use transform="matrix(0.05,0,0,0.05,30.5,0)" xlink:href="#Z"/><use transform="matrix(0.05,0,0,0.05,40.5,0)" xlink:href="#aa"/><use transform="matrix(0.05,0,0,0.05,46.45,0)" xlink:href="#ab"/><use transform="matrix(0.05,0,0,0.05,56.45,0)" xlink:href="#aG"/><use transform="matrix(0.05,0,0,0.05,68.45,0)" xlink:href="#af"/><use transform="matrix(0.05,0,0,0.05,73.45,0)" xlink:href="#Z"/><use transform="matrix(0.05,0,0,0.05,83.45,0)" xlink:href="#af"/><use transform="matrix(0.05,0,0,0.05,88.45,0)" xlink:href="#aj"/><use transform="matrix(0.05,0,0,0.05,98.45,0)" xlink:href="#aH"/></g><g id="p"><use transform="matrix(0.05,0,0,0.05,0,0)" xlink:href="#X"/><use transform="matrix(0.05,0,0,0.05,12,0)" xlink:href="#Y"/><use transform="matrix(0.05,0,0,0.05,22,0)" xlink:href="#Z"/><use transform="matrix(0.05,0,0,0.05,32,0)" xlink:href="#aa"/><use transform="matrix(0.05,0,0,0.05,37.95,0)" xlink:href="#ab"/></g><g id="q"><use transform="matrix(0.05,0,0,0.05,0,0)" xlink:href="#aG"/><use transform="matrix(0.05,0,0,0.05,12,0)" xlink:href="#af"/><use transform="matrix(0.05,0,0,0.05,17,0)" xlink:href="#Z"/><use transform="matrix(0.05,0,0,0.05,27,0)" xlink:href="#aa"/><use transform="matrix(0.05,0,0,0.05,32.95,0)" xlink:href="#af"/><use transform="matrix(0.05,0,0,0.05,37.95,0)" xlink:href="#av"/><use transform="matrix(0.05,0,0,0.05,49.95,0)" xlink:href="#Z"/><use transform="matrix(0.05,0,0,0.05,59.95,0)" xlink:href="#as"/><use transform="matrix(0.05,0,0,0.05,69.95,0)" xlink:href="#aj"/></g><path fill="#333" d="M145-31C134-9 116 4 85 4 32 4 16-35 15-94c0-59 17-99 70-100 32-1 48 14 60 33 0-11-1-24 2-32h30l-1 268h-32zM93-21c41 0 51-33 51-76s-8-73-50-73c-40 0-46 35-46 75s5 74 45 74" id="aI"/><path fill="#333" d="M143 0L79-87 56-68V0H24v-261h32v163l83-92h37l-77 82L181 0h-38" id="aJ"/><g id="r"><use transform="matrix(0.05,0,0,0.05,0,0)" xlink:href="#ac"/><use transform="matrix(0.05,0,0,0.05,10.5,0)" xlink:href="#aI"/><use transform="matrix(0.05,0,0,0.05,20.5,0)" xlink:href="#aB"/><use transform="matrix(0.05,0,0,0.05,30.5,0)" xlink:href="#ad"/><use transform="matrix(0.05,0,0,0.05,34.45,0)" xlink:href="#ay"/><use transform="matrix(0.05,0,0,0.05,43.45,0)" xlink:href="#aJ"/><use transform="matrix(0.05,0,0,0.05,52.45,0)" xlink:href="#aG"/><use transform="matrix(0.05,0,0,0.05,64.45,0)" xlink:href="#af"/><use transform="matrix(0.05,0,0,0.05,69.45,0)" xlink:href="#Z"/><use transform="matrix(0.05,0,0,0.05,79.45,0)" xlink:href="#aa"/><use transform="matrix(0.05,0,0,0.05,85.4,0)" xlink:href="#af"/><use transform="matrix(0.05,0,0,0.05,90.4,0)" xlink:href="#X"/><use transform="matrix(0.05,0,0,0.05,102.4,0)" xlink:href="#aB"/><use transform="matrix(0.05,0,0,0.05,112.4,0)" xlink:href="#af"/><use transform="matrix(0.05,0,0,0.05,117.4,0)" xlink:href="#af"/><use transform="matrix(0.05,0,0,0.05,122.4,0)" xlink:href="#Y"/><use transform="matrix(0.05,0,0,0.05,132.4,0)" xlink:href="#ae"/></g><g id="s"><use transform="matrix(0.05,0,0,0.05,0,0)" xlink:href="#ac"/><use transform="matrix(0.05,0,0,0.05,10.5,0)" xlink:href="#ai"/><use transform="matrix(0.05,0,0,0.05,25.450000000000003,0)" xlink:href="#Y"/><use transform="matrix(0.05,0,0,0.05,35.45,0)" xlink:href="#ab"/><use transform="matrix(0.05,0,0,0.05,45.45,0)" xlink:href="#X"/><use transform="matrix(0.05,0,0,0.05,57.45,0)" xlink:href="#aB"/><use transform="matrix(0.05,0,0,0.05,67.45,0)" xlink:href="#af"/><use transform="matrix(0.05,0,0,0.05,72.45,0)" xlink:href="#af"/><use transform="matrix(0.05,0,0,0.05,77.45,0)" xlink:href="#Y"/><use transform="matrix(0.05,0,0,0.05,87.45,0)" xlink:href="#ae"/></g><path fill="#333" d="M206 0h-36l-40-164L89 0H53L-1-190h32L70-26l43-164h34l41 164 42-164h31" id="aK"/><g id="t"><use transform="matrix(0.05,0,0,0.05,0,0)" xlink:href="#ac"/><use transform="matrix(0.05,0,0,0.05,10.5,0)" xlink:href="#ab"/><use transform="matrix(0.05,0,0,0.05,20.5,0)" xlink:href="#aa"/><use transform="matrix(0.05,0,0,0.05,26.450000000000003,0)" xlink:href="#Z"/><use transform="matrix(0.05,0,0,0.05,36.45,0)" xlink:href="#aK"/><use transform="matrix(0.05,0,0,0.05,49.400000000000006,0)" xlink:href="#ag"/><use transform="matrix(0.05,0,0,0.05,55.35,0)" xlink:href="#ak"/></g><g id="u"><use transform="matrix(0.05,0,0,0.05,0,0)" xlink:href="#ac"/><use transform="matrix(0.05,0,0,0.05,10.5,0)" xlink:href="#an"/><use transform="matrix(0.05,0,0,0.05,20.5,0)" xlink:href="#Z"/><use transform="matrix(0.05,0,0,0.05,30.5,0)" xlink:href="#ae"/><use transform="matrix(0.05,0,0,0.05,40.5,0)" xlink:href="#ab"/><use transform="matrix(0.05,0,0,0.05,50.5,0)" xlink:href="#ar"/><use transform="matrix(0.05,0,0,0.05,54.45,0)" xlink:href="#aj"/><use transform="matrix(0.05,0,0,0.05,64.45,0)" xlink:href="#ag"/><use transform="matrix(0.05,0,0,0.05,70.4,0)" xlink:href="#aj"/><use transform="matrix(0.05,0,0,0.05,80.4,0)" xlink:href="#au"/><use transform="matrix(0.05,0,0,0.05,89.4,0)" xlink:href="#aj"/><use transform="matrix(0.05,0,0,0.05,99.4,0)" xlink:href="#ae"/><use transform="matrix(0.05,0,0,0.05,109.4,0)" xlink:href="#af"/><use transform="matrix(0.05,0,0,0.05,114.4,0)" xlink:href="#ak"/></g><g id="v"><use transform="matrix(0.05,0,0,0.05,0,0)" xlink:href="#X"/><use transform="matrix(0.05,0,0,0.05,12,0)" xlink:href="#aB"/><use transform="matrix(0.05,0,0,0.05,22,0)" xlink:href="#af"/><use transform="matrix(0.05,0,0,0.05,27,0)" xlink:href="#af"/><use transform="matrix(0.05,0,0,0.05,32,0)" xlink:href="#ad"/><use transform="matrix(0.05,0,0,0.05,35.95,0)" xlink:href="#Y"/><use transform="matrix(0.05,0,0,0.05,45.95,0)" xlink:href="#ae"/></g><path fill="#333" d="M240 0l2-218c-23 76-54 145-80 218h-23L58-218 59 0H30v-248h44l77 211c21-75 51-140 76-211h43V0h-30" id="aL"/><g id="w"><use transform="matrix(0.05,0,0,0.05,0,0)" xlink:href="#aL"/><use transform="matrix(0.05,0,0,0.05,14.950000000000001,0)" xlink:href="#Y"/><use transform="matrix(0.05,0,0,0.05,24.950000000000003,0)" xlink:href="#ab"/><use transform="matrix(0.05,0,0,0.05,34.95,0)" xlink:href="#av"/><use transform="matrix(0.05,0,0,0.05,46.95,0)" xlink:href="#Z"/><use transform="matrix(0.05,0,0,0.05,56.95,0)" xlink:href="#as"/><use transform="matrix(0.05,0,0,0.05,66.95,0)" xlink:href="#aj"/></g><path fill="#333" d="M33 0v-38h34V0H33" id="aM"/><g id="x"><use transform="matrix(0.05,0,0,0.05,0,0)" xlink:href="#aq"/><use transform="matrix(0.05,0,0,0.05,10,0)" xlink:href="#aB"/><use transform="matrix(0.05,0,0,0.05,20,0)" xlink:href="#af"/><use transform="matrix(0.05,0,0,0.05,25,0)" xlink:href="#af"/><use transform="matrix(0.05,0,0,0.05,30,0)" xlink:href="#Y"/><use transform="matrix(0.05,0,0,0.05,40,0)" xlink:href="#ae"/><use transform="matrix(0.05,0,0,0.05,50,0)" xlink:href="#al"/><use transform="matrix(0.05,0,0,0.05,59,0)" xlink:href="#aM"/><use transform="matrix(0.05,0,0,0.05,64,0)" xlink:href="#aM"/><use transform="matrix(0.05,0,0,0.05,69,0)" xlink:href="#aM"/></g><g id="y"><use transform="matrix(0.05,0,0,0.05,0,0)" xlink:href="#ah"/><use transform="matrix(0.05,0,0,0.05,14,0)" xlink:href="#Z"/><use transform="matrix(0.05,0,0,0.05,24,0)" xlink:href="#ai"/><use transform="matrix(0.05,0,0,0.05,38.95,0)" xlink:href="#aj"/><use transform="matrix(0.05,0,0,0.05,48.95,0)" xlink:href="#av"/><use transform="matrix(0.05,0,0,0.05,60.95,0)" xlink:href="#Z"/><use transform="matrix(0.05,0,0,0.05,70.95,0)" xlink:href="#as"/><use transform="matrix(0.05,0,0,0.05,80.95,0)" xlink:href="#aj"/></g><path d="M15-91v-56l181-69v40L49-119l147 57v40" id="aN"/><path d="M25-224v-37h50v37H25zM25 0v-190h50V0H25" id="aO"/><path d="M135-194c87-1 58 113 63 194h-50c-7-57 23-157-34-157-59 0-34 97-39 157H25l-1-190h47c2 12-1 28 3 38 12-26 28-41 61-42" id="aP"/><path d="M115-3C79 11 28 4 28-45v-112H4v-33h27l15-45h31v45h36v33H77v99c-1 23 16 31 38 25v30" id="aQ"/><path d="M185-48c-13 30-37 53-82 52C43 2 14-33 14-96s30-98 90-98c62 0 83 45 84 108H66c0 31 8 55 39 56 18 0 30-7 34-22zm-45-69c5-46-57-63-70-21-2 6-4 13-4 21h74" id="aR"/><path d="M135-150c-39-12-60 13-60 57V0H25l-1-190h47c2 13-1 29 3 40 6-28 27-53 61-41v41" id="aS"/><path d="M121-226c-27-7-43 5-38 36h38v33H83V0H34v-157H6v-33h28c-9-59 32-81 87-68v32" id="aT"/><path d="M133-34C117-15 103 5 69 4 32 3 11-16 11-54c-1-60 55-63 116-61 1-26-3-47-28-47-18 1-26 9-28 27l-52-2c7-38 36-58 82-57s74 22 75 68l1 82c-1 14 12 18 25 15v27c-30 8-71 5-69-32zm-48 3c29 0 43-24 42-57-32 0-66-3-65 30 0 17 8 27 23 27" id="aU"/><path d="M190-63c-7 42-38 67-86 67-59 0-84-38-90-98-12-110 154-137 174-36l-49 2c-2-19-15-32-35-32-30 0-35 28-38 64-6 74 65 87 74 30" id="aV"/><path d="M15-22v-40l146-57-146-57v-40l181 69v56" id="aW"/><g id="z"><use transform="matrix(0.05,0,0,0.05,0,0)" xlink:href="#aN"/><use transform="matrix(0.05,0,0,0.05,10.5,0)" xlink:href="#aN"/><use transform="matrix(0.05,0,0,0.05,21,0)" xlink:href="#aO"/><use transform="matrix(0.05,0,0,0.05,26,0)" xlink:href="#aP"/><use transform="matrix(0.05,0,0,0.05,36.95,0)" xlink:href="#aQ"/><use transform="matrix(0.05,0,0,0.05,42.900000000000006,0)" xlink:href="#aR"/><use transform="matrix(0.05,0,0,0.05,52.900000000000006,0)" xlink:href="#aS"/><use transform="matrix(0.05,0,0,0.05,59.900000000000006,0)" xlink:href="#aT"/><use transform="matrix(0.05,0,0,0.05,65.85000000000001,0)" xlink:href="#aU"/><use transform="matrix(0.05,0,0,0.05,75.85000000000001,0)" xlink:href="#aV"/><use transform="matrix(0.05,0,0,0.05,85.85000000000001,0)" xlink:href="#aR"/><use transform="matrix(0.05,0,0,0.05,95.85000000000001,0)" xlink:href="#aW"/><use transform="matrix(0.05,0,0,0.05,106.35000000000001,0)" xlink:href="#aW"/></g><path d="M186 0v-106H76V0H24v-248h52v99h110v-99h50V0h-50" id="aX"/><path d="M88-194c31-1 46 15 58 34l-1-101h50l1 261h-48c-2-10 0-23-3-31C134-8 116 4 84 4 32 4 16-41 15-95c0-56 19-97 73-99zm17 164c33 0 40-30 41-66 1-37-9-64-41-64s-38 30-39 65c0 43 13 65 39 65" id="aY"/><path d="M25 0v-261h50V0H25" id="aZ"/><g id="A"><use transform="matrix(0.05,0,0,0.05,0,0)" xlink:href="#aX"/><use transform="matrix(0.05,0,0,0.05,12.950000000000001,0)" xlink:href="#aU"/><use transform="matrix(0.05,0,0,0.05,22.950000000000003,0)" xlink:href="#aP"/><use transform="matrix(0.05,0,0,0.05,33.900000000000006,0)" xlink:href="#aY"/><use transform="matrix(0.05,0,0,0.05,44.85000000000001,0)" xlink:href="#aZ"/><use transform="matrix(0.05,0,0,0.05,49.85000000000001,0)" xlink:href="#aR"/><use transform="matrix(0.05,0,0,0.05,59.85,0)" xlink:href="#aS"/></g><path d="M24-248c120-7 223 5 221 122C244-46 201 0 124 0H24v-248zM76-40c74 7 117-18 117-86 0-67-45-88-117-82v168" id="ba"/><path d="M231 0h-52l-39-155L100 0H48L-1-190h46L77-45c9-52 24-97 36-145h53l37 145 32-145h46" id="bb"/><path d="M135-194c52 0 70 43 70 98 0 56-19 99-73 100-30 1-46-15-58-35L72 0H24l1-261h50v104c11-23 29-37 60-37zM114-30c31 0 40-27 40-66 0-37-7-63-39-63s-41 28-41 65c0 36 8 64 40 64" id="bc"/><g id="B"><use transform="matrix(0.05,0,0,0.05,0,0)" xlink:href="#ba"/><use transform="matrix(0.05,0,0,0.05,12.950000000000001,0)" xlink:href="#aS"/><use transform="matrix(0.05,0,0,0.05,19.950000000000003,0)" xlink:href="#aU"/><use transform="matrix(0.05,0,0,0.05,29.950000000000003,0)" xlink:href="#bb"/><use transform="matrix(0.05,0,0,0.05,43.95,0)" xlink:href="#aU"/><use transform="matrix(0.05,0,0,0.05,53.95,0)" xlink:href="#bc"/><use transform="matrix(0.05,0,0,0.05,64.9,0)" xlink:href="#aZ"/><use transform="matrix(0.05,0,0,0.05,69.9,0)" xlink:href="#aR"/></g><g id="C"><use transform="matrix(0.05,0,0,0.05,0,0)" xlink:href="#ac"/><use transform="matrix(0.05,0,0,0.05,10.5,0)" xlink:href="#ab"/><use transform="matrix(0.05,0,0,0.05,20.5,0)" xlink:href="#aa"/><use transform="matrix(0.05,0,0,0.05,26.450000000000003,0)" xlink:href="#Z"/><use transform="matrix(0.05,0,0,0.05,36.45,0)" xlink:href="#aK"/><use transform="matrix(0.05,0,0,0.05,49.400000000000006,0)" xlink:href="#ag"/><use transform="matrix(0.05,0,0,0.05,55.35,0)" xlink:href="#aj"/><use transform="matrix(0.05,0,0,0.05,65.35000000000001,0)" xlink:href="#au"/><use transform="matrix(0.05,0,0,0.05,74.35000000000001,0)" xlink:href="#aj"/><use transform="matrix(0.05,0,0,0.05,84.35000000000001,0)" xlink:href="#ae"/><use transform="matrix(0.05,0,0,0.05,94.35000000000001,0)" xlink:href="#af"/><use transform="matrix(0.05,0,0,0.05,99.35000000000001,0)" xlink:href="#ak"/></g><g id="D"><use transform="matrix(0.05,0,0,0.05,0,0)" xlink:href="#at"/><use transform="matrix(0.05,0,0,0.05,12,0)" xlink:href="#ad"/><use transform="matrix(0.05,0,0,0.05,15.949999999999998,0)" xlink:href="#at"/><use transform="matrix(0.05,0,0,0.05,27.950000000000003,0)" xlink:href="#ab"/><use transform="matrix(0.05,0,0,0.05,37.95,0)" xlink:href="#Z"/><use transform="matrix(0.05,0,0,0.05,47.95,0)" xlink:href="#ax"/><use transform="matrix(0.05,0,0,0.05,57.95,0)" xlink:href="#af"/><use transform="matrix(0.05,0,0,0.05,62.95,0)" xlink:href="#aj"/><use transform="matrix(0.05,0,0,0.05,72.95,0)" xlink:href="#aa"/></g><g id="E"><use transform="matrix(0.05,0,0,0.05,0,0)" xlink:href="#ac"/><use transform="matrix(0.05,0,0,0.05,10.5,0)" xlink:href="#as"/><use transform="matrix(0.05,0,0,0.05,20.5,0)" xlink:href="#aj"/><use transform="matrix(0.05,0,0,0.05,30.5,0)" xlink:href="#af"/><use transform="matrix(0.05,0,0,0.05,35.5,0)" xlink:href="#aw"/><use transform="matrix(0.05,0,0,0.05,45.5,0)" xlink:href="#al"/><use transform="matrix(0.05,0,0,0.05,54.5,0)" xlink:href="#af"/><use transform="matrix(0.05,0,0,0.05,59.5,0)" xlink:href="#aj"/><use transform="matrix(0.05,0,0,0.05,69.5,0)" xlink:href="#ax"/><use transform="matrix(0.05,0,0,0.05,79.5,0)" xlink:href="#ag"/><use transform="matrix(0.05,0,0,0.05,85.45,0)" xlink:href="#X"/><use transform="matrix(0.05,0,0,0.05,97.45,0)" xlink:href="#Y"/><use transform="matrix(0.05,0,0,0.05,107.45,0)" xlink:href="#Z"/><use transform="matrix(0.05,0,0,0.05,117.45,0)" xlink:href="#aa"/><use transform="matrix(0.05,0,0,0.05,123.4,0)" xlink:href="#ab"/><use transform="matrix(0.05,0,0,0.05,133.4,0)" xlink:href="#ak"/></g><path fill="#333" d="M141 0L90-78 38 0H4l68-98-65-92h35l48 74 47-74h35l-64 92 68 98h-35" id="bd"/><g id="F"><use transform="matrix(0.05,0,0,0.05,0,0)" xlink:href="#ac"/><use transform="matrix(0.05,0,0,0.05,10.5,0)" xlink:href="#aj"/><use transform="matrix(0.05,0,0,0.05,20.5,0)" xlink:href="#bd"/><use transform="matrix(0.05,0,0,0.05,29.5,0)" xlink:href="#af"/><use transform="matrix(0.05,0,0,0.05,34.5,0)" xlink:href="#aj"/><use transform="matrix(0.05,0,0,0.05,44.5,0)" xlink:href="#aa"/><use transform="matrix(0.05,0,0,0.05,50.45,0)" xlink:href="#ae"/><use transform="matrix(0.05,0,0,0.05,60.45,0)" xlink:href="#Z"/><use transform="matrix(0.05,0,0,0.05,70.45,0)" xlink:href="#ar"/><use transform="matrix(0.05,0,0,0.05,74.4,0)" xlink:href="#aw"/><use transform="matrix(0.05,0,0,0.05,84.4,0)" xlink:href="#Z"/><use transform="matrix(0.05,0,0,0.05,94.4,0)" xlink:href="#ad"/><use transform="matrix(0.05,0,0,0.05,98.35000000000001,0)" xlink:href="#aH"/></g><path fill="#333" d="M33 0v-248h34V0H33" id="be"/><g id="G"><use transform="matrix(0.05,0,0,0.05,0,0)" xlink:href="#at"/><use transform="matrix(0.05,0,0,0.05,12,0)" xlink:href="#be"/></g><g id="H"><use transform="matrix(0.05,0,0,0.05,0,0)" xlink:href="#at"/><use transform="matrix(0.05,0,0,0.05,12,0)" xlink:href="#be"/></g><path fill="#333" d="M94-120c-9 3-20 7-31 7V0H30v-248h33v109c41-1 47-27 65-55l36-54h35c-23 32-58 90-81 112L208 0h-39" id="bf"/><path fill="#333" d="M153 0v-167H87C74-108 81-27 38 0 29 5 12 6 2 1v-22c51 4 39-64 49-112 5-25 4-25 8-57h126V0h-32" id="bg"/><path fill="#333" d="M141-36C126-15 110 5 73 4 37 3 15-17 15-53c-1-64 63-63 125-63 3-35-9-54-41-54-24 1-41 7-42 31l-33-3c5-37 33-52 76-52 45 0 72 20 72 64v82c-1 20 7 32 28 27v20c-31 9-61-2-59-35zM48-53c0 20 12 33 32 33 41-3 63-29 60-74-43 2-92-5-92 41" id="bh"/><path fill="#333" d="M96-169c-40 0-48 33-48 73s9 75 48 75c24 0 41-14 43-38l32 2c-6 37-31 61-74 61-59 0-76-41-82-99-10-93 101-131 147-64 4 7 5 14 7 22l-32 3c-4-21-16-35-41-35" id="bi"/><g id="I"><use transform="matrix(0.05,0,0,0.05,0,0)" xlink:href="#bf"/><use transform="matrix(0.05,0,0,0.05,10.450000000000001,0)" xlink:href="#bg"/><use transform="matrix(0.05,0,0,0.05,20.950000000000003,0)" xlink:href="#bh"/><use transform="matrix(0.05,0,0,0.05,30.950000000000003,0)" xlink:href="#bi"/><use transform="matrix(0.05,0,0,0.05,39.95,0)" xlink:href="#bi"/><use transform="matrix(0.05,0,0,0.05,48.95,0)" xlink:href="#aD"/></g><path fill="#333" d="M152-53C154 19 21 22 9-41l28-8c5 36 84 42 81-4-1-29-28-34-58-35v-24c28 0 55-4 55-30 0-19-14-29-34-28-20 0-35 7-38 25l-28-3c4-33 30-46 66-46 37 0 66 15 66 50 0 27-20 41-44 44 27 5 48 17 49 47" id="bj"/><path fill="#333" d="M56-190L54-37l88-153h34V0h-30l2-153L59 0H25v-190h31" id="bk"/><path fill="#333" d="M138 0h-27L54-167c3 53 2 111 2 167H25v-190h49c16 56 39 106 51 166 11-61 34-110 50-166h48V0h-31l2-168" id="bl"/><path fill="#333" d="M6-190h153v23H98V0H67v-167H6v-23" id="bm"/><path fill="#333" d="M176-55C176 11 93 0 25 0v-190c61 3 142-15 144 47 1 29-21 35-39 44 27 3 46 16 46 44zm-34 0c0-41-47-30-85-32v64c38-1 85 8 85-32zm-6-83c0-36-44-26-79-28v56c34-2 79 8 79-28" id="bn"/><path fill="#333" d="M100-194c62-1 85 37 85 99 1 63-27 99-86 99S16-35 15-95c0-66 28-99 85-99zM99-20c44 1 53-31 53-75 0-43-8-75-51-75s-53 32-53 75 10 74 51 75" id="bo"/><path fill="#333" d="M57-190v80h85v-80h32V0h-32v-87H57V0H25v-190h32" id="bp"/><path fill="#333" d="M170-56C169 10 92 0 25 0v-190h32v80c58-2 114-1 113 54zm-34 0c0-38-42-32-79-32v66c38 0 79 5 79-34zm66 56v-190h32V0h-32" id="bq"/><path fill="#333" d="M165-267c8 67-110 75-125 20-2-7-4-13-4-20h29c1 23 13 35 36 35s34-13 36-35h28zM56-190L54-37l88-153h34V0h-30l2-153L59 0H25v-190h31" id="br"/><g id="J"><use transform="matrix(0.05,0,0,0.05,0,0)" xlink:href="#bj"/><use transform="matrix(0.05,0,0,0.05,8.25,0)" xlink:href="#bh"/><use transform="matrix(0.05,0,0,0.05,18.25,0)" xlink:href="#bk"/><use transform="matrix(0.05,0,0,0.05,28.3,0)" xlink:href="#bl"/><use transform="matrix(0.05,0,0,0.05,40.650000000000006,0)" xlink:href="#bi"/><use transform="matrix(0.05,0,0,0.05,49.650000000000006,0)" xlink:href="#bm"/><use transform="matrix(0.05,0,0,0.05,57.85,0)" xlink:href="#bn"/><use transform="matrix(0.05,0,0,0.05,67.2,0)" xlink:href="#bo"/><use transform="matrix(0.05,0,0,0.05,77.2,0)" xlink:href="#bn"/><use transform="matrix(0.05,0,0,0.05,86.55,0)" xlink:href="#bh"/><use transform="matrix(0.05,0,0,0.05,96.55,0)" xlink:href="#bp"/><use transform="matrix(0.05,0,0,0.05,106.45,0)" xlink:href="#bp"/><use transform="matrix(0.05,0,0,0.05,116.35000000000001,0)" xlink:href="#bq"/><use transform="matrix(0.05,0,0,0.05,129.25,0)" xlink:href="#br"/></g><g id="K"><use transform="matrix(0.05,0,0,0.05,0,0)" xlink:href="#bk"/><use transform="matrix(0.05,0,0,0.05,10.05,0)" xlink:href="#bj"/></g><path fill="#333" d="M115-194c55 1 70 41 70 98S169 2 115 4C84 4 66-9 55-30l1 105H24l-1-265h31l2 30c10-21 28-34 59-34zm-8 174c40 0 45-34 45-75s-6-73-45-74c-42 0-51 32-51 76 0 43 10 73 51 73" id="bs"/><path fill="#333" d="M100-194c63 0 86 42 84 106H49c0 40 14 67 53 68 26 1 43-12 49-29l28 8c-11 28-37 45-77 45C44 4 14-33 15-96c1-61 26-98 85-98zm52 81c6-60-76-77-97-28-3 7-6 17-6 28h103" id="bt"/><path fill="#333" d="M173-56C173 11 92 0 25 0v-190h32v80c58-2 117-2 116 54zm-34 0c0-39-44-31-82-32v66c39 0 82 6 82-34" id="bu"/><path fill="#333" d="M175-194c59 1 80 36 80 99 0 62-25 99-81 99-54 0-76-36-78-91H57V0H25v-190h32v80h39c4-56 30-84 79-84zm-1 174c42 1 48-34 48-75 0-42-6-75-46-75-41-1-47 34-47 75s6 74 45 75" id="bv"/><g id="L"><use transform="matrix(0.05,0,0,0.05,0,0)" xlink:href="#bs"/><use transform="matrix(0.05,0,0,0.05,10,0)" xlink:href="#bt"/><use transform="matrix(0.05,0,0,0.05,20,0)" xlink:href="#bn"/><use transform="matrix(0.05,0,0,0.05,29.55,0)" xlink:href="#bu"/><use transform="matrix(0.05,0,0,0.05,38.9,0)" xlink:href="#bv"/></g><path fill="#333" d="M170-190V0h-32v-167H57V0H25v-190h145" id="bw"/><g id="M"><use transform="matrix(0.05,0,0,0.05,0,0)" xlink:href="#bw"/><use transform="matrix(0.05,0,0,0.05,9.700000000000001,0)" xlink:href="#bo"/></g><path fill="#333" d="M179-190L93 31C79 59 56 82 12 73V49c39 6 53-20 64-50L1-190h34L92-34l54-156h33" id="bx"/><g id="N"><use transform="matrix(0.05,0,0,0.05,0,0)" xlink:href="#bw"/><use transform="matrix(0.05,0,0,0.05,9.700000000000001,0)" xlink:href="#bk"/><use transform="matrix(0.05,0,0,0.05,19.75,0)" xlink:href="#bm"/><use transform="matrix(0.05,0,0,0.05,27.75,0)" xlink:href="#bo"/><use transform="matrix(0.05,0,0,0.05,37.75,0)" xlink:href="#bp"/><use transform="matrix(0.05,0,0,0.05,47.65,0)" xlink:href="#bx"/></g><path fill="#333" d="M30-248c118-7 216 8 213 122C240-48 200 0 122 0H30v-248zM63-27c89 8 146-16 146-99s-60-101-146-95v194" id="by"/><g id="O"><use transform="matrix(0.05,0,0,0.05,0,0)" xlink:href="#at"/><use transform="matrix(0.05,0,0,0.05,12,0)" xlink:href="#ad"/><use transform="matrix(0.05,0,0,0.05,15.949999999999998,0)" xlink:href="#by"/><use transform="matrix(0.05,0,0,0.05,28.899999999999995,0)" xlink:href="#aj"/><use transform="matrix(0.05,0,0,0.05,38.9,0)" xlink:href="#ay"/><use transform="matrix(0.05,0,0,0.05,47.9,0)" xlink:href="#Y"/><use transform="matrix(0.05,0,0,0.05,57.900000000000006,0)" xlink:href="#aa"/><use transform="matrix(0.05,0,0,0.05,63.85,0)" xlink:href="#Z"/><use transform="matrix(0.05,0,0,0.05,73.85,0)" xlink:href="#af"/><use transform="matrix(0.05,0,0,0.05,78.85,0)" xlink:href="#Y"/><use transform="matrix(0.05,0,0,0.05,88.85,0)" xlink:href="#aa"/></g><g id="P"><use transform="matrix(0.05,0,0,0.05,0,0)" xlink:href="#ao"/><use transform="matrix(0.05,0,0,0.05,5.95,0)" xlink:href="#aK"/><use transform="matrix(0.05,0,0,0.05,18.900000000000002,0)" xlink:href="#aa"/><use transform="matrix(0.05,0,0,0.05,24.85,0)" xlink:href="#Z"/><use transform="matrix(0.05,0,0,0.05,34.85,0)" xlink:href="#ax"/><use transform="matrix(0.05,0,0,0.05,44.85,0)" xlink:href="#ax"/><use transform="matrix(0.05,0,0,0.05,54.85,0)" xlink:href="#aj"/><use transform="matrix(0.05,0,0,0.05,64.85,0)" xlink:href="#aj"/><use transform="matrix(0.05,0,0,0.05,74.85,0)" xlink:href="#aH"/></g><g id="Q"><use transform="matrix(0.05,0,0,0.05,0,0)" xlink:href="#ah"/><use transform="matrix(0.05,0,0,0.05,14,0)" xlink:href="#Z"/><use transform="matrix(0.05,0,0,0.05,24,0)" xlink:href="#ai"/><use transform="matrix(0.05,0,0,0.05,38.95,0)" xlink:href="#aj"/><use transform="matrix(0.05,0,0,0.05,48.95,0)" xlink:href="#aL"/><use transform="matrix(0.05,0,0,0.05,63.900000000000006,0)" xlink:href="#Y"/><use transform="matrix(0.05,0,0,0.05,73.9,0)" xlink:href="#ab"/><use transform="matrix(0.05,0,0,0.05,83.9,0)" xlink:href="#aj"/></g><path fill="#333" d="M9 0v-24l116-142H16v-24h144v24L44-24h123V0H9" id="bz"/><g id="R"><use transform="matrix(0.05,0,0,0.05,0,0)" xlink:href="#ac"/><use transform="matrix(0.05,0,0,0.05,10.5,0)" xlink:href="#al"/><use transform="matrix(0.05,0,0,0.05,19.5,0)" xlink:href="#ad"/><use transform="matrix(0.05,0,0,0.05,23.45,0)" xlink:href="#bz"/><use transform="matrix(0.05,0,0,0.05,32.45,0)" xlink:href="#aj"/><use transform="matrix(0.05,0,0,0.05,42.45,0)" xlink:href="#ai"/><use transform="matrix(0.05,0,0,0.05,57.400000000000006,0)" xlink:href="#Z"/><use transform="matrix(0.05,0,0,0.05,67.4,0)" xlink:href="#ax"/><use transform="matrix(0.05,0,0,0.05,77.4,0)" xlink:href="#aH"/></g><g id="S"><use transform="matrix(0.05,0,0,0.05,0,0)" xlink:href="#ad"/><use transform="matrix(0.05,0,0,0.05,3.95,0)" xlink:href="#ae"/><use transform="matrix(0.05,0,0,0.05,13.949999999999998,0)" xlink:href="#af"/></g><g id="T"><use transform="matrix(0.05,0,0,0.05,0,0)" xlink:href="#ac"/><use transform="matrix(0.05,0,0,0.05,10.5,0)" xlink:href="#Z"/><use transform="matrix(0.05,0,0,0.05,20.5,0)" xlink:href="#aa"/><use transform="matrix(0.05,0,0,0.05,26.450000000000003,0)" xlink:href="#aa"/><use transform="matrix(0.05,0,0,0.05,32.4,0)" xlink:href="#Z"/><use transform="matrix(0.05,0,0,0.05,42.4,0)" xlink:href="#ae"/><use transform="matrix(0.05,0,0,0.05,52.400000000000006,0)" xlink:href="#as"/><use transform="matrix(0.05,0,0,0.05,62.400000000000006,0)" xlink:href="#aj"/><use transform="matrix(0.05,0,0,0.05,72.4,0)" xlink:href="#ai"/><use transform="matrix(0.05,0,0,0.05,87.35000000000001,0)" xlink:href="#aj"/><use transform="matrix(0.05,0,0,0.05,97.35000000000001,0)" xlink:href="#ae"/><use transform="matrix(0.05,0,0,0.05,107.35000000000001,0)" xlink:href="#af"/></g><path fill="#333" d="M101-234c-31-9-42 10-38 44h38v23H63V0H32v-167H5v-23h27c-7-52 17-82 69-68v24" id="bA"/><g id="U"><use transform="matrix(0.05,0,0,0.05,0,0)" xlink:href="#ac"/><use transform="matrix(0.05,0,0,0.05,10.5,0)" xlink:href="#bA"/><use transform="matrix(0.05,0,0,0.05,15.5,0)" xlink:href="#aj"/><use transform="matrix(0.05,0,0,0.05,25.5,0)" xlink:href="#Z"/><use transform="matrix(0.05,0,0,0.05,35.5,0)" xlink:href="#af"/><use transform="matrix(0.05,0,0,0.05,40.5,0)" xlink:href="#aB"/><use transform="matrix(0.05,0,0,0.05,50.5,0)" xlink:href="#aa"/><use transform="matrix(0.05,0,0,0.05,56.45,0)" xlink:href="#aj"/><use transform="matrix(0.05,0,0,0.05,66.45,0)" xlink:href="#al"/></g><g id="V"><use transform="matrix(0.05,0,0,0.05,0,0)" xlink:href="#ac"/><use transform="matrix(0.05,0,0,0.05,10.5,0)" xlink:href="#Z"/><use transform="matrix(0.05,0,0,0.05,20.5,0)" xlink:href="#ad"/><use transform="matrix(0.05,0,0,0.05,24.45,0)" xlink:href="#aH"/></g><g id="W"><use transform="matrix(0.05,0,0,0.05,0,0)" xlink:href="#at"/><use transform="matrix(0.05,0,0,0.05,12,0)" xlink:href="#ad"/><use transform="matrix(0.05,0,0,0.05,15.949999999999998,0)" xlink:href="#at"/><use transform="matrix(0.05,0,0,0.05,27.950000000000003,0)" xlink:href="#ab"/><use transform="matrix(0.05,0,0,0.05,37.95,0)" xlink:href="#Z"/><use transform="matrix(0.05,0,0,0.05,47.95,0)" xlink:href="#ax"/><use transform="matrix(0.05,0,0,0.05,57.95,0)" xlink:href="#af"/><use transform="matrix(0.05,0,0,0.05,62.95,0)" xlink:href="#aj"/><use transform="matrix(0.05,0,0,0.05,72.95,0)" xlink:href="#aa"/></g></defs></g></svg>