<svg xmlns="http://www.w3.org/2000/svg" xmlns:xlink="http://www.w3.org/1999/xlink" xmlns:lucid="lucid" width="1225.78" height="929.6"><g transform="translate(0 0)" lucid:page-tab-id="0_0"><path d="M0 0h1225.78v929.6H0z" fill="#fff"/><path d="M154.67 213.67c11.04 0 20 13.43 20 30s-8.96 30-20 30h-60c-11.05 0-20-13.43-20-30s8.95-30 20-30z" stroke="#333" fill="#e5e5e5"/><use xlink:href="#a" transform="matrix(1,0,0,1,79.66666666666667,218.66666666671745) translate(26.025 28.6)"/><path d="M214.67 191.67c0-4.42 3.58-8 8-8h144c4.4 0 8 3.58 8 8v104c0 4.4-3.6 8-8 8h-144c-4.42 0-8-3.6-8-8z" stroke="#333" fill="#fff"/><use xlink:href="#b" transform="matrix(1,0,0,1,219.66666666666669,188.66666666671745) translate(1.75 58.6)"/><use xlink:href="#c" transform="matrix(1,0,0,1,219.66666666666669,188.66666666671745) translate(101.35000000000001 58.6)"/><path d="M175.67 243.67h22.1" stroke="#333" fill="none"/><path d="M175.68 244.17h-.55l.04-.5-.02-.5h.53z" fill="#333"/><path d="M212.55 243.67l-14.27 4.63v-9.27z" stroke="#333" fill="#333"/><path d="M214.67 351.67c0-4.42 3.58-8 8-8h144c4.4 0 8 3.58 8 8v104c0 4.4-3.6 8-8 8h-144c-4.42 0-8-3.6-8-8z" stroke="#333" fill="#fff"/><use xlink:href="#d" transform="matrix(1,0,0,1,219.66666666666669,348.6666666667175) translate(12.799999999999997 58.6)"/><use xlink:href="#e" transform="matrix(1,0,0,1,219.66666666666669,348.6666666667175) translate(73 58.6)"/><path d="M294.67 304.67v22.1" stroke="#333" fill="none"/><path d="M295.17 304.68h-1v-.5h1z" fill="#333"/><path d="M294.67 341.55l-4.64-14.27h9.27z" stroke="#333" fill="#333"/><path d="M294.67 464.67v7.98" stroke="#333" fill="none"/><path d="M295.17 464.68h-1v-.5h1z" fill="#333"/><path d="M294.67 487.42l-4.64-14.27h9.27z" stroke="#333" fill="#333"/><path d="M214.67 497.54c0-4.42 3.58-8 8-8h144c4.4 0 8 3.58 8 8v104c0 4.42-3.6 8-8 8h-144c-4.42 0-8-3.58-8-8z" stroke="#333" fill="#fff"/><use xlink:href="#f" transform="matrix(1,0,0,1,219.66666666666669,494.5385203234256) translate(55.275 58.6)"/><path d="M288.27 640.2c3.53-2.64 9.26-2.64 12.8 0l67.2 50.4c3.53 2.66 3.53 6.96 0 9.6l-67.2 50.4c-3.54 2.66-9.27 2.66-12.8 0l-67.2-50.4c-3.54-2.64-3.54-6.94 0-9.6z" stroke="#333" fill="#f9d2de"/><use xlink:href="#g" transform="matrix(1,0,0,1,219.66666666666669,640.4103739801335) translate(17.199999999999996 47.8)"/><use xlink:href="#h" transform="matrix(1,0,0,1,219.66666666666669,640.4103739801335) translate(81.25 47.8)"/><use xlink:href="#i" transform="matrix(1,0,0,1,219.66666666666669,640.4103739801335) translate(52.3 69.4)"/><path d="M294.67 610.54v10.9" stroke="#333" fill="none"/><path d="M295.17 610.55h-1v-.5h1z" fill="#333"/><path d="M294.67 636.2l-4.64-14.26h9.27z" stroke="#333" fill="#333"/><path d="M415.67 683.44l-.42 3.2-1.25 3-2 2.6-2.6 2-3 1.25-3.2.4h-31.4v-1h31.33l3.02-.38 2.76-1.15 2.4-1.83 1.83-2.4 1.14-2.75.4-3.02v-121.1h1zM406.4 403.6l3 1.23 2.6 2 2 2.6 1.25 3 .42 3.2v125.04h-1V415.7l-.4-3.02-1.14-2.75-1.83-2.4-2.4-1.83-2.75-1.14-3.02-.4h-11.58v-1h11.65z" fill="#333"/><path d="M371.82 695.9h-.53l.03-1h.5zM391.05 408.3l-14.27-4.63 14.27-4.64z" fill="#333"/><path d="M391.55 409l-16.38-5.33 16.38-5.33zm-13.15-5.33l12.15 3.94v-7.88z" fill="#333"/><use xlink:href="#j" transform="matrix(1,0,0,1,400.4916666666667,540.668069620788) translate(0.005000000000000782 14.4)"/><path d="M295.17 759.03h-1v-5.53h1zM295.17 753v.5h-1v-.5zM294.67 785.04l-1.44-4.4h2.87z" fill="#333"/><path d="M294.67 786.65l-1.96-6.02h1.06l.9 2.8.9-2.8h1.07z" fill="#333"/><use xlink:href="#k" transform="matrix(1,0,0,1,283.19166666666666,759.0253771258486) translate(0.005000000000000782 14.4)"/><path d="M324.67 787.15c11.04 0 20 13.44 20 30 0 16.57-8.96 30-20 30h-60c-11.05 0-20-13.43-20-30 0-16.56 8.95-30 20-30z" stroke="#333" fill="#e5e5e5"/><use xlink:href="#l" transform="matrix(1,0,0,1,249.66666666666669,792.1540812935496) translate(29 28.6)"/><path d="M554.67 213.67c11.04 0 20 13.43 20 30s-8.96 30-20 30h-60c-11.05 0-20-13.43-20-30s8.95-30 20-30z" stroke="#333" fill="#e5e5e5"/><use xlink:href="#a" transform="matrix(1,0,0,1,479.66666666666663,218.66666666671745) translate(26.025 28.6)"/><path d="M642.9 190.73c2.08-3.9 7.35-7.06 11.77-7.06h80c4.4 0 9.68 3.16 11.76 7.06l24.47 45.88c2.08 3.9 2.08 10.23 0 14.13l-24.47 45.88c-2.08 3.9-7.35 7.07-11.76 7.07h-80c-4.42 0-9.7-3.16-11.77-7.06l-24.47-45.87c-2.08-3.9-2.08-10.22 0-14.12z" stroke="#333" fill="#fff"/><use xlink:href="#m" transform="matrix(1,0,0,1,619.6666666666666,188.66666666671745) translate(4 47.8)"/><use xlink:href="#n" transform="matrix(1,0,0,1,619.6666666666666,188.66666666671745) translate(101.2 47.8)"/><use xlink:href="#o" transform="matrix(1,0,0,1,619.6666666666666,188.66666666671745) translate(43.45 69.4)"/><path d="M575.67 243.67h24.4" stroke="#333" fill="none"/><path d="M575.68 244.17h-.55l.04-.5-.02-.5h.53z" fill="#333"/><path d="M614.82 243.67l-14.26 4.63v-9.27z" stroke="#333" fill="#333"/><path d="M773.4 243.67h28.24" stroke="#333" fill="none"/><path d="M773.4 244.17h-.46l-.1-1h.57z" fill="#333"/><path d="M816.4 243.67l-14.26 4.63v-9.27z" stroke="#333" fill="#333"/><path d="M888.27 188.47c3.53-2.65 9.26-2.65 12.8 0l67.2 50.4c3.53 2.65 3.53 6.95 0 9.6l-67.2 50.4c-3.54 2.65-9.27 2.65-12.8 0l-67.2-50.4c-3.54-2.65-3.54-6.95 0-9.6z" stroke="#333" fill="#c1e4f7"/><use xlink:href="#p" transform="matrix(1,0,0,1,819.6666666666666,188.66666666671745) translate(16.699999999999996 58.6)"/><use xlink:href="#q" transform="matrix(1,0,0,1,819.6666666666666,188.66666666671745) translate(71.85 58.6)"/><use xlink:href="#r" transform="matrix(1,0,0,1,819.6666666666666,188.66666666671745) translate(121.30000000000001 58.6)"/><path d="M824.67 351.67c0-4.42 3.58-8 8-8h124c4.4 0 8 3.58 8 8v44c0 4.4-3.6 8-8 8h-124c-4.42 0-8-3.6-8-8z" stroke="#333" fill="#fff"/><use xlink:href="#s" transform="matrix(1,0,0,1,829.6666666666666,348.6666666667175) translate(5.125 28.6)"/><use xlink:href="#t" transform="matrix(1,0,0,1,829.6666666666666,348.6666666667175) translate(42.025 28.6)"/><path d="M894.67 301.75v25.03" stroke="#333" fill="none"/><path d="M895.17 301.26v.5h-1v-.5z" fill="#333"/><path d="M894.67 341.55l-4.64-14.27h9.27z" stroke="#333" fill="#333"/><path d="M894.67 404.67v25.03" stroke="#333" fill="none"/><path d="M895.17 404.68h-1v-.5h1z" fill="#333"/><path d="M894.67 444.46l-4.64-14.26h9.27z" stroke="#333" fill="#333"/><path d="M888.27 448.47c3.53-2.65 9.26-2.65 12.8 0l67.2 50.4c3.53 2.65 3.53 6.95 0 9.6l-67.2 50.4c-3.54 2.65-9.27 2.65-12.8 0l-67.2-50.4c-3.54-2.65-3.54-6.95 0-9.6z" stroke="#333" fill="#f9d2de"/><use xlink:href="#s" transform="matrix(1,0,0,1,819.6666666666666,448.6666666667175) translate(9.549999999999997 58.6)"/><use xlink:href="#u" transform="matrix(1,0,0,1,819.6666666666666,448.6666666667175) translate(46.449999999999996 58.6)"/><path d="M895.17 572.87h-1v-11.12h1z" fill="#333"/><path d="M895.17 561.26v.5h-1v-.5zM894.67 604.46l-3.25-10h6.5z" fill="#333"/><path d="M894.67 606.08l-3.78-11.6h1.04l2.73 8.36 2.72-8.37h1.04z" fill="#333"/><use xlink:href="#j" transform="matrix(1,0,0,1,879.9916666666667,572.8666666667175) translate(0.005000000000000782 14.4)"/><path d="M888.27 608.47c3.53-2.65 9.26-2.65 12.8 0l67.2 50.4c3.53 2.65 3.53 6.95 0 9.6l-67.2 50.4c-3.54 2.65-9.27 2.65-12.8 0l-67.2-50.4c-3.54-2.65-3.54-6.95 0-9.6z" stroke="#333" fill="#f9d2de"/><use xlink:href="#v" transform="matrix(1,0,0,1,819.6666666666666,608.6666666667174) translate(39.475 47.8)"/><use xlink:href="#w" transform="matrix(1,0,0,1,819.6666666666666,608.6666666667174) translate(31.85 69.4)"/><path d="M1011.8 491.7l-.4 3.2-1.26 3-2 2.6-2.6 2-3 1.25-3.2.42H971.8v-1h27.47l3.02-.4 2.75-1.14 2.4-1.83 1.82-2.4 1.14-2.75.4-3.02V384.47h1zm-9.25-248.1l3 1.23 2.6 2 2 2.6 1.24 3 .4 3.2v107.24h-1V255.7l-.4-3.02-1.13-2.75-1.83-2.4-2.4-1.83-2.75-1.14-3.03-.4H987.7v-1h11.64z" fill="#333"/><path d="M971.82 504.17h-.53l.03-1h.5zM987.2 248.3l-14.27-4.63 14.26-4.64z" fill="#333"/><path d="M987.7 249l-16.4-5.33 16.4-5.33zm-13.16-5.33l12.15 3.94v-7.88z" fill="#333"/><use xlink:href="#k" transform="matrix(1,0,0,1,999.8325680719416,362.86666666671744) translate(0.005000000000000782 14.4)"/><path d="M1034.67 611.67c0-4.42 3.58-8 8-8h144c4.4 0 8 3.58 8 8v104c0 4.4-3.6 8-8 8h-144c-4.42 0-8-3.6-8-8z" stroke="#333" fill="#fff"/><use xlink:href="#x" transform="matrix(1,0,0,1,1039.6666666666667,608.6666666667174) translate(32.875 37)"/><use xlink:href="#y" transform="matrix(1,0,0,1,1039.6666666666667,608.6666666667174) translate(109.275 37)"/><use xlink:href="#z" transform="matrix(1,0,0,1,1039.6666666666667,608.6666666667174) translate(20.875 58.6)"/><use xlink:href="#A" transform="matrix(1,0,0,1,1039.6666666666667,608.6666666667174) translate(48.175 80.20000000000002)"/><path d="M991.26 664.17H971.8v-1h19.46zm26.52 0h-3.57v-1h3.58z" fill="#333"/><path d="M971.82 664.17h-.53l.03-1h.5zM1032.55 663.67l-14.27 4.63v-9.27z" fill="#333"/><path d="M1034.17 663.67l-16.4 5.32v-10.66zm-15.4 3.94l12.16-3.93-12.15-3.95z" fill="#333"/><use xlink:href="#k" transform="matrix(1,0,0,1,991.2621173693042,652.8666666667175) translate(0.005000000000000782 14.4)"/><path d="M1105.9 243.6l3 1.23 2.6 2 2 2.6 1.25 3 .42 3.2v347.04h-1V255.7l-.4-3.02-1.14-2.75-1.83-2.4-2.4-1.83-2.75-1.14-3.02-.4H987.7v-1h115z" fill="#333"/><path d="M1115.17 603.17h-1v-.52h1zM987.2 248.3l-14.27-4.63 14.26-4.64z" fill="#333"/><path d="M987.7 249l-16.4-5.33 16.4-5.33zm-13.16-5.33l12.15 3.94v-7.88zM895.17 766.78h-1V763h1zm0-25.37h-1v-19.65h1zM895.17 721.26v.5h-1v-.5zM894.67 781.55l-4.64-14.27h9.27z" fill="#333"/><path d="M894.67 783.17l-5.33-16.4H900zm-3.95-15.4l3.95 12.16 3.94-12.15z" fill="#333"/><g><use xlink:href="#j" transform="matrix(1,0,0,1,879.9916666666667,741.4098161557246) translate(0.005000000000000782 14.4)"/></g><path d="M814.67 791.67c0-4.42 3.58-8 8-8h144c4.4 0 8 3.58 8 8v104c0 4.4-3.6 8-8 8h-144c-4.42 0-8-3.6-8-8z" stroke="#333" fill="#fff"/><g><use xlink:href="#B" transform="matrix(1,0,0,1,819.6666666666666,788.6666666667174) translate(18.174999999999997 47.8)"/><use xlink:href="#C" transform="matrix(1,0,0,1,819.6666666666666,788.6666666667174) translate(26.224999999999994 69.4)"/></g><path d="M1114.67 813.67c11.04 0 20 13.43 20 30s-8.96 30-20 30h-60c-11.05 0-20-13.43-20-30s8.95-30 20-30z" stroke="#333" fill="#e5e5e5"/><g><use xlink:href="#l" transform="matrix(1,0,0,1,1039.6666666666667,818.6666666667174) translate(29 28.6)"/></g><path d="M975.67 843.67h42.1" stroke="#333" fill="none"/><path d="M975.68 844.17h-.5v-1h.5z" fill="#333"/><path d="M1032.55 843.67l-14.27 4.63v-9.27z" stroke="#333" fill="#333"/><path d="M528.67 601.93l-.5 3.9-1.6 3.85L524 613l-3.32 2.56-3.86 1.6-3.9.5h-105l-3.9-.5-3.86-1.6-3.33-2.56-2.56-3.32-1.6-3.86-.5-3.9V561.8l-.3-2.33-.8-1.9-1.27-1.66-1.66-1.27-1.9-.8-2.33-.3h-4.73v-8h5.26l3.9.52 3.85 1.6 3.32 2.55 2.56 3.33 1.6 3.85.5 3.9v40.13l.3 2.34.8 1.9 1.27 1.66 1.66 1.27 1.9.8 2.33.3H512.4l2.34-.3 1.9-.8 1.66-1.27 1.27-1.66.8-1.9.3-2.33V281.45h8z" fill="#ff8f80"/><path d="M538.3 297.2l-6.9 4.08-6.73-11.4-6.74 11.4-6.9-4.08 13.64-23.03zM379.27 553.54h-4.1v-8h4.1z" fill="#ff8f80"/><defs><path fill="#333" d="M185-189c-5-48-123-54-124 2 14 75 158 14 163 119 3 78-121 87-175 55-17-10-28-26-33-46l33-7c5 56 141 63 141-1 0-78-155-14-162-118-5-82 145-84 179-34 5 7 8 16 11 25" id="D"/><path fill="#333" d="M59-47c-2 24 18 29 38 22v24C64 9 27 4 27-40v-127H5v-23h24l9-43h21v43h35v23H59v120" id="E"/><path fill="#333" d="M141-36C126-15 110 5 73 4 37 3 15-17 15-53c-1-64 63-63 125-63 3-35-9-54-41-54-24 1-41 7-42 31l-33-3c5-37 33-52 76-52 45 0 72 20 72 64v82c-1 20 7 32 28 27v20c-31 9-61-2-59-35zM48-53c0 20 12 33 32 33 41-3 63-29 60-74-43 2-92-5-92 41" id="F"/><path fill="#333" d="M114-163C36-179 61-72 57 0H25l-1-190h30c1 12-1 29 2 39 6-27 23-49 58-41v29" id="G"/><g id="a"><use transform="matrix(0.05,0,0,0.05,0,0)" xlink:href="#D"/><use transform="matrix(0.05,0,0,0.05,12,0)" xlink:href="#E"/><use transform="matrix(0.05,0,0,0.05,17,0)" xlink:href="#F"/><use transform="matrix(0.05,0,0,0.05,27,0)" xlink:href="#G"/><use transform="matrix(0.05,0,0,0.05,32.95,0)" xlink:href="#E"/></g><path fill="#333" d="M197 0v-115H63V0H30v-248h33v105h134v-105h34V0h-34" id="H"/><path fill="#333" d="M141-36C126-15 110 5 73 4 37 3 15-17 15-53c-1-64 63-63 125-63 3-35-9-54-41-54-24 1-41 7-42 31l-33-3c5-37 33-52 76-52 45 0 72 20 72 64v82c-1 20 7 32 28 27v20c-31 9-61-2-59-35zM48-53c0 20 12 33 32 33 41-3 63-29 60-74-43 2-92-5-92 41" id="I"/><path fill="#333" d="M131-81C94-61 21-56 21-118v-72h32c4 39-16 99 29 99 19 0 33-5 49-8v-91h31V0h-31v-81" id="J"/><path fill="#333" d="M153 0v-167H87C74-108 81-27 38 0 29 5 12 6 2 1v-22c51 4 39-64 49-112 5-25 4-25 8-57h126V0h-32" id="K"/><path fill="#333" d="M173-56C173 11 92 0 25 0v-190h32v80c58-2 117-2 116 54zm-34 0c0-39-44-31-82-32v66c39 0 82 6 82-34" id="L"/><path fill="#333" d="M57-190v80h85v-80h32V0h-32v-87H57V0H25v-190h32" id="M"/><path fill="#333" d="M170-56C169 10 92 0 25 0v-190h32v80c58-2 114-1 113 54zm-34 0c0-38-42-32-79-32v66c38 0 79 5 79-34zm66 56v-190h32V0h-32" id="N"/><path fill="#333" d="M165-267c8 67-110 75-125 20-2-7-4-13-4-20h29c1 23 13 35 36 35s34-13 36-35h28zM56-190L54-37l88-153h34V0h-30l2-153L59 0H25v-190h31" id="O"/><g id="b"><use transform="matrix(0.05,0,0,0.05,0,0)" xlink:href="#H"/><use transform="matrix(0.05,0,0,0.05,12.950000000000001,0)" xlink:href="#I"/><use transform="matrix(0.05,0,0,0.05,22.55,0)" xlink:href="#J"/><use transform="matrix(0.05,0,0,0.05,31.899999999999995,0)" xlink:href="#I"/><use transform="matrix(0.05,0,0,0.05,41.9,0)" xlink:href="#K"/><use transform="matrix(0.05,0,0,0.05,52.400000000000006,0)" xlink:href="#L"/><use transform="matrix(0.05,0,0,0.05,61.75,0)" xlink:href="#M"/><use transform="matrix(0.05,0,0,0.05,71.65,0)" xlink:href="#N"/><use transform="matrix(0.05,0,0,0.05,84.55000000000001,0)" xlink:href="#O"/></g><path fill="#333" d="M168-95c0 83-77 126-137 81-11-8-19-24-21-41l32-2c0 41 62 48 80 19 9-12 11-28 13-47H63v-23h72c-2-36-11-62-49-62-26 0-39 12-43 34l-32-2c8-35 32-56 74-56 57 0 83 38 83 99" id="P"/><path fill="#333" d="M75-87c-4 1-14 3-19 3V0H24v-190h32v83c26-2 31-21 43-41l26-42h33l-61 86L159 0h-35" id="Q"/><path fill="#333" d="M115-194c55 1 70 41 70 98S169 2 115 4C84 4 66-9 55-30l1 105H24l-1-265h31l2 30c10-21 28-34 59-34zm-8 174c40 0 45-34 45-75s-6-73-45-74c-42 0-51 32-51 76 0 43 10 73 51 73" id="R"/><g id="c"><use transform="matrix(0.05,0,0,0.05,0,0)" xlink:href="#P"/><use transform="matrix(0.05,0,0,0.05,9.15,0)" xlink:href="#Q"/><use transform="matrix(0.05,0,0,0.05,17,0)" xlink:href="#R"/><use transform="matrix(0.05,0,0,0.05,27,0)" xlink:href="#I"/><use transform="matrix(0.05,0,0,0.05,37,0)" xlink:href="#M"/></g><path fill="#333" d="M160-131c35 5 61 23 61 61C221 17 115-2 30 0v-248c76 3 177-17 177 60 0 33-19 50-47 57zm-97-11c50-1 110 9 110-42 0-47-63-36-110-37v79zm0 115c55-2 124 14 124-45 0-56-70-42-124-44v89" id="S"/><path fill="#333" d="M105-20c41 1 53-27 53-68 0-40-9-69-50-69s-54 27-54 69c0 40 12 68 51 68zM47-134c10-28 31-47 68-47 56 0 76 33 76 92 1 60-28 90-86 93C-9 9 1-201 72-238c29-15 73-21 110-26v28c-67 12-144 10-135 102" id="T"/><path fill="#333" d="M100-194c62-1 85 37 85 99 1 63-27 99-86 99S16-35 15-95c0-66 28-99 85-99zM99-20c44 1 53-31 53-75 0-43-8-75-51-75s-53 32-53 75 10 74 51 75" id="U"/><g id="d"><use transform="matrix(0.05,0,0,0.05,0,0)" xlink:href="#S"/><use transform="matrix(0.05,0,0,0.05,12,0)" xlink:href="#N"/><use transform="matrix(0.05,0,0,0.05,24.9,0)" xlink:href="#T"/><use transform="matrix(0.05,0,0,0.05,35.2,0)" xlink:href="#U"/><use transform="matrix(0.05,0,0,0.05,45.2,0)" xlink:href="#R"/></g><path fill="#333" d="M100-194c63 0 86 42 84 106H49c0 40 14 67 53 68 26 1 43-12 49-29l28 8c-11 28-37 45-77 45C44 4 14-33 15-96c1-61 26-98 85-98zm52 81c6-60-76-77-97-28-3 7-6 17-6 28h103" id="V"/><path fill="#333" d="M156-87c-4 1-15 3-20 3V0h-31v-84c-5 0-16-2-20-3L36 0H1l62-104c-22-24-40-59-60-86h33l50 76c5 5 9 7 19 7v-83h31v83c27-1 31-21 43-41l26-42h33l-60 86L240 0h-36" id="W"/><path fill="#333" d="M56-190L54-37l88-153h34V0h-30l2-153L59 0H25v-190h31" id="X"/><path fill="#333" d="M138 0h-27L54-167c3 53 2 111 2 167H25v-190h49c16 56 39 106 51 166 11-61 34-110 50-166h48V0h-31l2-168" id="Y"/><g id="e"><use transform="matrix(0.05,0,0,0.05,0,0)" xlink:href="#R"/><use transform="matrix(0.05,0,0,0.05,10,0)" xlink:href="#V"/><use transform="matrix(0.05,0,0,0.05,19.8,0)" xlink:href="#W"/><use transform="matrix(0.05,0,0,0.05,31.8,0)" xlink:href="#X"/><use transform="matrix(0.05,0,0,0.05,41.85,0)" xlink:href="#Y"/><use transform="matrix(0.05,0,0,0.05,54.2,0)" xlink:href="#I"/></g><path fill="#333" d="M30 0v-248h30L58-37l132-211h39V0h-30l1-209L70 0H30" id="Z"/><path fill="#333" d="M121-190v23H57V0H25v-190h96" id="aa"/><g id="f"><use transform="matrix(0.05,0,0,0.05,0,0)" xlink:href="#Z"/><use transform="matrix(0.05,0,0,0.05,12.9,0)" xlink:href="#aa"/><use transform="matrix(0.05,0,0,0.05,19.450000000000003,0)" xlink:href="#R"/><use transform="matrix(0.05,0,0,0.05,29.450000000000003,0)" xlink:href="#I"/></g><path fill="#333" d="M6-190h153v23H98V0H67v-167H6v-23" id="ab"/><g id="g"><use transform="matrix(0.05,0,0,0.05,0,0)" xlink:href="#H"/><use transform="matrix(0.05,0,0,0.05,12.950000000000001,0)" xlink:href="#I"/><use transform="matrix(0.05,0,0,0.05,22.55,0)" xlink:href="#J"/><use transform="matrix(0.05,0,0,0.05,31.899999999999995,0)" xlink:href="#I"/><use transform="matrix(0.05,0,0,0.05,41.5,0)" xlink:href="#ab"/><use transform="matrix(0.05,0,0,0.05,49.7,0)" xlink:href="#L"/></g><path fill="#333" d="M176-55C176 11 93 0 25 0v-190c61 3 142-15 144 47 1 29-21 35-39 44 27 3 46 16 46 44zm-34 0c0-41-47-30-85-32v64c38-1 85 8 85-32zm-6-83c0-36-44-26-79-28v56c34-2 79 8 79-28" id="ac"/><path fill="#333" d="M179-190L93 31C79 59 56 82 12 73V49c39 6 53-20 64-50L1-190h34L92-34l54-156h33" id="ad"/><path fill="#333" d="M175-194c59 1 80 36 80 99 0 62-25 99-81 99-54 0-76-36-78-91H57V0H25v-190h32v80h39c4-56 30-84 79-84zm-1 174c42 1 48-34 48-75 0-42-6-75-46-75-41-1-47 34-47 75s6 74 45 75" id="ae"/><g id="h"><use transform="matrix(0.05,0,0,0.05,0,0)" xlink:href="#M"/><use transform="matrix(0.05,0,0,0.05,9.9,0)" xlink:href="#U"/><use transform="matrix(0.05,0,0,0.05,19.9,0)" xlink:href="#ac"/><use transform="matrix(0.05,0,0,0.05,29.05,0)" xlink:href="#ad"/><use transform="matrix(0.05,0,0,0.05,38.05,0)" xlink:href="#ae"/></g><path fill="#333" d="M103-251c84 0 111 97 45 133-19 10-37 24-39 52H78c0-63 77-55 77-114 0-30-21-42-52-43-32 0-53 17-56 46l-32-2c7-45 34-72 88-72zM77 0v-35h34V0H77" id="af"/><g id="i"><use transform="matrix(0.05,0,0,0.05,0,0)" xlink:href="#X"/><use transform="matrix(0.05,0,0,0.05,10.05,0)" xlink:href="#aa"/><use transform="matrix(0.05,0,0,0.05,16.6,0)" xlink:href="#R"/><use transform="matrix(0.05,0,0,0.05,26.400000000000002,0)" xlink:href="#ad"/><use transform="matrix(0.05,0,0,0.05,35.400000000000006,0)" xlink:href="#af"/></g><path fill="#333" d="M137-103V0h-34v-103L8-248h37l75 118 75-118h37" id="ag"/><path fill="#333" d="M100-194c63 0 86 42 84 106H49c0 40 14 67 53 68 26 1 43-12 49-29l28 8c-11 28-37 45-77 45C44 4 14-33 15-96c1-61 26-98 85-98zm52 81c6-60-76-77-97-28-3 7-6 17-6 28h103" id="ah"/><path fill="#333" d="M135-143c-3-34-86-38-87 0 15 53 115 12 119 90S17 21 10-45l28-5c4 36 97 45 98 0-10-56-113-15-118-90-4-57 82-63 122-42 12 7 21 19 24 35" id="ai"/><g id="j"><use transform="matrix(0.05,0,0,0.05,0,0)" xlink:href="#ag"/><use transform="matrix(0.05,0,0,0.05,10.35,0)" xlink:href="#ah"/><use transform="matrix(0.05,0,0,0.05,20.35,0)" xlink:href="#ai"/></g><path fill="#333" d="M190 0L58-211 59 0H30v-248h39L202-35l-2-213h31V0h-41" id="aj"/><path fill="#333" d="M100-194c62-1 85 37 85 99 1 63-27 99-86 99S16-35 15-95c0-66 28-99 85-99zM99-20c44 1 53-31 53-75 0-43-8-75-51-75s-53 32-53 75 10 74 51 75" id="ak"/><g id="k"><use transform="matrix(0.05,0,0,0.05,0,0)" xlink:href="#aj"/><use transform="matrix(0.05,0,0,0.05,12.950000000000001,0)" xlink:href="#ak"/></g><path fill="#333" d="M30 0v-248h187v28H63v79h144v27H63v87h162V0H30" id="al"/><path fill="#333" d="M117-194c89-4 53 116 60 194h-32v-121c0-31-8-49-39-48C34-167 62-67 57 0H25l-1-190h30c1 10-1 24 2 32 11-22 29-35 61-36" id="am"/><path fill="#333" d="M85-194c31 0 48 13 60 33l-1-100h32l1 261h-30c-2-10 0-23-3-31C134-8 116 4 85 4 32 4 16-35 15-94c0-66 23-100 70-100zm9 24c-40 0-46 34-46 75 0 40 6 74 45 74 42 0 51-32 51-76 0-42-9-74-50-73" id="an"/><g id="l"><use transform="matrix(0.05,0,0,0.05,0,0)" xlink:href="#al"/><use transform="matrix(0.05,0,0,0.05,12,0)" xlink:href="#am"/><use transform="matrix(0.05,0,0,0.05,22,0)" xlink:href="#an"/></g><path fill="#333" d="M212-179c-10-28-35-45-73-45-59 0-87 40-87 99 0 60 29 101 89 101 43 0 62-24 78-52l27 14C228-24 195 4 139 4 59 4 22-46 18-125c-6-104 99-153 187-111 19 9 31 26 39 46" id="ao"/><path fill="#333" d="M152-53C154 19 21 22 9-41l28-8c5 36 84 42 81-4-1-29-28-34-58-35v-24c28 0 55-4 55-30 0-19-14-29-34-28-20 0-35 7-38 25l-28-3c4-33 30-46 66-46 37 0 66 15 66 50 0 27-20 41-44 44 27 5 48 17 49 47" id="ap"/><path fill="#333" d="M147-167H93C83-118 77-63 59-23h88v-144zM24-23c26-44 31-102 41-167h113v167h26v95h-29V0H32v72H4v-95h20" id="aq"/><path fill="#333" d="M96-169c-40 0-48 33-48 73s9 75 48 75c24 0 41-14 43-38l32 2c-6 37-31 61-74 61-59 0-76-41-82-99-10-93 101-131 147-64 4 7 5 14 7 22l-32 3c-4-21-16-35-41-35" id="ar"/><path fill="#333" d="M20-138c-1-64 85-51 150-52V0h-32v-81H94L39 0H3l60-83c-28-5-43-24-43-55zm33 3c0 40 46 33 85 33v-66c-39 0-85-6-85 33" id="as"/><path fill="#333" d="M68-38c1 34 0 65-14 84H32c9-13 17-26 17-46H33v-38h35" id="at"/><g id="m"><use transform="matrix(0.05,0,0,0.05,0,0)" xlink:href="#ao"/><use transform="matrix(0.05,0,0,0.05,12.950000000000001,0)" xlink:href="#U"/><use transform="matrix(0.05,0,0,0.05,22.75,0)" xlink:href="#ap"/><use transform="matrix(0.05,0,0,0.05,30.6,0)" xlink:href="#aq"/><use transform="matrix(0.05,0,0,0.05,41.1,0)" xlink:href="#I"/><use transform="matrix(0.05,0,0,0.05,51.1,0)" xlink:href="#V"/><use transform="matrix(0.05,0,0,0.05,60.5,0)" xlink:href="#ab"/><use transform="matrix(0.05,0,0,0.05,68.5,0)" xlink:href="#ar"/><use transform="matrix(0.05,0,0,0.05,77.5,0)" xlink:href="#as"/><use transform="matrix(0.05,0,0,0.05,87.2,0)" xlink:href="#at"/></g><path fill="#333" d="M170-190V0h-32v-167H57V0H25v-190h145" id="au"/><g id="n"><use transform="matrix(0.05,0,0,0.05,0,0)" xlink:href="#au"/><use transform="matrix(0.05,0,0,0.05,9.700000000000001,0)" xlink:href="#U"/><use transform="matrix(0.05,0,0,0.05,19.3,0)" xlink:href="#K"/><use transform="matrix(0.05,0,0,0.05,29.8,0)" xlink:href="#V"/><use transform="matrix(0.05,0,0,0.05,39.8,0)" xlink:href="#at"/></g><path fill="#333" d="M217-194c52 0 64 44 64 98S268 2 217 4c-29 1-44-13-55-34l1 105h-30V-31C124-8 108 4 79 4 29 4 16-37 15-94c0-57 15-98 64-100 29 0 44 14 55 33l-1-100h30v101c10-23 24-34 54-34zM89-170c-37 1-41 36-41 75 0 37 3 74 40 74 39 0 45-35 45-76-1-39-6-73-44-73zM207-20c38 0 41-36 41-75 0-38-3-74-40-74-41 0-45 36-45 80 1 38 7 69 44 69" id="av"/><g id="o"><use transform="matrix(0.05,0,0,0.05,0,0)" xlink:href="#av"/><use transform="matrix(0.05,0,0,0.05,14.8,0)" xlink:href="#X"/><use transform="matrix(0.05,0,0,0.05,24.85,0)" xlink:href="#aa"/><use transform="matrix(0.05,0,0,0.05,31.400000000000002,0)" xlink:href="#ad"/><use transform="matrix(0.05,0,0,0.05,40.2,0)" xlink:href="#R"/><use transform="matrix(0.05,0,0,0.05,50.2,0)" xlink:href="#N"/></g><path fill="#333" d="M195 0l-74-108L45 0H8l94-129-87-119h37l69 98 67-98h37l-84 118L233 0h-38" id="aw"/><g id="p"><use transform="matrix(0.05,0,0,0.05,0,0)" xlink:href="#aw"/><use transform="matrix(0.05,0,0,0.05,11.8,0)" xlink:href="#U"/><use transform="matrix(0.05,0,0,0.05,21.4,0)" xlink:href="#aq"/><use transform="matrix(0.05,0,0,0.05,31.899999999999995,0)" xlink:href="#X"/><use transform="matrix(0.05,0,0,0.05,41.95,0)" xlink:href="#ab"/></g><g id="q"><use transform="matrix(0.05,0,0,0.05,0,0)" xlink:href="#X"/><use transform="matrix(0.05,0,0,0.05,10.05,0)" xlink:href="#aa"/><use transform="matrix(0.05,0,0,0.05,16.6,0)" xlink:href="#R"/><use transform="matrix(0.05,0,0,0.05,26.6,0)" xlink:href="#U"/><use transform="matrix(0.05,0,0,0.05,36.6,0)" xlink:href="#Q"/></g><path fill="#333" d="M195 0l-74-108L45 0H8l94-129-87-119h37l69 98 67-98h37l-84 118L233 0h-38" id="ax"/><use transform="matrix(0.05,0,0,0.05,0,0)" xlink:href="#ax" id="r"/><g id="s"><use transform="matrix(0.05,0,0,0.05,0,0)" xlink:href="#aw"/><use transform="matrix(0.05,0,0,0.05,11.8,0)" xlink:href="#U"/><use transform="matrix(0.05,0,0,0.05,21.4,0)" xlink:href="#aq"/></g><path fill="#333" d="M25 0v-190h32v167h72v-167h31v167h72v-167h32V0H25" id="ay"/><g id="t"><use transform="matrix(0.05,0,0,0.05,0,0)" xlink:href="#ar"/><use transform="matrix(0.05,0,0,0.05,9.2,0)" xlink:href="#U"/><use transform="matrix(0.05,0,0,0.05,19.2,0)" xlink:href="#ac"/><use transform="matrix(0.05,0,0,0.05,28.55,0)" xlink:href="#V"/><use transform="matrix(0.05,0,0,0.05,38.55,0)" xlink:href="#R"/><use transform="matrix(0.05,0,0,0.05,48.55,0)" xlink:href="#ay"/><use transform="matrix(0.05,0,0,0.05,62.94999999999999,0)" xlink:href="#V"/><use transform="matrix(0.05,0,0,0.05,72.94999999999999,0)" xlink:href="#M"/></g><g id="u"><use transform="matrix(0.05,0,0,0.05,0,0)" xlink:href="#Q"/><use transform="matrix(0.05,0,0,0.05,8.05,0)" xlink:href="#U"/><use transform="matrix(0.05,0,0,0.05,18.05,0)" xlink:href="#R"/><use transform="matrix(0.05,0,0,0.05,28.05,0)" xlink:href="#R"/><use transform="matrix(0.05,0,0,0.05,38.05,0)" xlink:href="#V"/><use transform="matrix(0.05,0,0,0.05,48.05,0)" xlink:href="#Q"/><use transform="matrix(0.05,0,0,0.05,56.1,0)" xlink:href="#ab"/><use transform="matrix(0.05,0,0,0.05,64.1,0)" xlink:href="#V"/><use transform="matrix(0.05,0,0,0.05,74.1,0)" xlink:href="#M"/><use transform="matrix(0.05,0,0,0.05,84,0)" xlink:href="#af"/></g><path fill="#333" d="M197 0v-219H63V0H30v-248h201V0h-34" id="az"/><path fill="#333" d="M57-190v167h83v-167h32v167h26v95h-29V0H25v-190h32" id="aA"/><g id="v"><use transform="matrix(0.05,0,0,0.05,0,0)" xlink:href="#az"/><use transform="matrix(0.05,0,0,0.05,12.9,0)" xlink:href="#U"/><use transform="matrix(0.05,0,0,0.05,22.700000000000003,0)" xlink:href="#ap"/><use transform="matrix(0.05,0,0,0.05,30.950000000000003,0)" xlink:href="#X"/><use transform="matrix(0.05,0,0,0.05,41,0)" xlink:href="#aA"/><use transform="matrix(0.05,0,0,0.05,51.29999999999999,0)" xlink:href="#X"/><use transform="matrix(0.05,0,0,0.05,61.349999999999994,0)" xlink:href="#as"/></g><g id="w"><use transform="matrix(0.05,0,0,0.05,0,0)" xlink:href="#Q"/><use transform="matrix(0.05,0,0,0.05,8.05,0)" xlink:href="#U"/><use transform="matrix(0.05,0,0,0.05,18.05,0)" xlink:href="#M"/><use transform="matrix(0.05,0,0,0.05,27.950000000000003,0)" xlink:href="#V"/><use transform="matrix(0.05,0,0,0.05,37.35,0)" xlink:href="#J"/><use transform="matrix(0.05,0,0,0.05,46.7,0)" xlink:href="#M"/><use transform="matrix(0.05,0,0,0.05,56.6,0)" xlink:href="#I"/><use transform="matrix(0.05,0,0,0.05,66.6,0)" xlink:href="#as"/><use transform="matrix(0.05,0,0,0.05,76.3,0)" xlink:href="#af"/></g><path fill="#333" d="M141 0L90-78 38 0H4l68-98-65-92h35l48 74 47-74h35l-64 92 68 98h-35" id="aB"/><g id="x"><use transform="matrix(0.05,0,0,0.05,0,0)" xlink:href="#az"/><use transform="matrix(0.05,0,0,0.05,12.9,0)" xlink:href="#V"/><use transform="matrix(0.05,0,0,0.05,22.9,0)" xlink:href="#R"/><use transform="matrix(0.05,0,0,0.05,32.9,0)" xlink:href="#V"/><use transform="matrix(0.05,0,0,0.05,42.5,0)" xlink:href="#aB"/><use transform="matrix(0.05,0,0,0.05,51.29999999999999,0)" xlink:href="#U"/><use transform="matrix(0.05,0,0,0.05,60.900000000000006,0)" xlink:href="#aq"/></g><use transform="matrix(0.05,0,0,0.05,0,0)" xlink:href="#Q" id="y"/><path fill="#333" d="M25 0v-190h32v167h71v-167h31v167h71v-167h32v167h26v95h-29V0H25" id="aC"/><g id="z"><use transform="matrix(0.05,0,0,0.05,0,0)" xlink:href="#ar"/><use transform="matrix(0.05,0,0,0.05,9,0)" xlink:href="#K"/><use transform="matrix(0.05,0,0,0.05,19.5,0)" xlink:href="#V"/><use transform="matrix(0.05,0,0,0.05,29.1,0)" xlink:href="#aq"/><use transform="matrix(0.05,0,0,0.05,39.6,0)" xlink:href="#ad"/><use transform="matrix(0.05,0,0,0.05,48.6,0)" xlink:href="#ae"/><use transform="matrix(0.05,0,0,0.05,62.1,0)" xlink:href="#aC"/><use transform="matrix(0.05,0,0,0.05,76.7,0)" xlink:href="#V"/><use transform="matrix(0.05,0,0,0.05,86.7,0)" xlink:href="#Y"/><use transform="matrix(0.05,0,0,0.05,99.25,0)" xlink:href="#ad"/></g><g id="A"><use transform="matrix(0.05,0,0,0.05,0,0)" xlink:href="#X"/><use transform="matrix(0.05,0,0,0.05,10.05,0)" xlink:href="#aa"/><use transform="matrix(0.05,0,0,0.05,16.6,0)" xlink:href="#R"/><use transform="matrix(0.05,0,0,0.05,26.6,0)" xlink:href="#U"/><use transform="matrix(0.05,0,0,0.05,36.6,0)" xlink:href="#Q"/><use transform="matrix(0.05,0,0,0.05,44.650000000000006,0)" xlink:href="#ad"/></g><path fill="#333" d="M140-251c81 0 123 46 123 126C263-46 219 4 140 4 59 4 17-45 17-125s42-126 123-126zm0 227c63 0 89-41 89-101s-29-99-89-99c-61 0-89 39-89 99S79-25 140-24" id="aD"/><g id="B"><use transform="matrix(0.05,0,0,0.05,0,0)" xlink:href="#aD"/><use transform="matrix(0.05,0,0,0.05,14,0)" xlink:href="#au"/><use transform="matrix(0.05,0,0,0.05,23.700000000000003,0)" xlink:href="#R"/><use transform="matrix(0.05,0,0,0.05,33.7,0)" xlink:href="#V"/><use transform="matrix(0.05,0,0,0.05,43.300000000000004,0)" xlink:href="#aq"/><use transform="matrix(0.05,0,0,0.05,53.800000000000004,0)" xlink:href="#V"/><use transform="matrix(0.05,0,0,0.05,63.2,0)" xlink:href="#K"/><use transform="matrix(0.05,0,0,0.05,73.7,0)" xlink:href="#V"/><use transform="matrix(0.05,0,0,0.05,83.7,0)" xlink:href="#M"/><use transform="matrix(0.05,0,0,0.05,93.60000000000001,0)" xlink:href="#X"/><use transform="matrix(0.05,0,0,0.05,103.65,0)" xlink:href="#V"/></g><g id="C"><use transform="matrix(0.05,0,0,0.05,0,0)" xlink:href="#au"/><use transform="matrix(0.05,0,0,0.05,9.700000000000001,0)" xlink:href="#U"/><use transform="matrix(0.05,0,0,0.05,19.700000000000003,0)" xlink:href="#T"/><use transform="matrix(0.05,0,0,0.05,29.8,0)" xlink:href="#V"/><use transform="matrix(0.05,0,0,0.05,39.400000000000006,0)" xlink:href="#aq"/><use transform="matrix(0.05,0,0,0.05,49.900000000000006,0)" xlink:href="#X"/><use transform="matrix(0.05,0,0,0.05,59.95,0)" xlink:href="#ab"/><use transform="matrix(0.05,0,0,0.05,67.95,0)" xlink:href="#V"/><use transform="matrix(0.05,0,0,0.05,77.35000000000001,0)" xlink:href="#K"/><use transform="matrix(0.05,0,0,0.05,87.85000000000001,0)" xlink:href="#as"/></g></defs></g></svg>